<svg width="40" height="40" viewBox="0 0 40 40" fill="none" xmlns="http://www.w3.org/2000/svg">
<g id="2mefrWcaTouCqWfNv3kcIyHvaOp 1">
<g id="Group 117">
<path id="Vector" d="M8.31412 6H20.2071L20.2186 12.2516L20.2416 12.4818L20.2877 12.6085L20.4028 12.7927L20.5295 12.9193L20.7137 13.0114L20.8633 13.0575L21.0015 13.0805L21.1397 13.092L22.1989 13.1036H26.9422L27.2991 13.1151L27.3222 13.1381V15.1529L27.3337 15.9933L27.2991 16.0048L27.1264 15.9588L26.8847 15.9127L26.3436 15.8552L26.1478 15.8437H25.4686L25.1002 15.8782L24.7317 15.9358L24.3518 16.0164L23.8913 16.143L23.5919 16.2466L23.3387 16.3502L23.0623 16.4769L22.8781 16.569L22.6133 16.7071L22.1873 16.9834L21.9916 17.1216L21.8074 17.2713L21.6117 17.4325L21.462 17.5706L21.2893 17.7318L21.0821 17.939L21.0015 18.0311L20.8864 18.1578L20.8058 18.2499L20.6561 18.4456L20.4949 18.6759L20.3337 18.9176L20.1841 19.1594L20.0459 19.4127L19.9538 19.5969L19.8041 19.9308L19.689 20.2416L19.5969 20.541L19.4588 21.036L19.3897 21.4275L19.3436 21.8304L19.3206 22.1068L19.3091 22.3716V22.5673L19.3321 22.9242L19.3897 23.3502L19.4703 23.7646L19.5739 24.1791L19.6775 24.5245L19.7581 24.7432L19.8963 25.0771L20.1035 25.5031L20.2647 25.7794L20.3453 25.9061L20.4949 26.1248L20.6216 26.309L20.7828 26.5163L20.8633 26.6084L21.0015 26.7695L21.1742 26.9538L21.3239 27.1034L21.416 27.184L21.4966 27.2646L21.5887 27.3452L21.7383 27.4718L21.842 27.5524L22.0837 27.7366L22.2219 27.8287L22.4982 28.0014L22.763 28.1511L22.9818 28.2662L23.2465 28.3929L23.5919 28.531L23.9258 28.6577L24.2827 28.7498L24.6051 28.8189L24.9505 28.8764L25.4225 28.9225L25.6067 28.934H26.2054L26.7465 28.8879L27.1149 28.8419L27.2531 28.8074H27.3222V30.9833L27.3107 31.2711L27.2761 31.5475L27.2186 31.7777L27.1264 32.0655L26.9883 32.3649L26.8962 32.5376L26.8041 32.6757L26.6659 32.8715L26.5738 32.9866H26.5508L26.5278 33.0326L26.3436 33.2169L26.1133 33.4011L25.883 33.5507L25.5722 33.7119L25.3534 33.804L24.8469 33.9767H24.7893V33.9997H8.48682L7.99176 33.8155L7.69242 33.6889L7.50821 33.5968L7.28946 33.4586L7.12828 33.332L7.00164 33.2284L6.90953 33.1363L6.87499 33.1132V33.0902L6.84045 33.0787L6.75986 32.9866L6.65624 32.8715L6.55263 32.7333L6.40296 32.503L6.28783 32.2958L6.18421 32.0771L6.0921 31.8123L6.03454 31.6626L6.02303 31.6396L6.01151 31.582L6 31.5475V8.26807L6.02303 8.2911L6.01151 8.31412H6.04605L6.08059 8.21051L6.19572 7.88814L6.29934 7.65788L6.41447 7.45064L6.55263 7.24341L6.63322 7.12828L6.75986 6.97861L6.84045 6.8865L6.89802 6.82894L6.93256 6.81743L6.95558 6.77137L7.11677 6.64473L7.24341 6.54111L7.46216 6.40296L7.66939 6.28783L7.88814 6.18421L8.10689 6.10362L8.2911 6.03454H8.31412V6ZM10.9506 14.7269L10.1332 14.7384L9.93746 14.7499L9.82233 14.7729L9.66115 14.8535L9.52299 14.9802L9.43089 15.0953L9.33878 15.2565L9.28122 15.4292L9.26971 15.4868V15.6825L9.32727 15.8437L9.43089 16.0164L9.53451 16.143L9.63812 16.2351L9.79931 16.3157L9.91444 16.3502L10.1102 16.3733L11.3536 16.3848H17.5476L19.217 16.3733L19.4818 16.3617L19.666 16.3272L19.8502 16.2351L19.9653 16.1315L20.0689 16.0048L20.1495 15.8437L20.1841 15.7055L20.1956 15.6134V15.4983L20.1611 15.3141L20.1035 15.1644L20.0229 15.0377L19.9193 14.9226L19.7926 14.8305L19.643 14.7729L19.4472 14.7499L18.5032 14.7384L14.3354 14.7269H10.9506ZM10.421 18.0081L10.0641 18.0196L9.89141 18.0427L9.75325 18.1002L9.63812 18.1693L9.52299 18.2729L9.43089 18.3765L9.33878 18.5377L9.29273 18.6413L9.25819 18.791V18.9292L9.31576 19.1019L9.40786 19.2515L9.48845 19.3551L9.56905 19.4472L9.7072 19.5509L9.84536 19.6199L9.972 19.6545L10.0641 19.666L10.9046 19.6775H15.8437L17.1216 19.666L17.3404 19.643L17.5361 19.5854L17.6742 19.5048L17.8124 19.3782L17.9045 19.2515L17.9505 19.1594L17.9966 18.9752L18.0081 18.9061V18.7449L17.9505 18.5262L17.87 18.3765L17.7433 18.2269L17.6282 18.1348L17.49 18.0657L17.3634 18.0311L17.1101 18.0081H10.421ZM11.699 21.3008L9.98352 21.3124L9.79931 21.3469L9.67266 21.416L9.56905 21.4966L9.47694 21.5887L9.39635 21.7038L9.30425 21.888L9.26971 22.0262V22.2219L9.32727 22.4061L9.41938 22.5558L9.53451 22.7054L9.62661 22.786L9.77628 22.8781L9.89141 22.9127L10.0986 22.9357H16.9834L17.2483 22.9242L17.4209 22.9012L17.5936 22.8321L17.7318 22.74L17.8239 22.6594L17.9275 22.4982L17.9736 22.3831L18.0081 22.2104V22.0262L17.9621 21.8304L17.8815 21.6693L17.8009 21.5656L17.6973 21.462L17.5361 21.3699L17.3864 21.3239L17.2943 21.3124L15.268 21.3008H11.699ZM11.6644 24.5706L10.0065 24.5821L9.82233 24.6166L9.69569 24.6857L9.53451 24.8123L9.45392 24.9044L9.36181 25.0541L9.30425 25.1807L9.26971 25.365V25.4801L9.31576 25.6528L9.40786 25.8255L9.48845 25.9291L9.56905 26.0212L9.71872 26.1248L9.85687 26.1824L9.93746 26.2054L10.2253 26.2284H16.9259L17.3404 26.2054L17.444 26.1824L17.6397 26.0903L17.7433 26.0097L17.8354 25.9176L17.939 25.7564L17.9736 25.6528L18.0081 25.4686V25.2959L17.9621 25.1117L17.9045 24.9735L17.7894 24.8238L17.6627 24.7202L17.49 24.6281L17.3749 24.5936L17.2828 24.5821L15.9933 24.5706H11.6644Z" fill="black"/>
<path id="Vector_2" fill-rule="evenodd" clip-rule="evenodd" d="M29.2901 26.2602C28.3609 26.9447 27.2074 27.2528 26.0607 27.1228C24.9139 26.9929 23.8586 26.4344 23.1062 25.5593C22.3538 24.6842 21.9598 23.5571 22.0032 22.4039C22.0466 21.2506 22.5242 20.1563 23.3403 19.3403C24.1563 18.5242 25.2506 18.0466 26.4039 18.0032C27.5571 17.9598 28.6842 18.3538 29.5593 19.1062C30.4344 19.8586 30.9929 20.9139 31.1228 22.0607C31.2528 23.2074 30.9447 24.3609 30.2602 25.2901L32.7815 27.8105C32.849 27.8734 32.9031 27.9491 32.9406 28.0333C32.9781 28.1175 32.9983 28.2084 32.9999 28.3006C33.0015 28.3927 32.9846 28.4843 32.95 28.5698C32.9155 28.6552 32.8641 28.7329 32.799 28.798C32.7338 28.8632 32.6561 28.9146 32.5707 28.9491C32.4852 28.9837 32.3937 29.0006 32.3015 28.999C32.2093 28.9974 32.1184 28.9772 32.0342 28.9397C31.95 28.9021 31.8743 28.8481 31.8114 28.7806L29.2901 26.2602ZM29.7797 22.5756C29.7797 23.4251 29.4422 24.2399 28.8415 24.8406C28.2408 25.4413 27.426 25.7788 26.5765 25.7788C25.727 25.7788 24.9122 25.4413 24.3115 24.8406C23.7108 24.2399 23.3733 23.4251 23.3733 22.5756C23.3733 21.7261 23.7108 20.9113 24.3115 20.3106C24.9122 19.7099 25.727 19.3724 26.5765 19.3724C27.426 19.3724 28.2408 19.7099 28.8415 20.3106C29.4422 20.9113 29.7797 21.7261 29.7797 22.5756Z" fill="black"/>
<path id="Vector_3" d="M21.8648 6.53027L21.9224 6.54179L21.98 6.58784V6.61086L22.026 6.63389V6.65692L22.0721 6.67994L22.1642 6.77205V6.79507H22.1872V6.8181H22.2102L26.1937 10.8016L26.2628 10.8592L26.3204 10.9283L26.4125 11.0089L26.4931 11.0894L26.5737 11.1815L26.6888 11.2967L26.7694 11.3888L26.8039 11.4579L26.7809 11.4694L21.9109 11.4579L21.8648 11.4463L21.8533 11.3888L21.8418 11.1585V8.11907L21.8533 6.5533L21.8648 6.53027Z" fill="black"/>
<path id="Vector_4" d="M8.15332 33.9648L8.19937 33.9764L8.15332 33.9879V33.9648Z" fill="black"/>
<path id="Vector_5" d="M8.30176 33.9766H8.32561V34.0004H8.30176V33.9766Z" fill="black"/>
</g>
</g>
</svg>
