<svg width="40" height="40" viewBox="0 0 40 40" fill="none" xmlns="http://www.w3.org/2000/svg">
<g id="2meimc7nbMVtz93ffiyX2ITjvGY 1">
<g id="Group 119">
<g id="Vector">
<mask id="path-1-inside-1_10476_1688" fill="white">
<path d="M20.3246 6H20.6894L21.1946 6.05613L21.6437 6.14033L22.1208 6.25259L25.7694 7.16473L26.471 7.33313L28.2813 7.78218L29.3478 8.04881L29.7407 8.16107L30.1617 8.3014L30.4423 8.4277L30.6809 8.56803L30.8633 8.69433L31.0037 8.80659L31.144 8.93289L31.2703 9.05918L31.5088 9.36791L31.6351 9.5784L31.7474 9.80293L31.8597 10.0836L31.9439 10.4204L31.986 10.8414L32 11.108V20.7065L31.9579 21.5906L31.9018 22.18L31.8316 22.601L31.6632 23.3728L31.5229 23.8499L31.3545 24.3551L31.1721 24.8182L30.9616 25.2953L30.8493 25.5198L30.723 25.7584L30.5265 26.0952L30.3862 26.3337L30.2178 26.6004L30.1056 26.7688L29.9231 27.0354L29.7407 27.2739L29.5723 27.4985L29.432 27.6809L29.1653 27.9896L29.025 28.144L28.9268 28.2563L28.7724 28.4247L28.5619 28.6492L28.0708 29.1403L27.9585 29.2386L27.7901 29.3929L27.6498 29.5052L27.4954 29.6455L27.3832 29.7437L27.0183 30.0525L26.8359 30.1928L26.6675 30.3191L26.4851 30.4594L26.3167 30.5857L26.05 30.7822L25.7834 30.9646L25.615 31.0769L25.2923 31.2874L25.0256 31.4558L24.8011 31.5961L24.4362 31.8066L24.0433 32.0311L23.7065 32.2135L23.2013 32.4802L22.9768 32.5924L22.5699 32.7889L22.1068 32.9994L21.8121 33.1257L21.5034 33.238L21.2367 33.3081L20.9841 33.3502L20.7315 33.3783H20.1702L19.7913 33.3221L19.4545 33.2239L19.1599 33.1117L18.8792 32.9854L18.3459 32.7328L17.939 32.5363L17.4478 32.2837L17.0689 32.0872L16.8164 31.9469L16.4796 31.7505L16.0866 31.5119L15.7358 31.3014L15.1324 30.8944L14.8517 30.698L14.5851 30.5015L14.3325 30.3051L14.1641 30.1788L13.9396 29.9963L13.7572 29.842L13.6028 29.7157L13.4204 29.5473L13.3081 29.4491L13.0836 29.2386L12.845 29.014L12.4381 28.6071L12.2977 28.4527L12.1855 28.3405L12.0872 28.2282L11.9189 28.0458L11.8206 27.9335L11.6803 27.7651L11.4979 27.5406L11.3154 27.302L11.119 27.0494L10.9365 26.7828L10.8383 26.6425L10.684 26.4039L10.4454 26.011L10.263 25.6742L10.1086 25.3795L9.92617 24.9866L9.74375 24.5516L9.58938 24.1306L9.44905 23.6955L9.29469 23.1062L9.19646 22.615L9.11226 22.0818L9.05613 21.6046L9.02807 21.2398L9 20.4118V16.9036L9.01403 10.9536L9.05613 10.5467L9.1263 10.2239L9.22453 9.94326L9.32276 9.71873L9.46309 9.46614L9.60342 9.25564L9.70165 9.12935L9.85601 8.96095L10.0104 8.80659L10.1507 8.69433L10.3612 8.554L10.5857 8.4277L10.8523 8.3014L11.0769 8.21721L11.4558 8.10494L14.0378 7.47346L15.834 7.02441L16.7602 6.79988L17.7004 6.56132L18.5985 6.33679L19.3984 6.14033L19.8334 6.05613L20.1702 6.01403L20.3246 6ZM20.3948 8.37157L18.795 8.76449L17.7566 9.03112L17.2233 9.15741L15.4832 9.59243L11.8066 10.5046L11.6943 10.5467L11.6803 19.3173V20.5522L11.6943 21.1416L11.7364 21.6888L11.7926 22.0958L11.8627 22.4466L11.975 22.9097L12.0872 23.2886L12.2135 23.6394L12.3539 23.9762L12.5082 24.313L12.6766 24.6358L12.8731 24.9725L13.0275 25.2111L13.2099 25.4777L13.4344 25.7724L13.6028 25.997L13.7291 26.1513L13.8694 26.3057L13.9957 26.46L14.1922 26.6705L14.3466 26.8389L14.9219 27.4143L15.0342 27.5125L15.2166 27.6809L15.371 27.8072L15.4832 27.9195L15.6095 28.0177L15.7919 28.1721L16.2691 28.5369L16.4936 28.7053L16.7322 28.8737L16.9988 29.0561L17.2093 29.1965L17.518 29.3929L18.2898 29.856L18.5424 29.9963L18.7389 30.1086L18.9634 30.2209L19.3563 30.4314L19.8896 30.698L20.072 30.7822L20.521 30.9646L20.9982 30.7682L21.2227 30.6559L21.798 30.3612L22.1769 30.1647L22.4997 29.9823L22.8786 29.7718L23.3557 29.4912L23.5241 29.3789L23.889 29.1403L24.1977 28.9298L24.3941 28.7895L24.6467 28.6071L24.8292 28.4667L24.9835 28.3545L25.2081 28.1721L25.3484 28.0598L25.629 27.8212L25.7834 27.6809L25.8957 27.5827L26.0781 27.4283L26.2184 27.288L26.3307 27.1898L26.8078 26.7126L26.906 26.6004L27.0323 26.46L27.1586 26.3057L27.327 26.1232L27.4253 25.997L27.5937 25.7865L27.72 25.6181L27.8603 25.4216L27.9725 25.2532L28.1269 25.0146L28.3374 24.6498L28.4777 24.3832L28.6602 24.0043L28.8145 23.6394L28.9829 23.1342L29.0531 22.8816L29.1653 22.4185L29.2355 22.0677L29.2776 21.7169L29.3057 21.324L29.3197 21.0012V19.8505L29.3057 19.0787V16.2721L29.3197 13.3673V10.5607L25.3624 9.55034L23.5522 9.10128L22.612 8.86272L21.5876 8.61013L21.0543 8.48383L20.6193 8.37157H20.3948Z"/>
</mask>
<path d="M20.3246 6H20.6894L21.1946 6.05613L21.6437 6.14033L22.1208 6.25259L25.7694 7.16473L26.471 7.33313L28.2813 7.78218L29.3478 8.04881L29.7407 8.16107L30.1617 8.3014L30.4423 8.4277L30.6809 8.56803L30.8633 8.69433L31.0037 8.80659L31.144 8.93289L31.2703 9.05918L31.5088 9.36791L31.6351 9.5784L31.7474 9.80293L31.8597 10.0836L31.9439 10.4204L31.986 10.8414L32 11.108V20.7065L31.9579 21.5906L31.9018 22.18L31.8316 22.601L31.6632 23.3728L31.5229 23.8499L31.3545 24.3551L31.1721 24.8182L30.9616 25.2953L30.8493 25.5198L30.723 25.7584L30.5265 26.0952L30.3862 26.3337L30.2178 26.6004L30.1056 26.7688L29.9231 27.0354L29.7407 27.2739L29.5723 27.4985L29.432 27.6809L29.1653 27.9896L29.025 28.144L28.9268 28.2563L28.7724 28.4247L28.5619 28.6492L28.0708 29.1403L27.9585 29.2386L27.7901 29.3929L27.6498 29.5052L27.4954 29.6455L27.3832 29.7437L27.0183 30.0525L26.8359 30.1928L26.6675 30.3191L26.4851 30.4594L26.3167 30.5857L26.05 30.7822L25.7834 30.9646L25.615 31.0769L25.2923 31.2874L25.0256 31.4558L24.8011 31.5961L24.4362 31.8066L24.0433 32.0311L23.7065 32.2135L23.2013 32.4802L22.9768 32.5924L22.5699 32.7889L22.1068 32.9994L21.8121 33.1257L21.5034 33.238L21.2367 33.3081L20.9841 33.3502L20.7315 33.3783H20.1702L19.7913 33.3221L19.4545 33.2239L19.1599 33.1117L18.8792 32.9854L18.3459 32.7328L17.939 32.5363L17.4478 32.2837L17.0689 32.0872L16.8164 31.9469L16.4796 31.7505L16.0866 31.5119L15.7358 31.3014L15.1324 30.8944L14.8517 30.698L14.5851 30.5015L14.3325 30.3051L14.1641 30.1788L13.9396 29.9963L13.7572 29.842L13.6028 29.7157L13.4204 29.5473L13.3081 29.4491L13.0836 29.2386L12.845 29.014L12.4381 28.6071L12.2977 28.4527L12.1855 28.3405L12.0872 28.2282L11.9189 28.0458L11.8206 27.9335L11.6803 27.7651L11.4979 27.5406L11.3154 27.302L11.119 27.0494L10.9365 26.7828L10.8383 26.6425L10.684 26.4039L10.4454 26.011L10.263 25.6742L10.1086 25.3795L9.92617 24.9866L9.74375 24.5516L9.58938 24.1306L9.44905 23.6955L9.29469 23.1062L9.19646 22.615L9.11226 22.0818L9.05613 21.6046L9.02807 21.2398L9 20.4118V16.9036L9.01403 10.9536L9.05613 10.5467L9.1263 10.2239L9.22453 9.94326L9.32276 9.71873L9.46309 9.46614L9.60342 9.25564L9.70165 9.12935L9.85601 8.96095L10.0104 8.80659L10.1507 8.69433L10.3612 8.554L10.5857 8.4277L10.8523 8.3014L11.0769 8.21721L11.4558 8.10494L14.0378 7.47346L15.834 7.02441L16.7602 6.79988L17.7004 6.56132L18.5985 6.33679L19.3984 6.14033L19.8334 6.05613L20.1702 6.01403L20.3246 6ZM20.3948 8.37157L18.795 8.76449L17.7566 9.03112L17.2233 9.15741L15.4832 9.59243L11.8066 10.5046L11.6943 10.5467L11.6803 19.3173V20.5522L11.6943 21.1416L11.7364 21.6888L11.7926 22.0958L11.8627 22.4466L11.975 22.9097L12.0872 23.2886L12.2135 23.6394L12.3539 23.9762L12.5082 24.313L12.6766 24.6358L12.8731 24.9725L13.0275 25.2111L13.2099 25.4777L13.4344 25.7724L13.6028 25.997L13.7291 26.1513L13.8694 26.3057L13.9957 26.46L14.1922 26.6705L14.3466 26.8389L14.9219 27.4143L15.0342 27.5125L15.2166 27.6809L15.371 27.8072L15.4832 27.9195L15.6095 28.0177L15.7919 28.1721L16.2691 28.5369L16.4936 28.7053L16.7322 28.8737L16.9988 29.0561L17.2093 29.1965L17.518 29.3929L18.2898 29.856L18.5424 29.9963L18.7389 30.1086L18.9634 30.2209L19.3563 30.4314L19.8896 30.698L20.072 30.7822L20.521 30.9646L20.9982 30.7682L21.2227 30.6559L21.798 30.3612L22.1769 30.1647L22.4997 29.9823L22.8786 29.7718L23.3557 29.4912L23.5241 29.3789L23.889 29.1403L24.1977 28.9298L24.3941 28.7895L24.6467 28.6071L24.8292 28.4667L24.9835 28.3545L25.2081 28.1721L25.3484 28.0598L25.629 27.8212L25.7834 27.6809L25.8957 27.5827L26.0781 27.4283L26.2184 27.288L26.3307 27.1898L26.8078 26.7126L26.906 26.6004L27.0323 26.46L27.1586 26.3057L27.327 26.1232L27.4253 25.997L27.5937 25.7865L27.72 25.6181L27.8603 25.4216L27.9725 25.2532L28.1269 25.0146L28.3374 24.6498L28.4777 24.3832L28.6602 24.0043L28.8145 23.6394L28.9829 23.1342L29.0531 22.8816L29.1653 22.4185L29.2355 22.0677L29.2776 21.7169L29.3057 21.324L29.3197 21.0012V19.8505L29.3057 19.0787V16.2721L29.3197 13.3673V10.5607L25.3624 9.55034L23.5522 9.10128L22.612 8.86272L21.5876 8.61013L21.0543 8.48383L20.6193 8.37157H20.3948Z" fill="black" stroke="#D7FBD0" mask="url(#path-1-inside-1_10476_1688)"/>
</g>
<path id="Vector_2" d="M20.4082 10.9395H20.6327L20.9835 11.0096L21.6852 11.178L22.3307 11.3464L24.59 11.9077L25.4039 12.1042L26.2038 12.3006L27.1019 12.5252L27.3264 12.5953L27.3825 12.6374L27.3966 12.6795V20.8186L27.3545 21.3519L27.2843 21.7589L27.172 22.25L27.0036 22.7552L26.8633 23.092L26.6528 23.513L26.4985 23.7796L26.3581 24.0041L26.2459 24.1725L26.0634 24.4251L25.9091 24.6216L25.7828 24.7759L25.6705 24.9163L25.4881 25.1127L25.3899 25.225L24.9969 25.6179L24.8847 25.7161L24.6742 25.9126H24.6461V25.9407L24.5058 26.0529L24.3795 26.1652L24.0146 26.4459L23.7901 26.6143L23.5936 26.7546L23.4252 26.8809L23.1867 27.0352L22.8639 27.2457L22.5131 27.4562L22.2745 27.5966L21.9518 27.779L21.629 27.9474L21.18 28.1719L20.9274 28.2842L20.6888 28.4105L20.5625 28.4526H20.4222L20.1977 28.3263L19.8468 28.1719L19.4259 27.9614L19.1171 27.793L18.7944 27.6246L18.5558 27.4843L18.1348 27.2317L17.6717 26.923L17.4332 26.7546L17.2367 26.6143L16.8719 26.3336L16.4789 25.9968L16.3105 25.8424L16.1562 25.7161L15.8054 25.3794L15.7071 25.2671L15.5808 25.1408L15.4826 25.0285L15.4405 24.9864L15.3142 24.8321L15.1879 24.6917L14.9072 24.3409L14.7388 24.1024L14.5284 23.7796L14.36 23.4849L14.2477 23.2604L14.1214 22.9938L13.9951 22.671L13.8407 22.1939L13.7425 21.801L13.6723 21.408L13.6302 21.0291L13.6162 20.7625V12.6795L13.6723 12.6094L13.8548 12.5532L17.5033 11.6411L19.1031 11.2482L19.6784 11.1078L20.0994 11.0096L20.324 10.9535L20.4082 10.9395ZM24.4637 15.7247L24.3374 15.7528L24.1129 15.865L23.9585 15.9632L23.748 16.1597L19.4259 20.8607L17.377 18.7137L17.1946 18.5593L16.9982 18.419L16.8298 18.3208L16.6614 18.2647L16.4649 18.2506L16.2684 18.3067L16.1141 18.3909L15.9878 18.5172L15.8615 18.7137L15.8334 18.8119V19.0224L15.8755 19.1768L16.0299 19.4995L16.1842 19.7241L16.3667 19.9767L16.5351 20.2152L16.7175 20.4678L16.8859 20.6924L17.0543 20.9309L17.1806 21.0993L17.377 21.3659L17.5595 21.6185L17.7279 21.8571L17.8963 22.0816L18.2611 22.5868L18.654 23.1201L18.8084 23.3165L18.9628 23.4709L19.1171 23.5691L19.2575 23.6533L19.4259 23.6954L19.5521 23.6814L19.7486 23.5831L19.917 23.4709L20.0573 23.3446L20.2398 23.1201L20.3661 22.9657L20.4643 22.8394L20.6888 22.5587L20.8291 22.3623L20.9975 22.1518L21.18 21.9132L21.3484 21.7027L21.629 21.3379L21.7974 21.1133L21.9939 20.8607L22.1202 20.7064L22.2324 20.552L22.3166 20.4398L22.4289 20.2994L22.6113 20.0609L22.7517 19.8784L22.9341 19.6539L23.0885 19.4434L23.2568 19.2329L23.5375 18.8681L23.7199 18.6435L23.8883 18.419L24.0006 18.2787L24.2251 17.984L24.3374 17.8437L24.4917 17.6472L24.618 17.4928L24.9127 17.1139L25.011 16.9736L25.1232 16.7772L25.1934 16.6088L25.2074 16.5526L25.1934 16.3281L25.1373 16.1737L25.0531 16.0194L24.8987 15.851L24.6742 15.7387L24.5619 15.7247H24.4637Z" fill="black"/>
</g>
</g>
</svg>
