<svg width="40" height="40" viewBox="0 0 40 40" fill="none" xmlns="http://www.w3.org/2000/svg">
<g id="2megpJkNRADEt7vEkbV7fZZclb6 1" clip-path="url(#clip0_10476_1379)">
<g id="Group 116">
<path id="Vector" d="M18.9951 6.5293H20.8786L22.1343 6.78044L23.39 7.28272L24.3318 7.84778L25.0224 8.41285L25.5875 8.91513L26.2781 9.79412L26.7804 10.6731L27.2827 11.866L27.5338 13.0589L27.5966 13.624V14.6286L27.4083 15.8843L26.9688 17.2028L26.4665 18.1445L25.9642 18.8352L25.3991 19.463L24.7713 20.1537L24.3318 20.7815L23.8295 21.6605L23.4528 22.7278L23.2644 23.4813L23.0133 25.6787L22.8877 26.6833L22.7622 26.9344L21.8204 27.1856L21.3181 27.2484H18.8067L17.8021 27.1228L17.1743 26.9344L17.0487 26.6205L16.7348 23.7952L16.4209 22.4767L16.0442 21.5349L15.4791 20.5304L14.7885 19.7142L14.2862 19.2119L13.6583 18.3957L13.156 17.5167L12.8421 16.826L12.5282 15.8215L12.3398 14.503V13.7496L12.5282 12.4939L12.8421 11.4265L13.4072 10.2336L13.8467 9.60577L14.349 8.97791L15.1024 8.22449L15.9186 7.65943L16.7976 7.15715L18.0533 6.71765L18.9951 6.5293Z" fill="black"/>
<g id="Vector_2" filter="url(#filter0_f_10476_1379)">
<path d="M18.2884 36.6914H21.1736L23.7232 36.7345L25.8032 36.8637L26.2729 36.9068L27.2122 36.9499L28.4199 37.0791L29.4264 37.2083L30.4999 37.4668L30.7683 37.6391L30.7012 37.8975L30.4999 38.0268L29.4935 38.2852L28.0174 38.5006L26.5413 38.6298L25.6019 38.6729L24.0587 38.759L22.18 38.8021L21.1736 38.8452H18.4226L16.8794 38.8021L13.8601 38.6729L11.713 38.4575L10.975 38.3714L10.3711 38.2421L9.63305 38.0698L9.23047 37.8544L9.29756 37.6391L9.76724 37.3806L10.3711 37.2514L10.9079 37.1652L11.7801 37.036L12.5853 36.9929L12.7866 36.9499L13.5246 36.9068L14.3969 36.8206L16.5439 36.7345L18.2884 36.6914Z" fill="black"/>
</g>
<path id="Vector_3" d="M22.8601 11.8457L23.1725 11.8978L23.6931 12.3663L23.9014 12.6267L23.9534 12.9911L23.589 13.4076L19.8924 17.1042L19.7362 17.2083L19.3718 17.1563L18.5387 16.3753L17.0809 14.9175L16.7686 14.501L16.8206 14.1365L17.2892 13.6159L17.7057 13.3556L18.0702 13.5118L19.1635 14.6051L19.4759 14.8134H19.7362L20.2048 14.4489L22.7039 11.9498L22.8601 11.8457Z" fill="white"/>
<path id="Vector_4" d="M17.5507 30.0732H22.4479L22.5735 30.2616V30.6383L22.4479 30.8267L22.2595 30.8894H17.739L17.4251 30.7011L17.3623 30.6383L17.4251 30.136L17.5507 30.0732Z" fill="black"/>
<path id="Vector_5" d="M17.739 27.6885H22.1968L22.5107 27.814L22.5735 27.8768L22.5107 28.4419L22.3851 28.5047H17.6134L17.3623 28.2535L17.4251 27.814L17.739 27.6885Z" fill="black"/>
<path id="Vector_6" d="M17.739 28.8799H22.3223L22.5735 29.0682L22.5107 29.6333L22.3851 29.6961H17.6134L17.3623 29.4449L17.4251 29.0055L17.739 28.8799Z" fill="black"/>
<path id="Vector_7" d="M17.9277 31.4551H22.0088L21.8832 31.769L21.1926 32.2713L20.9414 32.3969L20.5019 32.4596H19.6229L18.9951 32.3969L18.3672 32.0201L17.9277 31.5806V31.4551Z" fill="black"/>
<path id="Vector_8" d="M19.937 0L20.2509 0.12557L20.3137 0.25114V3.01368L20.1881 3.20204L19.8114 3.26482L19.623 3.13925V0.37671L19.7486 0.0627851L19.937 0Z" fill="black"/>
<path id="Vector_9" d="M30.1692 3.51465L30.4203 3.57743L30.4831 3.95414L29.353 5.20985L28.5995 5.90048L28.4112 6.02605L28.16 5.96327L27.9717 5.77491L28.0972 5.46099L28.5367 4.95871L29.7297 3.76579L30.1692 3.51465Z" fill="black"/>
<path id="Vector_10" d="M28.2264 22.0371L28.4776 22.0999L28.9799 22.5394L29.2938 22.7905L30.0472 23.544L30.4867 24.109L30.4239 24.4857L30.11 24.5485L29.4194 23.9834L28.4776 23.0417V22.9161H28.352L28.0381 22.4766L28.1009 22.1627H28.2264V22.0371Z" fill="black"/>
<path id="Vector_11" d="M9.70203 3.51465L10.2043 3.76579L11.7111 5.27263L11.9623 5.64934L11.8995 5.96327L11.6484 6.08884L11.1461 5.71213L10.581 5.14706L10.2043 4.83313L9.76481 4.33085L9.51367 4.07971V3.64022L9.70203 3.51465Z" fill="black"/>
<path id="Vector_12" d="M11.5856 22.0986L11.8995 22.1614L11.9623 22.4753L11.7111 22.8521L10.1415 24.4217L9.8276 24.61L9.57646 24.4845L9.51367 24.4217V24.1078L10.0787 23.4799L11.2717 22.287L11.5856 22.0986Z" fill="black"/>
<path id="Vector_13" d="M6.25114 13.748H8.9509L9.13925 13.8108L9.20204 14.1248L9.07647 14.3759H6.06279L6 14.2503V13.8108L6.25114 13.748Z" fill="black"/>
<path id="Vector_14" d="M30.8616 13.748H33.9381L34.0009 13.8108L33.9381 14.2503L33.6242 14.3759H30.9872L30.7988 14.1875V13.8108L30.8616 13.748Z" fill="black"/>
</g>
</g>
<defs>
<filter id="filter0_f_10476_1379" x="8.47705" y="35.938" width="23.0449" height="3.66016" filterUnits="userSpaceOnUse" color-interpolation-filters="sRGB">
<feFlood flood-opacity="0" result="BackgroundImageFix"/>
<feBlend mode="normal" in="SourceGraphic" in2="BackgroundImageFix" result="shape"/>
<feGaussianBlur stdDeviation="0.37671" result="effect1_foregroundBlur_10476_1379"/>
</filter>
<clipPath id="clip0_10476_1379">
<rect width="40" height="40" fill="white"/>
</clipPath>
</defs>
</svg>
