<svg width="40" height="40" viewBox="0 0 40 40" fill="none" xmlns="http://www.w3.org/2000/svg">
<g id="2mehuvPmHZipYI28w8BIiiiEMfz 1">
<g id="Group 118">
<path id="Vector" d="M19.6803 6H19.8855L20.0907 6.06314L20.3432 6.20519L20.5958 6.3946L20.8483 6.5998L21.0535 6.75764L21.3218 6.97862L21.5902 7.18381L21.8269 7.35744L22.1742 7.54685L22.4267 7.65734L22.7582 7.73626L22.8687 7.75204H23.3106L23.8789 7.68891L24.5892 7.57842L25.0943 7.51528L25.2995 7.4995H25.5678L25.6625 7.53106L25.7888 7.64155L25.8993 7.76783L26.0413 8.02037L26.2307 8.44655L26.4675 9.06213L26.72 9.67771L26.9094 10.025L27.0988 10.2775L27.2409 10.4354L27.4461 10.5932L27.6671 10.7353L27.9985 10.9089L28.5036 11.1141L29.0719 11.3351L29.4823 11.5087L29.719 11.6349L29.9242 11.7928L30.0347 11.9191L30.0978 12.0453L30.1136 12.1085V12.3768L30.0663 12.7872L29.9558 13.4343L29.8769 13.9552L29.8453 14.3972V14.555L29.8769 14.8865L29.9558 15.2022L30.0663 15.4547L30.1925 15.6915L30.3504 15.9282L30.4767 16.1019L30.6345 16.3071L30.8397 16.5596L31.0607 16.8279L31.2343 17.0489L31.4237 17.3173L31.5342 17.5067L31.6131 17.6961L31.6289 17.7434V17.8697L31.5026 18.1222L31.329 18.4064L31.2027 18.5642L31.0133 18.8167L30.8555 19.0219L30.6345 19.2903L30.5556 19.4008H30.524L30.4924 19.4639L30.3346 19.6691L30.1925 19.8901L30.0031 20.2689L29.9242 20.4899L29.8611 20.7898L29.8453 20.9318V21.2475L29.8926 21.7368L30.0189 22.5102L30.0978 22.9838L30.1136 23.2205V23.4573L30.0505 23.6309L29.9558 23.7572L29.8769 23.8361L29.7506 23.9308L29.498 24.0571L29.1824 24.1834L28.6931 24.3728L28.109 24.6095L27.746 24.7832L27.5724 24.8937L27.383 25.0357L27.304 25.1146H27.2725V25.1462L27.162 25.2409L27.0357 25.3987L26.9094 25.5724L26.7516 25.8565L26.6411 26.109L26.4201 26.6773L26.1834 27.2613L26.0097 27.6401L25.915 27.7979L25.773 27.9716L25.6783 28.0347L25.4731 28.0821H25.1574L24.6049 28.0031L23.9262 27.8926L23.3896 27.8295H22.774L22.553 27.8769L22.2689 27.9716L21.969 28.1294L21.6375 28.3504L21.385 28.5556L21.2587 28.6503L21.0062 28.8555L20.801 29.0291L20.5958 29.1869L20.3748 29.3448L20.2327 29.4395L19.9328 29.5658L19.8539 29.5973H19.7119L19.6487 29.55L19.4751 29.4868L19.191 29.3132L19.0016 29.1554L18.7806 28.9818L18.607 28.8239L18.386 28.6503L18.1492 28.4609L17.8809 28.2715L17.5968 28.0978L17.2969 27.9558L17.0285 27.8769L16.7129 27.8295H16.1604L15.7342 27.8769L14.945 28.0031L14.4399 28.0821H14.14L13.998 28.0505L13.8717 27.9874L13.7454 27.8453L13.5876 27.5927L13.4771 27.356L13.2877 26.8825L13.0667 26.2984L12.9089 25.9196L12.7195 25.5566L12.5774 25.3514L12.4354 25.1778L12.2617 25.0357L12.0565 24.8937L11.804 24.7516L11.4409 24.578L10.8569 24.357L10.2887 24.136L9.97302 23.994L9.7994 23.8835L9.72047 23.8203L9.57842 23.6467L9.51528 23.5046L9.4995 23.4257V23.2837L9.5942 22.5418L9.70469 21.8947L9.76783 21.3422V20.916L9.70469 20.553L9.64155 20.3162L9.53106 20.0637L9.35744 19.748L9.13646 19.4481L8.96283 19.2429L8.83656 19.0851L8.66294 18.8641L8.45774 18.6116L8.25255 18.3274L8.09471 18.0591L8 17.8697V17.7276L8.12627 17.4435L8.26833 17.2068L8.41039 17.0331L8.58401 16.8122L8.72607 16.6385L8.8997 16.4176L9.12068 16.1334L9.31009 15.8967L9.45214 15.6757L9.64155 15.2811L9.70469 15.0443L9.75204 14.776L9.76783 14.6024V14.2551L9.70469 13.7658L9.56263 12.8188L9.51528 12.4399L9.4995 12.1558L9.54685 11.998L9.64155 11.8244L9.72047 11.7454L9.87832 11.6349L10.2414 11.4613L10.6675 11.2877L11.2831 11.0509L11.6461 10.8931L12.0092 10.7037L12.2775 10.5143L12.4354 10.3722L12.5458 10.2617L12.7037 10.0407L12.8615 9.77242L12.9878 9.50409L13.1614 9.06213L13.3351 8.60439L13.4771 8.25714L13.6034 7.97302L13.7454 7.75204L13.8875 7.5942L13.998 7.51528L14.0927 7.4995L14.5346 7.53106L15.2134 7.60999L16.0499 7.72047L16.3972 7.75204H16.6971L16.9812 7.70469L17.2337 7.62577L17.5021 7.51528L17.7704 7.37322L18.0861 7.15224L18.2755 6.9944L18.4807 6.83656L18.7332 6.63137L18.9384 6.47353L19.191 6.26833L19.4277 6.11049L19.5856 6.03157L19.6803 6ZM19.3015 9.3936L18.7648 9.44095L18.3071 9.50409L17.8493 9.59879L17.4547 9.70928L16.997 9.85134L16.555 10.025L16.1762 10.1986L15.8763 10.3564L15.7185 10.4354L15.4817 10.5774L15.1502 10.7826L14.9293 10.9404L14.7241 11.0983L14.4715 11.3035L14.3295 11.414V11.4455L14.2663 11.4771L14.0138 11.7139L13.6349 12.0927V12.1243L13.5876 12.14L13.4771 12.2663L13.3351 12.4242L13.1456 12.6767L12.9404 12.9608L12.7195 13.2765L12.609 13.4659L12.4196 13.7974L12.1986 14.2236L11.9934 14.6971L11.7724 15.3284L11.6777 15.6599L11.5357 16.3228L11.4725 16.7175L11.4252 17.2383L11.4094 17.5698V18.0907L11.4409 18.58L11.5041 19.1166L11.6146 19.6691L11.7882 20.3162L11.8987 20.6319L12.0565 21.0423L12.2617 21.4843L12.4669 21.8789L12.6563 22.1946L12.8457 22.4945L12.972 22.6681L13.1299 22.8733L13.3035 23.0943L13.4771 23.2837L13.6192 23.4573L13.8559 23.7098L14.0611 23.915L14.1874 24.0255L14.3452 24.1676L14.5189 24.3096L14.803 24.5306L14.9766 24.6569L15.1976 24.8147L15.6395 25.0831L16.0657 25.304L16.3183 25.4303L16.6024 25.5566L16.7918 25.6355L17.1233 25.7618L17.5968 25.9038L18.1966 26.0459L18.8279 26.1406L19.2225 26.1722L19.554 26.188H20.0907L20.6116 26.1564L21.1324 26.0933L21.5586 26.0143L22.2215 25.8407L22.6004 25.7144L22.9318 25.5882L23.358 25.3987L23.6895 25.2409L24.0525 25.0357L24.3524 24.8621L24.6523 24.6569L24.968 24.4201L25.1732 24.2623L25.3468 24.1044L25.5204 23.9624L26.0255 23.4573L26.0887 23.3784L26.1676 23.2995L26.4517 22.9522L26.6727 22.6523L26.7832 22.4945L26.941 22.2577L27.0831 22.0209L27.2725 21.6737L27.3987 21.4211L27.5882 21.0107L27.7934 20.4425L27.9196 20.0163L28.0301 19.5428L28.1248 19.0535L28.1722 18.6747L28.2037 18.1854V17.3646L28.1722 16.9069L28.0933 16.3544L27.9985 15.8967L27.8565 15.36L27.7302 14.9812L27.5408 14.4919L27.3356 14.0499L27.1146 13.6238L26.8463 13.1818L26.6727 12.9293L26.5148 12.7083L26.357 12.5031L26.1834 12.2979L26.0413 12.14L25.9308 12.0138L25.552 11.6349L25.4257 11.5245L25.2679 11.3824L25.0469 11.2088L24.8417 11.0509L24.526 10.83L24.1788 10.609L23.7684 10.3722L23.5001 10.2302L23.0423 10.025L22.3162 9.75663L21.8743 9.63036L21.3692 9.51987L20.8957 9.44095L20.5958 9.40938L20.3432 9.3936H19.3015Z" fill="black"/>
<path id="Vector_2" d="M19.6163 10.7197H20.0424L20.5318 10.7513L21.0211 10.8144L21.5104 10.9091L21.905 11.0196L22.2207 11.1301L22.5521 11.2564L22.931 11.43L23.2308 11.5879L23.6255 11.8246L23.9254 12.0298L24.2568 12.2824L24.4304 12.4244L24.6672 12.6454L24.8566 12.819L25.046 13.0242L25.1881 13.1821L25.3301 13.3557L25.488 13.5609L25.8352 14.0818L26.072 14.4921L26.2614 14.871L26.435 15.2971L26.5771 15.6917L26.7349 16.3231L26.8139 16.7335L26.877 17.2702L26.8928 17.7279L26.877 18.2646L26.8296 18.7539L26.7507 19.2274L26.6244 19.7325L26.435 20.3007L26.293 20.648L26.1036 21.0426L25.8668 21.4687L25.6143 21.8476L25.488 22.0212L25.3301 22.2264L25.1565 22.4316L25.0145 22.6052L24.6672 22.9525L24.5409 23.0629L24.3989 23.1892L24.2726 23.2997L24.1463 23.3944L23.9411 23.5365L23.6886 23.7101L23.3887 23.8995L22.9783 24.1205L22.489 24.3415L22.047 24.4993L21.6682 24.6098L21.1947 24.7203L20.6265 24.815L20.1687 24.8623H19.4426L18.9218 24.815L18.5114 24.7519L18.2115 24.6887L17.5959 24.5151L17.0908 24.3257L16.712 24.1521L16.4594 24.0258L16.1753 23.8679L15.7492 23.5838L15.5124 23.4102L15.2598 23.205L15.0231 22.9998L14.9126 22.8893L14.7863 22.7788V22.7473L14.739 22.7315L14.6285 22.6052L14.4706 22.4316L14.297 22.2106L14.1076 21.9738L13.9182 21.7055L13.7446 21.4372L13.5394 21.0741L13.3657 20.7269L13.2079 20.3481L13.0343 19.8588L12.8922 19.3063L12.8133 18.8801L12.7659 18.5171L12.7344 17.9489V17.5069L12.7659 17.0176L12.8606 16.4178L12.9711 15.9443L13.129 15.4392L13.3026 14.9972L13.5552 14.4764L13.7761 14.0975L13.9182 13.8766L14.0602 13.6714L14.1865 13.5135L14.3286 13.3241L14.5022 13.1189L14.6127 12.9926L14.8021 12.7875L15.0231 12.5665L15.1178 12.4876H15.1494V12.456L15.323 12.3139L15.544 12.1403L15.7334 11.9982L15.9386 11.8562L16.2385 11.6668L16.5699 11.4774L16.9961 11.2722L17.4538 11.0985L17.9116 10.9565L18.322 10.8618L18.685 10.7986L19.0796 10.7513L19.6163 10.7197ZM19.7583 13.0558L19.6636 13.1189L19.5531 13.2452L19.4584 13.4188L19.3164 13.6872L19.1743 14.0028L19.0638 14.2238L18.8902 14.6026L18.7481 14.9025L18.543 15.3445L18.3693 15.7075L18.3062 15.7549L17.8958 15.818L17.0119 15.9601L16.0017 16.1179L15.6702 16.1968L15.5124 16.2758L15.4493 16.3389L15.4335 16.4809L15.4808 16.623L15.6387 16.8282L15.8596 17.065L16.2385 17.4438L16.2542 17.4754H16.2858L16.3174 17.5385L16.712 17.9331L16.8225 18.0594L17.2013 18.4382L17.3434 18.6118L17.4381 18.7381L17.3907 18.8801L17.3118 19.1327L17.1539 19.8903L17.0119 20.5059L16.854 21.2004L16.8067 21.4845L16.8225 21.6266L16.8698 21.7055L16.9961 21.7844L17.075 21.816H17.1697L17.4381 21.6897L17.6748 21.5792L18.2746 21.2793L18.4956 21.1531L19.0954 20.8532L19.49 20.648L19.6794 20.5375L19.7425 20.5059L19.853 20.5217L20.1372 20.648L20.6107 20.8847L20.9106 21.0426L21.8261 21.5161L22.0944 21.6582L22.4101 21.8002L22.489 21.8318L22.5995 21.816L22.7415 21.7213L22.8047 21.6108V21.374L22.6942 20.8374L22.3469 19.3221L22.2522 18.9275L22.1891 18.7697V18.6592H22.2207V18.6276L22.2838 18.596L22.4416 18.4382L22.5521 18.3119L22.9152 17.9489L23.0257 17.8226L23.1361 17.7279L23.2466 17.6016L23.4203 17.428L23.515 17.3175L23.5781 17.2702V17.2386H23.6097L23.7202 17.1123L24.0043 16.8282L24.1305 16.6546L24.1463 16.6072V16.4967V16.4652V16.3547L24.1148 16.3073H24.0832L24.0516 16.2284L23.9096 16.1811L23.5623 16.1179L22.8836 16.0074L21.7156 15.8338L21.4157 15.8022L21.2894 15.7075L21.1947 15.5655L21.0684 15.2971L20.9264 14.9815L20.658 14.429L20.4686 14.0186L20.2634 13.5924L20.1529 13.3715L20.0109 13.1505L19.9162 13.0716H19.8688V13.1031H19.8215L19.8373 13.0558H19.7583Z" fill="black"/>
<path id="Vector_3" d="M11.7722 26.6934L11.8354 26.7249L11.9301 26.9143L12.0564 27.3405L12.23 27.7825L12.4036 28.1613L12.5614 28.4454L12.7666 28.7295L12.9403 28.9189L13.1455 29.0768L13.4138 29.2188L13.6821 29.3135L13.9031 29.3609L14.203 29.3925H14.5503L14.9764 29.3451L15.9235 29.1873L16.3497 29.1399H16.5391L16.7916 29.1873L16.9968 29.2662L17.3756 29.5187L17.5019 29.6292L17.5335 29.6924V29.8975L17.3598 30.45L17.0915 31.3023L16.8863 31.9495L16.7443 32.3914L16.4917 33.1964L16.2392 33.9856L16.0971 34.3645L16.0024 34.5381L15.9077 34.6012L15.7972 34.617L14.9291 34.6328H10.257L9.7203 34.617L9.48354 34.5854L9.40462 34.5381L9.37305 34.475V34.3329L9.4204 34.0804L9.60981 33.449L9.815 32.8018L10.0833 31.9495L10.3674 31.034L10.5253 30.5447L10.7936 29.6924L11.0462 28.9031L11.3776 27.8614L11.5039 27.4668L11.646 26.9775L11.7407 26.7407L11.7722 26.6934Z" fill="black"/>
<path id="Vector_4" d="M27.7624 26.6934L27.8255 26.7091L27.9044 26.8354L28.0149 27.1353L28.2675 27.9087L28.4569 28.5243L28.5674 28.8558L28.7726 29.5029L29.0725 30.45L29.2777 31.1129L29.4355 31.6022L29.6565 32.2967L29.8301 32.8492L30.0353 33.4963L30.1774 33.9699L30.2405 34.2698L30.2563 34.3803V34.5065L30.1774 34.5539L30.0669 34.5854L29.9248 34.6012L29.5302 34.617L28.4411 34.6328H23.7532L23.6743 34.6012L23.5796 34.4592L23.4533 34.1593L23.3428 33.8594L23.185 33.3701L23.0745 33.0228L22.9009 32.4704L22.6957 31.8074L22.5694 31.4286L22.4115 30.9077L22.2695 30.45L22.1432 30.0554L22.0801 29.8344V29.7239L22.1432 29.6134L22.2537 29.5029L22.601 29.282L22.7746 29.203L22.9798 29.1399H23.2955L23.769 29.203L24.574 29.3293L25.1106 29.3925H25.4895L25.7736 29.3609L26.0735 29.282L26.3576 29.1557L26.5786 28.9978L26.7522 28.8558L26.8943 28.6979L27.0679 28.4454L27.1626 28.2876L27.2889 28.035L27.3678 27.8614L27.573 27.3247L27.6361 27.1037L27.6519 26.9617L27.6677 26.9301L27.6835 26.7881L27.7308 26.7723V26.7091L27.7624 26.6934Z" fill="black"/>
</g>
</g>
</svg>
