<svg width="60" height="60" viewBox="0 0 60 60" fill="none" xmlns="http://www.w3.org/2000/svg">
<circle cx="30" cy="30" r="30" fill="#D7FBD0"/>
<circle cx="30.5" cy="30.5" r="22.5" fill="#049D82"/>
<path d="M29.4613 38.2731C28.2932 38.2731 27.3071 38.0759 26.5031 37.6814C25.7143 37.2718 25.0619 36.7864 24.5461 36.2251L25.7977 34.5412C26.2376 34.9811 26.7383 35.3604 27.2996 35.6789C27.8609 35.9823 28.5056 36.134 29.2338 36.134C30.0226 36.134 30.6598 35.9444 31.1452 35.5652C31.6459 35.1707 31.8962 34.6322 31.8962 33.9495C31.8962 33.4489 31.7672 33.0165 31.5093 32.6524C31.2666 32.2732 30.8343 31.9849 30.2123 31.7877C29.6055 31.5905 28.7483 31.4919 27.6409 31.4919V29.5804C29.0669 29.5804 30.053 29.3605 30.5991 28.9205C31.1452 28.4806 31.4183 27.9269 31.4183 27.2594C31.4183 26.6526 31.2287 26.1823 30.8494 25.8485C30.4702 25.4996 29.9468 25.3252 29.2793 25.3252C28.718 25.3252 28.2022 25.4541 27.7319 25.712C27.2616 25.9547 26.8065 26.2809 26.3666 26.6905L25.024 25.0748C25.646 24.5287 26.3059 24.0888 27.0037 23.755C27.7167 23.4213 28.5056 23.2544 29.3703 23.2544C30.766 23.2544 31.8962 23.5881 32.7609 24.2556C33.6256 24.908 34.058 25.8485 34.058 27.0773C34.058 27.8814 33.8304 28.564 33.3753 29.1253C32.9353 29.6715 32.3209 30.0962 31.5321 30.3996V30.4907C32.3816 30.7182 33.0946 31.1354 33.6711 31.7422C34.2476 32.349 34.5358 33.1303 34.5358 34.086C34.5358 34.9659 34.3007 35.7169 33.8304 36.3388C33.3753 36.9608 32.7609 37.4387 31.9872 37.7724C31.2287 38.1062 30.3867 38.2731 29.4613 38.2731Z" fill="white"/>
</svg>
