<svg width="60" height="60" viewBox="0 0 60 60" fill="none" xmlns="http://www.w3.org/2000/svg">
<circle cx="30" cy="30" r="30" fill="#D7FBD0"/>
<circle cx="30.5" cy="30.5" r="22.5" fill="#049D82"/>
<path d="M30.0985 30.9458C29.6889 30.9458 29.2565 31.0747 28.8014 31.3326C28.3463 31.5753 27.914 32.0001 27.5044 32.6069C27.6409 33.8964 27.9519 34.8294 28.4373 35.4059C28.9228 35.9823 29.5144 36.2706 30.2123 36.2706C30.8191 36.2706 31.3273 36.0354 31.7369 35.5652C32.1617 35.0797 32.374 34.397 32.374 33.5172C32.374 32.6676 32.1692 32.0305 31.7596 31.6057C31.3652 31.1657 30.8115 30.9458 30.0985 30.9458ZM30.2578 38.2731C29.3172 38.2731 28.4449 38.0228 27.6409 37.5221C26.8369 37.0215 26.1921 36.2478 25.7067 35.2011C25.2364 34.1543 25.0012 32.8193 25.0012 31.1961C25.0012 29.315 25.2667 27.7979 25.7977 26.645C26.3438 25.4769 27.0492 24.6197 27.914 24.0736C28.7787 23.5275 29.7041 23.2544 30.6901 23.2544C31.57 23.2544 32.3285 23.4137 32.9657 23.7323C33.6028 24.0508 34.1338 24.4377 34.5586 24.8928L33.1477 26.4857C32.8898 26.1671 32.5485 25.9092 32.1237 25.712C31.7141 25.4996 31.2894 25.3934 30.8494 25.3934C30.2426 25.3934 29.6889 25.5603 29.1883 25.894C28.6876 26.2278 28.278 26.7891 27.9595 27.578C27.6561 28.3516 27.4816 29.406 27.4361 30.741C27.8609 30.21 28.3615 29.7928 28.938 29.4894C29.5144 29.186 30.0606 29.0343 30.5764 29.0343C31.8355 29.0343 32.8519 29.406 33.6256 30.1493C34.4145 30.8775 34.8089 32.0001 34.8089 33.5172C34.8089 34.4729 34.5965 35.3073 34.1717 36.0203C33.7621 36.7333 33.216 37.287 32.5333 37.6814C31.8507 38.0759 31.0921 38.2731 30.2578 38.2731Z" fill="white"/>
</svg>
