<svg width="60" height="60" viewBox="0 0 60 60" fill="none" xmlns="http://www.w3.org/2000/svg">
<circle cx="30" cy="30" r="30" fill="#D7FBD0"/>
<circle cx="30.5" cy="30.5" r="22.5" fill="#049D82"/>
<path d="M24.8647 38V36.4754C26.2149 35.1707 27.3754 34.0102 28.3463 32.9938C29.3324 31.9622 30.0909 31.0292 30.6219 30.1948C31.1528 29.3453 31.4183 28.5564 31.4183 27.8283C31.4183 27.0697 31.2135 26.4629 30.8039 26.0078C30.3943 25.5527 29.8027 25.3252 29.029 25.3252C28.4677 25.3252 27.9519 25.4844 27.4816 25.803C27.0265 26.1216 26.6017 26.5009 26.2073 26.9408L24.7509 25.4844C25.4184 24.7714 26.1087 24.2253 26.8217 23.846C27.5347 23.4516 28.3842 23.2544 29.3703 23.2544C30.766 23.2544 31.8734 23.6564 32.6926 24.4604C33.527 25.2645 33.9442 26.3416 33.9442 27.6917C33.9442 28.5413 33.7015 29.4136 33.216 30.3086C32.7457 31.1885 32.1086 32.0911 31.3045 33.0165C30.5157 33.9419 29.6434 34.9128 28.6876 35.9292C29.0669 35.8989 29.4765 35.8686 29.9164 35.8382C30.3564 35.7927 30.7508 35.77 31.0997 35.77H34.6496V38H24.8647Z" fill="white"/>
</svg>
