<svg width="60" height="60" viewBox="0 0 60 60" fill="none" xmlns="http://www.w3.org/2000/svg">
<circle cx="30" cy="30" r="30" fill="#D7FBD0"/>
<circle cx="30.5" cy="30.5" r="22.5" fill="#049D82"/>
<path d="M29.4841 38.2731C28.316 38.2731 27.3299 38.0759 26.5259 37.6814C25.737 37.2718 25.0771 36.8015 24.5461 36.2706L25.7522 34.5867C26.1921 34.9963 26.6852 35.3604 27.2313 35.6789C27.7774 35.9823 28.4146 36.134 29.1428 36.134C29.9468 36.134 30.6143 35.8913 31.1452 35.4059C31.6762 34.9204 31.9417 34.2377 31.9417 33.3579C31.9417 32.4932 31.699 31.8257 31.2135 31.3554C30.7281 30.8851 30.0833 30.65 29.2793 30.65C28.809 30.65 28.4146 30.7182 28.096 30.8548C27.7774 30.9761 27.3982 31.1809 26.9582 31.4692L25.7067 30.6727L26.139 23.5275H33.8759V25.7348H28.4146L28.1188 29.2391C28.4222 29.0874 28.718 28.9736 29.0062 28.8978C29.3096 28.8068 29.651 28.7612 30.0302 28.7612C30.8646 28.7612 31.6231 28.9205 32.3058 29.2391C32.9884 29.5577 33.5346 30.0507 33.9442 30.7182C34.3689 31.3857 34.5813 32.2428 34.5813 33.2896C34.5813 34.3364 34.3386 35.2314 33.8532 35.9748C33.3829 36.7181 32.7609 37.287 31.9872 37.6814C31.2135 38.0759 30.3791 38.2731 29.4841 38.2731Z" fill="white"/>
</svg>
