<svg width="40" height="40" viewBox="0 0 40 40" fill="none" xmlns="http://www.w3.org/2000/svg">
<g id="2mei1qBNG1BV0xmn8WPv35fFZvn 1">
<path id="Vector" d="M8.29723 7L8.65945 7.01646L9.74611 7.13172L12.6603 7.49393L17.7972 8.13605L18.2583 8.20191H18.3735L18.5052 8.05373L18.604 7.93848L18.7851 7.7903L18.9662 7.65858L19.1638 7.54333L19.4272 7.44454L19.6577 7.39515L19.7894 7.37868H20.0858L20.3822 7.42808L20.6456 7.5104L20.909 7.64212L21.1395 7.80676L21.2219 7.87262V7.90555L21.2877 7.93848L21.4688 8.16898L21.6005 8.38302L21.6993 8.54766L21.7487 8.59706L21.9134 8.64645L23.1317 8.79463L24.7947 9.00867L26.8198 9.25564L30.9524 9.76603L31.6439 9.86482L32.0061 9.94714L32.2037 10.013L32.4342 10.1283L32.6811 10.3258L32.8293 10.5069L32.9775 10.7374L33.0928 11.0009L33.1422 11.1984L33.1586 11.3137V11.6759L33.0928 11.9229L32.961 12.1863L32.8623 12.351L32.7141 12.5485L32.533 12.7296L32.2531 12.8943L31.9896 12.9931L31.8085 13.026H31.1993L30.9688 12.9931L31.0347 13.1248L31.1664 13.5199L31.3805 14.1785L31.611 14.8536L31.9896 15.9896L32.2201 16.6647L32.4836 17.4385L32.6811 18.0312L32.961 18.8544L33.208 19.5789L33.4056 20.1716L33.6196 20.8302L33.8337 21.4558L33.9818 21.851L34.0312 21.9333L35.4307 21.9498L35.6612 21.9827L35.8423 22.0485L35.9247 22.1309L36.007 22.2626L36.0234 22.312V22.7894L35.9411 23.1681L35.7765 23.6621L35.6118 23.9914L35.4472 24.2713L35.2825 24.5018L35.085 24.7323L34.838 24.9792L34.5087 25.2262L34.1465 25.4238L33.8172 25.5719L33.5208 25.6707L33.1586 25.7531L32.6976 25.8189L32.4836 25.8354L32.0226 25.8518H27.0832L26.5893 25.8189L26.2106 25.7531L25.9636 25.6872L25.6343 25.5719L25.2557 25.3908L24.9099 25.1603L24.7453 25.0286L24.5148 24.831L24.3501 24.6664L24.2019 24.4853L24.0044 24.2219L23.8068 23.8761L23.6586 23.5633L23.5269 23.1681L23.4446 22.8388L23.4281 22.7401V22.4108L23.494 22.1967L23.5927 22.065L23.708 21.9827L23.8397 21.9498L25.2721 21.9333L25.3215 21.8839L25.552 21.2418L25.7825 20.5338L26.1118 19.5624L26.3423 18.8874L26.7375 17.7019L27.0009 16.9281L27.182 16.3848L27.4125 15.7097L27.6924 14.8865L27.9064 14.2608L28.104 13.6681L28.3016 13.0919L28.4333 12.6638L26.1283 12.3839L21.9134 11.857H21.8475L21.831 13.7504V20.7314L21.8475 26L21.8804 26.4775L21.9463 26.8891L22.0451 27.2184L22.1768 27.5642L22.3579 27.9099L22.5555 28.1898L22.7201 28.4038L22.9836 28.6673L23.2141 28.8484L23.4116 28.9966L23.7574 29.1941L24.0373 29.3259L24.4324 29.4576L24.7453 29.5234L25.2063 29.5728L26.721 29.5893L27.0997 29.6222L27.4454 29.7045L27.7418 29.8363L27.9723 29.9844L28.1534 30.1326L28.3345 30.3137L28.4992 30.5442L28.598 30.7089L28.6967 30.9723L28.7626 31.2522L28.7791 31.4168V31.598L28.7297 31.9108L28.6473 32.1577L28.4992 32.4376L28.3674 32.6352L28.1863 32.8493L28.0382 32.981L27.8077 33.1291L27.5607 33.2444L27.3137 33.3103L26.8856 33.3597L26.6057 33.3761L24.4324 33.3926H13.6482L12.9402 33.3761L12.6274 33.3432L12.364 33.2773L12.0511 33.1291L11.8206 32.9645L11.5572 32.7011L11.3761 32.4376L11.2444 32.1742L11.1785 31.9931L11.1127 31.7461L11.0962 31.6309V31.4827L11.1291 31.2028L11.2114 30.89L11.2938 30.7089L11.4255 30.4619L11.5901 30.2479L11.8042 30.0338L12.0347 29.8692L12.2816 29.7375L12.5286 29.6551L12.792 29.6057L13.0225 29.5893L14.7184 29.5728L15.1465 29.5234L15.4428 29.4576L15.7721 29.3423L16.0355 29.2271L16.3484 29.0624L16.5953 28.8978L16.7929 28.7496L16.9411 28.6179H16.974V28.5849H17.0069V28.552H17.0399L17.0728 28.4862L17.2539 28.2886L17.468 27.9758L17.6491 27.6629L17.7972 27.3172L17.8796 27.0702L17.9619 26.6586L17.9948 26.3952L18.0113 26.1647V12.9931L18.0277 11.3796L17.2045 11.2643L15.9532 11.1161L14.3891 10.9185L12.8908 10.7374L11.8206 10.6057L11.6231 10.5728L11.7218 10.8198L12.0841 11.9064L12.3146 12.5815L12.7591 13.9151L12.9896 14.5901L13.3024 15.5121L13.5823 16.3354L13.7799 16.9281L13.9775 17.5043L14.1915 18.1629L14.3397 18.591L14.455 18.9203L14.5702 19.266V19.299L14.7348 19.3154H15.4922L16.0355 19.3319L16.3154 19.3813L16.4801 19.4636L16.5789 19.6118L16.5953 19.6941V20.2045L16.5459 20.4515L16.4472 20.7808L16.299 21.143L16.1179 21.4888L16.0026 21.6699L15.8544 21.8674L15.6569 22.0979L15.3934 22.3614L15.1794 22.526L14.9489 22.6907L14.5702 22.8882L14.2409 23.02L13.8622 23.1187L13.5165 23.1846L13.1872 23.2175L12.8085 23.234H7.58926L7.07886 23.2011L6.61785 23.1023L6.2721 22.987L5.79463 22.7565L5.59706 22.6248L5.39948 22.4766L5.18544 22.2955L4.90555 22.0156L4.69151 21.7357L4.52686 21.4888L4.32929 21.1101L4.21404 20.8466L4.13172 20.5997L4.03293 20.1881L4 19.974L4.01646 19.76L4.09879 19.5624L4.19757 19.4307L4.32929 19.3484L4.39515 19.3319L5.77817 19.3154L5.89342 19.2825L5.94281 19.2002L6.33796 18.0147L6.7825 16.6976L6.99654 16.0719L7.39169 14.8865L7.65512 14.1127L7.86916 13.487L8.06673 12.8943L8.29723 12.2192L8.65945 11.1326L8.87349 10.5234L8.92288 10.3423V10.2435L8.88995 10.227L8.42895 10.1776L8.08319 10.1118L7.8033 10.013L7.62219 9.91422L7.45754 9.7825L7.25997 9.58493L7.09532 9.33796L6.96361 9.0416L6.89775 8.81109L6.88129 8.5312L6.93068 8.21837L7.02947 7.95494L7.14472 7.72444L7.27643 7.54333L7.37522 7.46101L7.45754 7.37868L7.58926 7.26343L7.91855 7.08232L8.11612 7.01646L8.29723 7ZM9.99308 10.3588L9.89429 10.474L9.7955 10.7704L9.565 11.4454L9.16985 12.6309L8.97228 13.1906L8.57713 14.3761L8.34663 15.0511L8.14905 15.6439L7.88562 16.4177L7.68805 17.0104L7.47401 17.669L7.24351 18.344L7.02947 18.9697L6.91422 19.266V19.299L6.99654 19.3154L8.13259 19.3319H13.3518L13.5659 19.3154L13.5494 19.2331L13.0225 17.6525L12.8085 17.0269L12.3475 15.6439L12.117 14.9688L11.7054 13.7504L11.4749 13.0754L11.2773 12.4991L11.0468 11.7912L10.8163 11.1161L10.701 10.7704L10.5693 10.474L10.4047 10.3917L10.3388 10.3752L9.99308 10.3588ZM29.4376 12.7955L29.3882 12.8614L29.273 13.2071L29.0425 13.8822L28.6473 15.0676L28.4662 15.578L28.0711 16.7634L27.8735 17.3397L27.6924 17.883L27.4619 18.5581L27.2479 19.2167L27.0174 19.8917L26.8198 20.4844L26.6222 21.0607L26.4246 21.6534L26.3423 21.9333L26.9186 21.9498H32.8952L32.961 21.9333L32.9446 21.818L32.5494 20.6326L32.3189 19.9246L31.9732 18.9038L31.7756 18.3276L31.578 17.7348L31.1499 16.4671L30.9194 15.792L30.6395 14.9688L29.948 12.8943L29.8657 12.8284L29.6846 12.7955H29.4376Z" fill="black"/>
</g>
</svg>
