<svg width="40" height="40" viewBox="0 0 40 40" fill="none" xmlns="http://www.w3.org/2000/svg">
<g id="2megTBBXZ0q1SXqjFAo5pgr11T7 1">
<path id="Vector" d="M19.6875 4.98047H20.2539L20.9375 5.01953L21.6406 5.09766L22.3047 5.21484L22.8906 5.35156L23.4961 5.52734L24.1406 5.76172L24.6875 5.99609L25.0977 6.19141L25.5273 6.42578L25.8594 6.62109L26.2891 6.89453L26.6406 7.14844L26.9727 7.40234L27.1875 7.57812L27.4609 7.8125L27.6953 8.02734L27.9883 8.30078L28.125 8.4375L28.2617 8.59375L28.5156 8.86719L28.6914 9.08203L28.9453 9.39453L29.1992 9.74609L29.5508 10.2734L29.7266 10.5664L29.9805 11.0156L30.2344 11.5234L30.4883 12.1289L30.6836 12.6562L30.8984 13.3789L31.0547 14.082L31.1523 14.6484L31.2305 15.3516L31.25 15.6641V16.8555L31.2109 17.3633L31.1328 17.9883L31.0352 18.5156L30.8984 19.1016L30.7422 19.6484L30.5273 20.2734L30.2734 20.8789L30.0391 21.3672L29.8438 21.7383L29.5117 22.2852L29.1992 22.7539L29.0234 22.9883L28.7695 23.3203L28.5352 23.5938L28.4375 23.7109L28.457 23.8086L31.0352 26.3867L31.0742 26.4062L31.1328 26.6406L31.7578 26.0156L31.8555 26.0547L37.5 32L37.4805 32.0977L37.3828 32.1953H37.3438L37.3047 32.2734L35.5 34L35.4219 33.9805L35.2461 33.7852L29.5898 28L29.6094 27.9219L30.1367 27.3242L30.1562 27.2852L30.0781 27.2461L29.9805 27.1484V27.1094L29.9023 27.0703L29.6875 26.8555L29.5898 26.7383L29.4727 26.6406L29.1406 26.3086L29.043 26.1914L28.9062 26.0742L28.8086 25.957L28.6719 25.8398L28.5742 25.7227L28.4375 25.6055L28.3398 25.4883L28.2617 25.4297V25.3906L28.1836 25.3516V25.3125L28.1055 25.2734V25.2344L28.0469 25.2148L27.9492 25.0977L27.832 25L27.7148 24.8633L27.6758 24.8438V24.8047L27.5977 24.7656L27.5391 24.6875L27.4414 24.707L27.2266 24.9023L26.9922 25.0781L26.7969 25.2344L26.4453 25.4883L26.1523 25.6836L25.7812 25.918L25.2539 26.2109L24.707 26.4844L24.1602 26.7188L23.5156 26.9531L22.832 27.1484L22.3242 27.2656L21.7969 27.3633L21.2305 27.4414L20.5078 27.5H19.4727L18.8867 27.4609L18.1641 27.3633L17.4609 27.2266L16.7969 27.0508L16.0938 26.8164L15.4688 26.5625L14.9219 26.3086L14.5508 26.1133L14.0234 25.8008L13.5547 25.4883L13.2617 25.2734L13.0078 25.0781L12.793 24.9023L12.5391 24.6875L12.2852 24.4531L11.6406 23.8086L11.5039 23.6523L11.2891 23.3984L11.0352 23.0664L10.8398 22.8125L10.4492 22.2266L10.1953 21.7969L9.96094 21.3672L9.6875 20.8008L9.43359 20.1758L9.19922 19.4727L9.04297 18.9062L8.88672 18.125L8.80859 17.5781L8.75 16.9531L8.73047 16.5625V15.957L8.76953 15.2734L8.84766 14.6094L8.92578 14.1406L9.08203 13.4375L9.29688 12.7148L9.47266 12.2266L9.70703 11.6602L9.94141 11.1719L10.1953 10.6836L10.4297 10.293L10.7422 9.82422L11.0547 9.39453L11.3086 9.08203L11.4844 8.86719L11.5234 8.80859H11.5625L11.6016 8.73047L11.7773 8.55469L11.9141 8.39844L12.3047 8.00781L12.4609 7.87109L12.6953 7.65625L13.2422 7.22656L13.5938 6.97266L14.1016 6.64062L14.5703 6.36719L15.2148 6.03516L15.8008 5.78125L16.5039 5.52734L17.1875 5.33203L17.6953 5.21484L18.2227 5.11719L18.8477 5.03906L19.2969 5L19.6875 4.98047ZM19.7266 6.25L19.0625 6.28906L18.5547 6.34766L17.8125 6.48438L17.207 6.64062L16.5039 6.875L15.9375 7.10938L15.3711 7.38281L14.9414 7.61719L14.4727 7.91016L14.1406 8.14453L13.8867 8.33984L13.6914 8.49609L13.4766 8.67188L13.2422 8.88672L13.0859 9.02344L12.7344 9.375V9.41406H12.6953L12.5586 9.57031L12.3047 9.86328L12.0703 10.1562L11.8164 10.5078L11.5039 10.9766L11.2305 11.4453L11.0156 11.8555L10.8008 12.3242L10.5664 12.9297L10.3711 13.5547L10.2344 14.1016L10.1367 14.6094L10.0586 15.1562L10 15.9961V16.543L10.0391 17.1289L10.0977 17.6562L10.1953 18.2227L10.332 18.8086L10.5078 19.3945L10.6836 19.8828L10.8984 20.3906L11.1133 20.8398L11.3477 21.2695L11.6016 21.6797L11.8555 22.0508L12.0312 22.2852L12.2461 22.5586L12.4805 22.832L12.6562 23.0273L12.8906 23.2812L13.0859 23.4766H13.125V23.5156L13.2812 23.6523L13.4961 23.8477L13.7695 24.0625L13.9844 24.2383L14.3164 24.4727L14.6094 24.668L15 24.9023L15.3516 25.0977L15.8203 25.332L16.3672 25.5664L16.875 25.7422L17.3828 25.8984L17.9688 26.0352L18.5156 26.1328L19.2383 26.2109L19.5117 26.2305H20.5078L21.1914 26.1719L21.8359 26.0742L22.4414 25.9375L22.9492 25.8008L23.6133 25.5664L24.1211 25.3516L24.6094 25.1172L25.0586 24.8633L25.4102 24.6484L25.6445 24.4922L25.918 24.2969L26.25 24.043L26.5234 23.8086L26.7383 23.6328L27.3828 22.9883V22.9492H27.4219L27.5586 22.793L27.7734 22.5391L28.2422 21.9141L28.457 21.582L28.6328 21.2891L28.8281 20.9375L28.9844 20.625L29.1797 20.2148L29.4141 19.6094L29.6094 19.0039L29.7656 18.3789L29.8438 17.9688L29.9219 17.4414L29.9805 16.7773V15.7227L29.9219 15.0586L29.8242 14.4141L29.707 13.8672L29.5508 13.3008L29.375 12.7734L29.1016 12.1094L28.9062 11.6992L28.6719 11.2695L28.4375 10.8789L28.1445 10.4492L27.9102 10.1367L27.6953 9.86328L27.5195 9.66797L27.3828 9.51172L27.1484 9.25781L26.8359 8.94531L26.6797 8.80859L26.4648 8.61328L26.1914 8.39844L25.9375 8.20312L25.6055 7.96875L25.2734 7.75391L24.8047 7.48047L24.3164 7.22656L23.6914 6.95312L23.1445 6.75781L22.6367 6.60156L22.0898 6.46484L21.6797 6.38672L21.0938 6.30859L20.5859 6.26953L20.1562 6.25H19.7266Z" fill="black"/>
<path id="Vector_2" d="M18.0664 16.2305H21.9336L22.4414 16.2695L22.832 16.3477L23.2422 16.4844L23.5547 16.6211L23.9258 16.8359L24.2383 17.0703L24.4531 17.2461V17.2852L24.5312 17.3242L24.7656 17.5781L25.0391 17.9492L25.2344 18.3008L25.3906 18.6328L25.5273 19.082L25.6055 19.4922L25.625 19.707V21.9141L25.4297 22.1094L25.2344 22.2461L24.8242 22.4609L24.3359 22.6367L23.8477 22.7734L23.3984 22.8711L22.7734 22.9688L22.0898 23.0469L21.2695 23.1055L20.7812 23.125H19.1797L18.3203 23.0859L17.3242 22.9883L16.6992 22.8906L16.1523 22.7734L15.6641 22.6367L15.2344 22.4805L14.8633 22.3047L14.6289 22.1484L14.3945 21.9336L14.3555 21.7969V19.9023L14.3945 19.4531L14.4727 19.0625L14.5703 18.75L14.6875 18.457L14.8438 18.1445L15.0391 17.832L15.293 17.5195L15.5078 17.2852L15.7227 17.0898L16.0156 16.875L16.3672 16.6602L16.6992 16.5039L17.168 16.3477L17.5586 16.2695L18.0664 16.2305Z" fill="black"/>
<path id="Vector_3" d="M4.31641 16.2305H7.48047L7.51953 16.2891L7.53906 16.9531L7.59766 17.6562L7.69531 18.3594L7.83203 19.043L7.98828 19.6484L8.16406 20.2148L8.33984 20.7031L8.51562 21.1328L8.69141 21.5234L8.88672 21.9336L9.12109 22.3633L9.27734 22.6367L9.41406 22.8516L9.39453 22.9102L9.00391 22.9688L8.10547 23.0664L7.14844 23.125H5.42969L4.57031 23.0859L3.73047 23.0078L3.06641 22.9102L2.57812 22.8125L2.03125 22.6758L1.52344 22.5L1.11328 22.3047L0.878906 22.1484L0.644531 21.9336L0.605469 21.7969V19.9414L0.644531 19.4531L0.722656 19.0625L0.820312 18.75L0.9375 18.457L1.09375 18.1445L1.28906 17.832L1.54297 17.5195L1.75781 17.2852L1.97266 17.0898L2.26562 16.875L2.61719 16.6602L2.94922 16.5039L3.41797 16.3477L3.80859 16.2695L4.31641 16.2305Z" fill="black"/>
<path id="Vector_4" d="M32.5195 16.2305H35.7031L36.1914 16.2695L36.582 16.3477L36.9922 16.4844L37.3047 16.6211L37.6758 16.8359L37.9883 17.0703L38.2031 17.2461V17.2852L38.2812 17.3242L38.3203 17.4023H38.3594L38.4961 17.5586L38.6914 17.8125L38.8672 18.0859L39.0625 18.457L39.2188 18.8672L39.3359 19.3555L39.375 19.707V21.9141L39.1797 22.1094L38.8867 22.3047L38.5156 22.4805L38.0273 22.6562L37.5 22.793L36.7969 22.9297L36.0547 23.0273L35.3711 23.0859L34.5703 23.125H32.8516L32.0703 23.0859L31.0938 22.9883L30.5859 22.9102L30.6055 22.8125L30.8203 22.4609L31.0547 22.0312L31.2305 21.6992L31.4844 21.1328L31.6797 20.6445L31.8555 20.1367L32.0117 19.6289L32.1875 18.9258L32.3242 18.2031L32.3828 17.793L32.4414 17.168L32.4805 16.3086L32.5195 16.2305Z" fill="black"/>
<path id="Vector_5" d="M19.8438 9.35547H20.1562L20.5273 9.39453L20.9375 9.49219L21.3281 9.64844L21.6211 9.80469L21.875 9.98047L22.0898 10.1562L22.4023 10.4688L22.6172 10.7617L22.8125 11.0938L22.9688 11.4648L23.0664 11.8164L23.125 12.168V12.832L23.0664 13.1836L22.9492 13.5742L22.8125 13.8867L22.6562 14.1797L22.3828 14.5508L22.0703 14.8633L21.7578 15.0977L21.4648 15.2734L21.1719 15.4102L20.8203 15.5273L20.4492 15.6055L20.2734 15.625H19.6875L19.3164 15.5664L19.0234 15.4883L18.6523 15.332L18.3203 15.1562L18.0859 14.9805L17.832 14.7656L17.6367 14.5703L17.3828 14.2383L17.168 13.8672L17.0117 13.4766L16.9141 13.1055L16.8555 12.6758V12.3438L16.8945 11.9922L16.9727 11.6406L17.0898 11.3086L17.2656 10.9375L17.4609 10.6445L17.6367 10.4297L17.832 10.2148L17.9883 10.0781L18.2812 9.86328L18.6133 9.66797L19.0039 9.51172L19.375 9.41406L19.6094 9.375L19.8438 9.35547Z" fill="black"/>
<path id="Vector_6" d="M6.07422 9.35547H6.44531L6.79688 9.39453L7.1875 9.49219L7.57812 9.64844L7.91016 9.82422L8.20312 10.0391L8.39844 10.2148L8.51562 10.3125L8.65234 10.4688L8.80859 10.6836L8.73047 10.8789L8.47656 11.4453L8.28125 11.9531L8.04688 12.6562L7.89062 13.2422L7.75391 13.8477L7.65625 14.4336L7.57812 15.0977L7.55859 15.3125L7.48047 15.3906L7.07031 15.5273L6.69922 15.6055L6.52344 15.625H5.9375L5.54688 15.5664L5.23438 15.4688L4.94141 15.3516L4.57031 15.1562L4.33594 14.9805L4.12109 14.8047L3.86719 14.5508L3.63281 14.2383L3.41797 13.8672L3.30078 13.5938L3.18359 13.2031L3.125 12.8906L3.10547 12.6953V12.3242L3.14453 11.9922L3.24219 11.5625L3.39844 11.1719L3.57422 10.8398L3.76953 10.5664L3.92578 10.3711L4.02344 10.2734L4.25781 10.0586L4.53125 9.86328L4.82422 9.6875L5.13672 9.55078L5.52734 9.43359L5.83984 9.375L6.07422 9.35547Z" fill="black"/>
<path id="Vector_7" d="M33.5938 9.35547H33.9258L34.2969 9.39453L34.6289 9.47266L35.0391 9.62891L35.4102 9.82422L35.7812 10.0977L35.9375 10.2344L36.0742 10.3906L36.25 10.5859L36.4453 10.8789L36.6016 11.1719L36.7578 11.582L36.8555 12.0117L36.875 12.168V12.8125L36.8164 13.1836L36.6992 13.5742L36.5625 13.8867L36.4062 14.1797L36.1914 14.4727L36.0156 14.668L35.8203 14.8633L35.5078 15.0977L35.2148 15.2734L34.8242 15.4492L34.4922 15.5469L34.1992 15.6055L34.0234 15.625H33.4766L33.0664 15.5664L32.6172 15.4297L32.4609 15.3516L32.4414 15.332L32.3633 14.6094L32.2461 13.8672L32.0898 13.1641L31.9141 12.5391L31.7188 11.9531L31.5039 11.4062L31.2109 10.7617L31.1914 10.6641L31.3672 10.4492L31.5039 10.293L31.6602 10.1562L31.8359 10L32.1875 9.76562L32.5 9.60938L32.8711 9.47266L33.2031 9.39453L33.5938 9.35547Z" fill="black"/>
</g>
</svg>
