<svg width="275" height="200" viewBox="0 0 275 200" fill="none" xmlns="http://www.w3.org/2000/svg">
<g clip-path="url(#clip0_8527_474)">
<path opacity="0.25" d="M275.5 87.6686V27.4491H252.945V11.3726H221.738V41.2871H211.749V58.3371H190.668V32.2946H172.579V63.3421H164.043V52.8976H151.948V72.8791H119.916V17.8076L82.681 0.0371094V50.6976H64.751V2.78711H41.97V46.2921H34.985V29.8691H0.5V197.003H275.5V87.6686Z" fill="#C5DBCF"/>
<path d="M218.944 177.842C213.714 172.859 205.904 168.288 206.426 160.005C206.454 159.62 205.959 159.554 205.788 159.813C205.733 159.796 205.667 159.813 205.629 159.862C205.623 159.862 205.618 159.868 205.612 159.879C205.062 160.874 204.666 161.919 204.43 162.986C204.43 162.997 204.43 163.003 204.43 163.003C203.286 167.942 205.139 173.398 208.021 177.446C210.21 180.509 213.01 183.056 215.963 185.366C217.624 186.658 219.357 187.863 221.018 189.155C222.585 190.371 223.916 191.817 225.374 193.132C225.434 193.187 225.495 193.253 225.561 193.308C225.577 193.671 225.588 194.028 225.588 194.391C225.588 194.666 225.995 194.677 226.006 194.413C226.006 194.353 226.012 194.287 226.006 194.226C226.006 194.226 226.012 194.226 226.006 194.215C226.006 194.045 226.017 193.874 226.017 193.704C226.083 193.759 226.144 193.814 226.204 193.863C226.391 194.017 226.683 193.847 226.562 193.605C226.397 193.291 226.21 192.983 226.012 192.692C226.001 192.433 226.006 192.208 225.984 191.955C225.984 191.938 225.979 191.927 225.973 191.916C225.594 186.488 222.937 181.653 218.944 177.847V177.842Z" fill="#7BC996"/>
<path d="M264.748 143.714C258.594 148.592 252.417 153.493 246.967 159.174C242.792 163.536 239.008 168.458 235.741 173.612C235.466 173.821 235.208 174.035 234.938 174.261C234.856 174.327 234.768 174.398 234.685 174.47C234.526 174.591 234.383 174.717 234.229 174.844C234.289 174.569 234.333 174.294 234.383 174.013C234.498 174.052 234.641 174.041 234.74 173.98C234.85 173.914 234.922 173.788 234.856 173.617C234.834 173.546 234.801 173.474 234.779 173.408C234.696 173.172 234.608 172.957 234.515 172.737C234.559 172.05 234.553 171.357 234.504 170.664C234.493 170.345 234.46 170.02 234.41 169.707C234.41 169.685 234.41 169.663 234.399 169.646C233.849 165.12 231.611 160.72 229.356 156.743C224.785 148.724 220.677 140.282 220.077 130.915C220.061 130.591 219.764 130.382 219.494 130.431H219.489C219.434 130.442 219.379 130.464 219.329 130.503C219.28 130.536 219.236 130.58 219.197 130.64C215.331 136.597 214.291 144.203 216.81 150.891C218.312 154.868 220.902 158.327 223.812 161.38C227.315 165.059 231.682 168.167 233.783 172.908C233.91 173.199 234.02 173.485 234.135 173.777C234.146 173.799 234.163 173.821 234.174 173.837C234.135 174.233 234.075 174.64 234.003 175.036L233.635 175.344C233.393 175.553 233.574 175.872 233.822 175.916C233.69 176.466 233.525 177.022 233.327 177.577C233.31 177.605 233.365 177.616 233.371 177.588C233.371 177.572 233.376 177.561 233.387 177.55C233.409 177.588 233.464 177.599 233.497 177.561C233.679 177.319 233.855 177.082 234.042 176.851C234.047 176.851 234.042 176.84 234.053 176.84V176.813C234.531 176.186 234.999 175.542 235.461 174.91C235.582 174.75 235.703 174.591 235.824 174.42C236.577 173.815 237.336 173.232 238.112 172.655H238.117C242.798 169.14 247.764 166.005 252.027 161.979C254.513 159.631 256.575 157.018 258.28 154.054C259.903 151.216 261.63 148.669 263.626 146.172V146.161C264.143 145.512 264.677 144.863 265.232 144.22C265.353 144.082 265.353 143.934 265.287 143.813C265.199 143.642 264.963 143.549 264.759 143.719L264.748 143.714ZM234.465 175.658C234.465 175.658 234.465 175.669 234.454 175.669V175.68V175.691C234.454 175.696 234.454 175.702 234.454 175.702C234.454 175.707 234.454 175.713 234.454 175.713C234.113 176.285 233.772 176.857 233.442 177.434C233.651 176.934 233.827 176.433 233.97 175.927C234.014 175.916 234.064 175.894 234.108 175.856C234.245 175.74 234.383 175.619 234.526 175.509C234.559 175.476 234.597 175.438 234.636 175.416C234.575 175.515 234.542 175.597 234.471 175.674L234.465 175.658Z" fill="#7BC996"/>
<path d="M242.908 107.134C242.814 107.249 242.721 107.365 242.633 107.48C239.872 110.923 237.402 114.163 235.884 118.403C234.383 122.594 233.767 127.088 234.152 131.521C234.581 136.388 236.335 141.047 237.391 145.793C238.062 148.796 238.447 151.75 238.48 154.753C238.491 156.007 238.442 157.255 238.326 158.531C239.047 156.392 239.778 154.247 240.493 152.107C240.493 152.107 240.493 152.102 240.493 152.091C242.473 146.09 244.261 140.035 245.168 133.754C246.411 125.113 245.597 116.764 243.381 108.421C243.26 107.92 243.122 107.425 242.979 106.936C242.974 107.007 242.957 107.073 242.897 107.145L242.908 107.134Z" fill="#7BC996"/>
<path d="M263.764 127.368C253.325 135.734 244.954 146.349 239.338 158.493C239.322 158.504 239.305 158.509 239.289 158.526H239.283C238.717 158.872 238.156 159.224 237.589 159.571C237.534 159.609 237.49 159.648 237.457 159.692C237.369 159.807 237.347 159.945 237.369 160.071C237.43 160.363 237.716 160.588 238.029 160.401C238.354 160.209 238.678 160.005 238.997 159.807C244.327 156.524 249.519 152.982 253.105 147.724C257.197 141.745 260.502 135.09 263.89 128.683C263.89 128.672 263.901 128.672 263.901 128.661C264.044 128.386 264.193 128.105 264.336 127.83C264.347 127.808 264.352 127.792 264.358 127.775C264.495 127.423 264.083 127.115 263.764 127.368Z" fill="#7BC996"/>
<path d="M223.894 168.222C219.599 161.253 212.218 156.507 210.826 147.954C210.782 147.679 210.474 147.707 210.353 147.888C210.326 147.921 210.304 147.96 210.293 148.009C210.095 149.197 209.957 150.363 209.908 151.507C209.842 152.591 209.842 153.658 209.919 154.703C210.216 159.207 211.745 163.387 214.852 167.199C219.373 172.732 225.528 176.829 229.097 183.088C229.213 183.682 229.273 184.287 229.229 184.859C229.229 184.859 229.229 184.865 229.229 184.87C229.229 184.87 229.229 184.876 229.229 184.881C229.196 185.393 229.092 185.866 228.866 186.317C228.74 186.581 229.119 186.834 229.262 186.564C229.636 185.893 229.785 185.167 229.801 184.43L229.851 184.529C229.851 184.529 229.878 184.579 229.895 184.601C229.939 184.65 229.994 184.689 230.054 184.7C230.307 184.771 230.637 184.502 230.489 184.188C230.318 183.836 230.142 183.49 229.961 183.16C229.84 182.934 229.713 182.714 229.587 182.5C229.295 181.196 228.778 179.904 228.426 178.743C227.299 175.097 225.913 171.483 223.905 168.222H223.894Z" fill="#7BC996"/>
<path d="M262.108 160.814C262.08 160.814 262.048 160.825 262.015 160.847C255.074 165.39 248.38 170.296 242.022 175.614C237.958 178.997 233.788 182.429 230.274 186.411C230.246 186.438 230.219 186.477 230.191 186.504C230.191 186.504 230.188 186.508 230.181 186.515V186.526C229.647 187.12 229.135 187.731 228.64 188.363C228.585 188.396 228.525 188.424 228.465 188.462C228.162 189.122 227.86 189.766 227.562 190.398C227.926 190.096 228.31 189.815 228.712 189.557C228.756 189.524 228.8 189.496 228.844 189.474C229.185 189.254 229.543 189.045 229.906 188.853L230.247 188.671C230.247 188.671 230.296 188.644 230.323 188.638C232.798 187.368 235.626 186.515 237.969 185.344C241.335 183.672 244.58 181.664 247.319 179.063C252.175 174.47 255.42 168.519 259.93 163.635C259.941 163.624 259.946 163.613 259.957 163.608C260.705 162.799 261.487 162.013 262.323 161.276C262.51 161.1 262.322 160.77 262.108 160.814Z" fill="#7BC996"/>
<path d="M223.603 199.693C224.45 198.191 225.33 196.563 226.226 194.82C226.408 194.473 226.584 194.121 226.765 193.764C227.26 192.785 227.755 191.773 228.256 190.733C228.36 190.513 228.459 190.299 228.564 190.073C228.663 189.881 228.751 189.677 228.85 189.479C228.872 189.424 228.905 189.369 228.927 189.303H228.932C229.015 189.133 229.092 188.962 229.169 188.786C229.504 188.055 229.84 187.307 230.186 186.531C230.186 186.531 230.186 186.52 230.186 186.515C230.186 186.515 230.19 186.511 230.197 186.504C230.219 186.449 230.247 186.388 230.274 186.328C231.528 183.462 232.81 180.289 234.042 176.84C234.047 176.84 234.042 176.829 234.053 176.829V176.802C234.19 176.439 234.322 176.07 234.449 175.691C234.449 175.691 234.454 175.691 234.449 175.68C234.449 175.68 234.454 175.68 234.449 175.669V175.658L234.454 175.647C234.454 175.647 234.458 175.643 234.465 175.636C234.482 175.581 234.504 175.526 234.52 175.476C234.663 175.064 234.806 174.662 234.944 174.239C236.445 169.8 237.848 164.96 239.003 159.79C239.063 159.554 239.113 159.317 239.162 159.075H239.168C239.184 158.976 239.206 158.883 239.228 158.784C239.245 158.69 239.267 158.602 239.289 158.514H239.294C239.74 156.419 240.147 154.279 240.499 152.085C240.499 152.085 240.499 152.079 240.499 152.068C241.511 145.875 242.132 139.297 242.154 132.45C242.154 132.026 241.808 131.68 241.384 131.68C240.961 131.68 240.62 132.026 240.62 132.45C240.62 134.496 240.554 136.525 240.444 138.516C240.444 138.527 240.444 138.533 240.444 138.538C240.13 144.187 239.437 149.61 238.475 154.741C238.161 156.424 237.82 158.069 237.446 159.686C237.424 159.807 237.386 159.939 237.358 160.065C236.528 163.701 235.576 167.166 234.559 170.427L234.493 170.647C234.361 171.065 234.229 171.478 234.097 171.885C233.981 172.226 233.871 172.567 233.767 172.897C232.54 176.604 231.237 180.036 229.939 183.154C229.895 183.264 229.845 183.38 229.796 183.49C229.757 183.578 229.724 183.66 229.686 183.748C229.526 184.128 229.367 184.502 229.207 184.859C229.207 184.859 229.207 184.865 229.207 184.87C229.207 184.87 229.207 184.876 229.207 184.881C228.718 186.02 228.234 187.114 227.755 188.154C227.453 188.808 227.156 189.446 226.853 190.073C226.556 190.695 226.259 191.311 225.962 191.905C225.797 192.246 225.627 192.587 225.462 192.911C225.423 192.983 225.396 193.049 225.357 193.12C224.142 195.529 222.948 197.724 221.826 199.687H223.592L223.603 199.693Z" fill="#22475C"/>
<path d="M254.903 139.253C250.2 146.42 244.596 152.904 238.177 158.586C237.479 159.202 238.436 160.285 239.129 159.669C245.635 153.911 251.339 147.322 256.102 140.056C256.613 139.281 255.409 138.478 254.903 139.259V139.253Z" fill="#22475C"/>
<path d="M251.614 157.651C245.481 163.525 239.349 169.399 233.216 175.273C232.545 175.917 233.497 177 234.168 176.357C240.3 170.483 246.433 164.609 252.565 158.735C253.236 158.091 252.285 157.008 251.614 157.651Z" fill="#22475C"/>
<path d="M250.173 171.621C242.292 176.945 234.762 182.764 227.623 189.05C226.925 189.666 227.882 190.744 228.575 190.134C235.714 183.847 243.238 178.028 251.125 172.704C251.895 172.187 250.932 171.109 250.173 171.621Z" fill="#22475C"/>
<path d="M234.949 174.118C234.493 168.899 231.704 164.449 228.767 160.258C225.231 155.209 222.057 150.369 221.051 144.165C220.902 143.247 219.489 143.549 219.643 144.468C220.539 149.99 223.069 154.632 226.248 159.164C229.515 163.833 233.035 168.552 233.547 174.421C233.629 175.345 235.037 175.037 234.955 174.118H234.949Z" fill="#22475C"/>
<path d="M230.653 184.579C228.981 179.877 226.308 175.686 223.426 171.643C220.214 167.133 216.909 162.689 213.642 158.212C213.092 157.459 212.019 158.421 212.558 159.164C215.699 163.47 218.872 167.755 221.974 172.083C224.922 176.186 227.656 180.438 229.361 185.228C229.669 186.103 230.956 185.443 230.648 184.579H230.653Z" fill="#22475C"/>
<path d="M226.451 193.297C224.306 188.314 220.858 184.48 216.958 180.784C213.059 177.088 209.06 173.343 207.212 168.156C206.899 167.282 205.617 167.942 205.925 168.805C207.658 173.662 211.26 177.358 214.929 180.839C219.059 184.761 222.882 188.633 225.164 193.946C225.533 194.798 226.82 194.149 226.451 193.297Z" fill="#22475C"/>
<path d="M51.2265 184.859C43.1085 183.996 32.9665 185.277 27.7305 177.506C27.4885 177.143 26.999 177.423 27.0265 177.77C26.966 177.792 26.9165 177.852 26.9165 177.924C26.9165 177.929 26.911 177.935 26.9165 177.946C27.109 179.216 27.4775 180.426 27.9945 181.543C27.9945 181.554 28.0055 181.554 28 181.565C30.3705 186.779 35.7935 190.387 41.167 192.031C45.237 193.269 49.4995 193.621 53.7345 193.654C56.116 193.67 58.4975 193.555 60.8735 193.566C63.1175 193.577 65.3065 193.956 67.512 194.127C67.6055 194.138 67.7045 194.149 67.798 194.154C68.062 194.468 68.315 194.781 68.568 195.106C68.755 195.353 69.129 195.084 68.9585 194.836C68.92 194.776 68.876 194.715 68.832 194.666C68.832 194.666 68.832 194.66 68.832 194.655C68.7165 194.495 68.612 194.341 68.491 194.193C68.5845 194.193 68.678 194.204 68.7715 194.204C69.041 194.215 69.1895 193.857 68.9145 193.725C68.5515 193.56 68.172 193.412 67.7925 193.285C67.6 193.06 67.4515 192.856 67.259 192.642C67.248 192.631 67.237 192.625 67.2205 192.614C63.1395 188.011 57.4305 185.514 51.232 184.854L51.2265 184.859Z" fill="#7BC996"/>
<path d="M68.7549 122.742C66.6044 131.35 64.4429 139.996 63.4749 148.834C62.7379 155.616 62.7379 162.634 63.3594 169.498C63.2604 169.877 63.1724 170.246 63.0844 170.631C63.0569 170.746 63.0239 170.873 63.0019 170.988C62.9414 171.203 62.9029 171.423 62.8479 171.643C62.7104 171.351 62.5619 171.076 62.4134 170.796C62.5454 170.752 62.6609 170.642 62.7104 170.515C62.7654 170.378 62.7379 170.218 62.5619 170.108C62.4959 170.059 62.4189 170.02 62.3474 169.971H62.3419C62.1109 169.822 61.8854 169.685 61.6489 169.553C61.2144 168.909 60.7304 168.288 60.2134 167.705C59.9824 167.43 59.7294 167.16 59.4709 166.913C59.4544 166.891 59.4379 166.874 59.4214 166.863C55.8134 163.189 50.7754 160.786 46.0179 158.778C36.3984 154.741 26.9054 150.006 19.9149 142.031C19.6784 141.75 19.2659 141.767 19.0624 141.998C19.0184 142.047 18.9854 142.108 18.9689 142.179C18.9469 142.245 18.9414 142.311 18.9414 142.394C19.5794 150.396 23.8859 157.92 30.7499 162.177C34.8309 164.702 39.5389 166.022 44.2469 166.748C49.9229 167.633 55.9729 167.402 61.1209 170.207C61.4289 170.383 61.7314 170.559 62.0339 170.746C62.0614 170.757 62.0889 170.763 62.1109 170.774C62.3474 171.159 62.5729 171.56 62.7874 171.967L62.6664 172.495C62.5949 172.853 62.9744 173.007 63.2274 172.88C63.4914 173.463 63.7224 174.074 63.9259 174.706C63.9314 174.745 63.9864 174.717 63.9754 174.69C63.9699 174.668 63.9644 174.662 63.9644 174.646C64.0139 174.668 64.0689 174.635 64.0689 174.58C64.0634 174.239 64.0634 173.903 64.0689 173.568C64.0689 173.562 64.0689 173.557 64.0689 173.551L64.0579 173.524C64.0469 172.633 64.0249 171.742 64.0029 170.851C64.0029 170.625 64.0029 170.394 63.9919 170.163C64.2449 169.102 64.5309 168.057 64.8224 167.006C66.5989 160.626 68.8869 154.406 69.9319 147.861C70.5424 144.044 70.5919 140.282 70.0749 136.454C69.5744 132.796 69.3654 129.32 69.4369 125.712V125.701C69.4479 124.766 69.4809 123.815 69.5359 122.858C69.5469 122.654 69.4479 122.517 69.3049 122.451H69.2994C69.1069 122.357 68.8319 122.44 68.7659 122.731L68.7549 122.742ZM63.6179 172.215C63.6179 172.215 63.6179 172.226 63.6179 172.231V172.242L63.6234 172.253C63.6289 172.253 63.6234 172.264 63.6234 172.264C63.6289 172.264 63.6234 172.275 63.6234 172.275C63.7114 173.023 63.8049 173.771 63.9039 174.514C63.7444 173.92 63.5574 173.348 63.3374 172.798C63.3704 172.759 63.3979 172.704 63.4089 172.638C63.4529 172.44 63.4914 172.237 63.5409 172.044C63.5464 171.989 63.5574 171.929 63.5739 171.879C63.5904 172.006 63.6179 172.11 63.6014 172.226L63.6179 172.215Z" fill="#7BC996"/>
<path d="M23.9895 105.015C23.9895 105.186 23.984 105.351 23.9785 105.516C23.874 110.499 23.896 115.102 25.4525 119.948C26.9925 124.738 29.539 129.188 32.9325 132.895C36.6725 136.959 41.4465 139.924 45.665 143.449C48.3325 145.682 50.714 148.058 52.8095 150.726H52.815C53.6895 151.842 54.5035 152.992 55.279 154.213C54.454 151.798 53.629 149.373 52.7985 146.964C52.7985 146.964 52.7966 146.957 52.793 146.942C50.4335 140.204 47.865 133.549 44.356 127.296C39.516 118.694 33.037 111.78 25.304 105.829H25.2985C24.8475 105.466 24.3855 105.12 23.918 104.773C23.962 104.839 23.995 104.911 23.984 105.015H23.9895Z" fill="#7BC996"/>
<path d="M56.6161 108.777C53.0246 123.462 52.8321 138.736 56.1706 153.481C56.1596 153.503 56.1541 153.52 56.1486 153.547C55.8791 154.251 55.6151 154.95 55.3456 155.654C55.3236 155.725 55.3071 155.791 55.3126 155.857C55.3126 156.017 55.3841 156.16 55.4941 156.259H55.4996C55.7526 156.473 56.1596 156.484 56.3136 156.099C56.4731 155.698 56.6216 155.296 56.7701 154.895C59.2781 148.284 61.4946 141.535 61.0876 134.358C60.6311 126.185 59.0141 117.946 57.6391 109.872C57.6391 109.861 57.6391 109.855 57.6391 109.844C57.5786 109.498 57.5181 109.146 57.4576 108.805C57.4576 108.777 57.4466 108.761 57.4411 108.739C57.3201 108.326 56.7371 108.337 56.6271 108.783L56.6161 108.777Z" fill="#7BC996"/>
<path d="M49.0322 172.836C40.3862 169.553 30.5027 170.383 23.3692 163.679C23.1437 163.464 22.8797 163.701 22.9017 163.943C22.9017 163.992 22.9017 164.042 22.9292 164.091C23.5672 165.29 24.2492 166.429 24.9917 167.49C25.6792 168.508 26.4162 169.459 27.2027 170.35C30.5687 174.184 34.8202 176.873 40.2267 178.149C48.0862 179.986 56.4242 179.425 63.9317 182.571C64.4487 183.028 64.9162 183.523 65.2737 184.067C65.2737 184.067 65.2792 184.067 65.2737 184.078C65.2737 184.078 65.2792 184.078 65.2737 184.089C65.5982 184.568 65.8292 185.063 65.9392 185.624C66.0107 185.948 66.5222 185.915 66.4672 185.574C66.3407 184.711 65.9777 183.963 65.4772 183.292L65.5927 183.341C65.5927 183.341 65.6532 183.369 65.6807 183.374C65.7522 183.391 65.8292 183.385 65.8897 183.358C66.1647 183.248 66.2747 182.78 65.9227 182.604C65.5267 182.406 65.1307 182.219 64.7402 182.049C64.4762 181.928 64.2122 181.823 63.9537 181.713C62.7932 180.745 61.4402 179.942 60.3237 179.15C56.7982 176.659 53.0692 174.376 49.0267 172.836H49.0322Z" fill="#7BC996"/>
<path d="M78.1658 139.88C78.1658 139.88 78.1163 139.93 78.1053 139.974C75.0143 148.823 72.3963 157.827 70.3668 166.973C69.0578 172.803 67.6883 178.749 67.2813 184.738C67.2813 184.782 67.2813 184.832 67.2758 184.881C67.2758 184.881 67.2758 184.887 67.2758 184.898V184.909C67.2043 185.811 67.1713 186.713 67.1603 187.615C67.1273 187.681 67.0998 187.747 67.0723 187.824C67.2593 188.621 67.4298 189.408 67.5948 190.183C67.7103 189.661 67.8643 189.144 68.0458 188.638C68.0623 188.583 68.0788 188.522 68.1063 188.473C68.2603 188.038 68.4363 187.609 68.6288 187.186L68.8103 186.79C68.8103 186.79 68.8378 186.729 68.8543 186.707C70.1963 183.864 72.1378 181.152 73.4358 178.49C75.2948 174.673 76.8238 170.642 77.4893 166.423C78.6773 158.965 77.4893 151.397 78.1603 143.912C78.1603 143.895 78.1603 143.879 78.1603 143.868C78.2703 142.63 78.4298 141.387 78.6718 140.15C78.7213 139.864 78.3308 139.693 78.1603 139.886L78.1658 139.88Z" fill="#7BC996"/>
<path d="M43.4061 134.836C43.4061 134.836 43.4171 134.847 43.4226 134.853C47.0306 140.127 50.1436 145.462 52.8166 150.726H52.8221C53.6911 152.447 54.5216 154.158 55.3026 155.863C55.3686 155.989 55.4236 156.127 55.4841 156.264H55.4896C57.2441 160.092 58.7786 163.854 60.1151 167.473L60.2086 167.715C60.3791 168.183 60.5441 168.639 60.7091 169.096C60.8411 169.481 60.9786 169.86 61.1106 170.229C62.5626 174.398 63.7616 178.369 64.7461 182.054C64.7846 182.186 64.8176 182.323 64.8506 182.45C64.8781 182.549 64.9056 182.653 64.9331 182.752C65.0541 183.203 65.1696 183.643 65.2741 184.078C65.2741 184.078 65.2796 184.078 65.2741 184.089C65.2741 184.089 65.2796 184.089 65.2741 184.1C65.6206 185.458 65.9396 186.773 66.2256 188.032C66.4071 188.83 66.5776 189.605 66.7426 190.375C66.9076 191.14 67.0671 191.893 67.2101 192.63C67.2926 193.048 67.3806 193.472 67.4521 193.879C67.4686 193.967 67.4906 194.049 67.5016 194.137C67.8701 196.084 68.1891 197.943 68.4586 199.703H70.2131C69.9876 198.224 69.7291 196.678 69.4376 195.072H69.4321C69.3606 194.638 69.2726 194.203 69.1956 193.758C68.9646 192.542 68.7116 191.288 68.4421 190.012C68.3871 189.743 68.3266 189.479 68.2661 189.209C68.2221 188.967 68.1616 188.725 68.1121 188.483C68.0956 188.417 68.0846 188.351 68.0626 188.274C68.0186 188.06 67.9746 187.856 67.9251 187.647C67.7216 186.762 67.5071 185.86 67.2816 184.93H67.2761C67.2761 184.93 67.2706 184.925 67.2761 184.919C67.2761 184.919 67.2761 184.914 67.2761 184.903C67.2596 184.837 67.2431 184.765 67.2266 184.694C66.3796 181.262 65.3401 177.538 64.0696 173.6C64.0696 173.595 64.0696 173.589 64.0696 173.584L64.0586 173.556C63.9266 173.138 63.7891 172.72 63.6406 172.297C63.6406 172.297 63.6406 172.291 63.6406 172.286C63.6406 172.286 63.6406 172.28 63.6406 172.275V172.264L63.6351 172.253C63.6351 172.253 63.6351 172.247 63.6351 172.236C63.6131 172.176 63.5966 172.11 63.5746 172.055C63.4206 171.587 63.2666 171.125 63.1016 170.652C61.3911 165.647 59.3121 160.34 56.7876 154.911C56.6776 154.658 56.5621 154.411 56.4411 154.158C56.3861 154.053 56.3421 153.954 56.2926 153.85C56.2486 153.756 56.1991 153.663 56.1606 153.569C55.1156 151.38 54.0101 149.18 52.8166 146.975C52.8166 146.975 52.8147 146.967 52.8111 146.953C49.4561 140.705 45.4741 134.385 40.7771 128.236C40.4856 127.857 39.9356 127.785 39.5561 128.077C39.1766 128.368 39.1106 128.913 39.4021 129.292C40.8101 131.129 42.1466 132.988 43.4226 134.853L43.4061 134.836Z" fill="#22475C"/>
<path d="M56.8588 125.531C57.5848 135.189 57.0238 144.858 55.1868 154.373C54.9888 155.407 56.5893 155.715 56.7873 154.686C58.6518 145.045 59.2238 135.216 58.4868 125.426C58.4098 124.381 56.7818 124.491 56.8588 125.536V125.531Z" fill="#22475C"/>
<path d="M66.5827 144.28C65.1362 153.767 63.6842 163.249 62.2377 172.737C62.0782 173.771 63.6787 174.084 63.8382 173.05C65.2847 163.563 66.7367 154.081 68.1832 144.593C68.3427 143.559 66.7422 143.246 66.5827 144.28Z" fill="#22475C"/>
<path d="M74.914 157.783C71.5205 167.98 68.7815 178.38 66.719 188.929C66.5155 189.958 68.116 190.271 68.3195 189.243C70.382 178.694 73.121 168.293 76.5145 158.096C76.8445 157.101 75.244 156.804 74.914 157.783Z" fill="#22475C"/>
<path d="M62.9915 170.504C58.9875 166.143 53.4215 164.08 47.905 162.342C41.261 160.252 35.0845 158.102 29.909 153.24C29.1445 152.519 28.0885 153.762 28.853 154.483C33.462 158.811 38.9235 161.226 44.891 163.101C51.0345 165.032 57.4365 166.841 61.9355 171.742C62.645 172.512 63.6955 171.269 62.9915 170.499V170.504Z" fill="#22475C"/>
<path d="M66.3523 182.83C61.6168 179.766 56.3313 177.858 50.9688 176.213C44.9848 174.387 38.9623 172.677 32.9563 170.922C31.9498 170.625 31.6473 172.231 32.6428 172.523C38.4233 174.217 44.2148 175.872 49.9788 177.61C55.4458 179.26 60.8248 181.18 65.6483 184.298C66.5283 184.865 67.2268 183.391 66.3578 182.83H66.3523Z" fill="#22475C"/>
<path d="M68.5903 193.538C63.2388 190.546 57.5078 189.49 51.4688 188.863C45.4298 188.236 39.2698 187.637 34.0393 184.265C33.1593 183.699 32.4608 185.173 33.3298 185.734C38.2303 188.891 43.9998 189.721 49.6868 190.315C56.0888 190.981 62.1773 191.822 67.8808 195.007C68.7993 195.518 69.5033 194.05 68.5903 193.538Z" fill="#22475C"/>
<path d="M115.759 189.573C117.426 191.272 119.186 192.878 120.858 194.572C122.431 196.167 123.707 197.988 125.142 199.676C125.142 199.676 125.153 199.687 125.153 199.693H126.121C126.061 199.555 125.995 199.418 125.929 199.28C125.956 198.989 125.995 198.736 126.006 198.45C126.006 198.433 126.006 198.422 125.995 198.406C126.385 192.268 124.13 186.46 120.225 181.598C115.11 175.234 107.053 168.942 108.873 159.746C108.961 159.323 108.417 159.169 108.191 159.433C108.136 159.405 108.059 159.411 108.004 159.46C107.999 159.46 107.988 159.46 107.988 159.477C107.223 160.511 106.624 161.622 106.195 162.777C106.195 162.788 106.195 162.793 106.184 162.793C104.16 168.15 105.425 174.541 108.043 179.508C110.034 183.264 112.789 186.537 115.754 189.567L115.759 189.573Z" fill="#7BC996"/>
<path d="M176.638 150.232C169.015 154.775 161.359 159.34 154.407 164.884C149.078 169.141 144.106 174.091 139.673 179.371C139.337 179.569 139.007 179.767 138.677 179.976C138.573 180.036 138.463 180.102 138.364 180.168C138.171 180.278 137.984 180.405 137.792 180.52C137.902 180.218 137.995 179.915 138.089 179.618C138.215 179.684 138.375 179.684 138.496 179.635C138.633 179.574 138.727 179.448 138.683 179.244C138.666 179.162 138.644 179.079 138.628 178.997C138.567 178.722 138.507 178.469 138.43 178.205C138.578 177.44 138.677 176.665 138.727 175.884C138.76 175.526 138.771 175.158 138.765 174.8C138.771 174.773 138.765 174.751 138.765 174.729C138.826 169.581 136.978 164.312 135.047 159.521C131.131 149.852 127.793 139.782 128.519 129.205C128.546 128.842 128.249 128.556 127.941 128.578H127.936C127.875 128.578 127.809 128.595 127.743 128.639C127.683 128.666 127.628 128.71 127.573 128.771C122.353 134.865 120.049 143.225 121.869 151.095C122.958 155.77 125.34 160.038 128.145 163.888C131.522 168.536 135.944 172.666 137.588 178.293C137.682 178.634 137.77 178.975 137.852 179.321C137.863 179.349 137.88 179.376 137.885 179.393C137.781 179.833 137.654 180.273 137.517 180.713L137.055 180.999C136.752 181.197 136.906 181.582 137.176 181.67C136.95 182.264 136.681 182.863 136.373 183.457C136.351 183.49 136.406 183.507 136.422 183.479C136.433 183.463 136.433 183.452 136.444 183.441C136.461 183.49 136.521 183.507 136.565 183.468C136.807 183.221 137.038 182.984 137.286 182.753C137.291 182.753 137.286 182.742 137.297 182.742L137.308 182.715C137.929 182.082 138.551 181.433 139.161 180.79C139.321 180.63 139.48 180.465 139.64 180.295C140.569 179.728 141.515 179.189 142.467 178.656H142.472C148.242 175.422 154.27 172.655 159.649 168.783C162.789 166.523 165.49 163.91 167.838 160.841C170.082 157.904 172.392 155.308 175.005 152.811V152.8C175.681 152.151 176.38 151.502 177.095 150.87C177.249 150.732 177.276 150.567 177.221 150.424C177.144 150.215 176.902 150.078 176.644 150.237L176.638 150.232ZM137.935 181.472C137.935 181.472 137.935 181.483 137.924 181.483V181.494L137.913 181.505C137.913 181.51 137.913 181.516 137.913 181.516C137.913 181.521 137.913 181.527 137.913 181.527C137.445 182.115 136.978 182.709 136.521 183.303C136.829 182.77 137.104 182.236 137.341 181.692C137.396 181.692 137.451 181.67 137.506 181.631C137.676 181.521 137.847 181.411 138.023 181.307C138.067 181.274 138.116 181.241 138.16 181.213C138.078 181.312 138.028 181.406 137.935 181.477V181.472Z" fill="#7BC996"/>
<path d="M157.647 105.99C157.526 106.105 157.406 106.221 157.29 106.336C153.682 109.774 150.437 113.035 148.094 117.556C145.784 122.028 144.425 126.967 144.189 131.988C143.941 137.505 145.206 142.983 145.685 148.461C145.982 151.926 145.976 155.292 145.564 158.658C145.393 160.066 145.151 161.457 144.827 162.865C145.954 160.583 147.098 158.284 148.215 155.996C148.215 155.996 148.219 155.99 148.226 155.979C151.344 149.555 154.254 143.043 156.206 136.141C158.896 126.648 159.226 117.177 157.994 107.497C157.928 106.914 157.851 106.347 157.768 105.77C157.752 105.847 157.724 105.918 157.647 105.99Z" fill="#7BC996"/>
<path d="M177.981 131.779C165.034 139.589 154.067 150.22 145.966 162.986C145.944 162.991 145.922 163.002 145.905 163.013H145.9C145.218 163.316 144.536 163.624 143.843 163.926C143.777 163.959 143.716 163.998 143.672 164.042C143.557 164.157 143.513 164.306 143.518 164.454C143.546 164.79 143.826 165.087 144.206 164.922C144.602 164.751 144.992 164.575 145.383 164.399C151.84 161.517 158.187 158.327 162.994 152.981C168.472 146.893 173.169 139.941 177.926 133.269C177.926 133.258 177.937 133.258 177.943 133.247C178.141 132.961 178.35 132.67 178.553 132.384C178.57 132.362 178.575 132.345 178.586 132.323C178.795 131.949 178.377 131.542 177.981 131.773V131.779Z" fill="#7BC996"/>
<path d="M127.21 171.566C123.442 163.118 115.885 156.7 115.605 146.91C115.599 146.596 115.247 146.58 115.088 146.761C115.055 146.8 115.022 146.833 115 146.888C114.598 148.186 114.274 149.473 114.043 150.749C113.806 151.953 113.647 153.147 113.575 154.335C113.234 159.422 114.318 164.334 117.227 169.069C121.462 175.939 127.743 181.455 130.807 189.001C130.851 189.689 130.829 190.371 130.691 191.003C130.691 191.003 130.691 191.009 130.691 191.014C130.691 191.014 130.691 191.02 130.691 191.025C130.581 191.592 130.389 192.103 130.07 192.576C129.888 192.857 130.273 193.192 130.477 192.912C130.999 192.213 131.274 191.427 131.401 190.602L131.445 190.717C131.456 190.745 131.467 190.778 131.483 190.805C131.522 190.871 131.582 190.921 131.643 190.943C131.918 191.064 132.325 190.805 132.204 190.437C132.066 190.019 131.918 189.606 131.764 189.205C131.665 188.935 131.549 188.671 131.445 188.407C131.313 186.906 130.928 185.377 130.702 184.029C129.987 179.772 128.975 175.521 127.21 171.566Z" fill="#7BC996"/>
<path d="M171.122 168.986C171.089 168.986 171.05 168.986 171.012 169.008C162.558 173.056 154.33 177.55 146.405 182.56C141.35 185.745 136.164 188.962 131.632 192.895C131.593 192.922 131.56 192.961 131.527 192.988C131.527 192.988 131.523 192.992 131.516 192.999V193.01C130.829 193.599 130.163 194.204 129.514 194.836C129.443 194.864 129.377 194.886 129.3 194.924C128.865 195.623 128.431 196.294 127.996 196.959C128.447 196.673 128.92 196.42 129.41 196.189C129.465 196.162 129.514 196.134 129.569 196.112C129.987 195.92 130.416 195.738 130.851 195.573L131.258 195.419C131.285 195.408 131.318 195.397 131.351 195.392C134.316 194.341 137.605 193.808 140.404 192.845C144.425 191.476 148.363 189.716 151.817 187.213C157.944 182.797 162.47 176.615 168.251 171.819C168.262 171.808 168.273 171.797 168.289 171.791C169.246 170.994 170.242 170.235 171.287 169.531C171.523 169.366 171.369 168.964 171.116 168.981L171.122 168.986Z" fill="#7BC996"/>
<path d="M127.221 199.693C127.722 198.956 128.222 198.208 128.723 197.433C128.871 197.202 129.02 196.976 129.168 196.74C129.306 196.536 129.438 196.322 129.575 196.118C129.608 196.058 129.652 196.003 129.691 195.937H129.696C129.812 195.755 129.927 195.579 130.043 195.398C130.527 194.628 131.016 193.841 131.517 193.022V193.005C131.517 193.005 131.521 193.002 131.528 192.994C131.561 192.934 131.599 192.873 131.643 192.813C133.475 189.793 135.389 186.433 137.286 182.753C137.292 182.753 137.286 182.742 137.297 182.742L137.308 182.715C137.512 182.324 137.71 181.934 137.908 181.532C137.908 181.532 137.913 181.532 137.908 181.521C137.908 181.521 137.913 181.521 137.908 181.51V181.499L137.919 181.488C137.919 181.488 137.923 181.485 137.93 181.477C137.957 181.422 137.99 181.362 138.018 181.301C138.243 180.861 138.458 180.427 138.678 179.976C141.021 175.229 143.32 170.015 145.388 164.4C145.487 164.141 145.586 163.888 145.674 163.624H145.679C145.712 163.514 145.751 163.415 145.789 163.305C145.822 163.206 145.855 163.107 145.894 163.014H145.899C146.708 160.737 147.489 158.399 148.215 155.996C148.215 155.996 148.219 155.99 148.226 155.979C150.288 149.198 151.966 141.916 153.016 134.249C153.082 133.77 152.747 133.33 152.268 133.27C151.795 133.209 151.361 133.539 151.295 134.018C150.981 136.311 150.613 138.572 150.189 140.788C150.189 140.799 150.189 140.805 150.189 140.81C148.996 147.086 147.406 153.059 145.558 158.663C144.953 160.5 144.326 162.293 143.672 164.048C143.628 164.18 143.567 164.323 143.518 164.46C142.044 168.409 140.46 172.144 138.832 175.647L138.722 175.884C138.513 176.335 138.304 176.769 138.095 177.209C137.913 177.572 137.743 177.941 137.572 178.293C135.642 182.264 133.673 185.916 131.753 189.21C131.687 189.331 131.616 189.452 131.544 189.562C131.489 189.65 131.44 189.744 131.385 189.832C131.148 190.233 130.917 190.629 130.686 191.003C130.686 191.003 130.686 191.009 130.686 191.014C130.686 191.014 130.686 191.02 130.686 191.025C129.966 192.23 129.262 193.379 128.569 194.474C128.129 195.161 127.705 195.832 127.271 196.492C126.842 197.147 126.424 197.79 126 198.412C125.764 198.769 125.522 199.121 125.285 199.462C125.236 199.534 125.192 199.605 125.137 199.682C125.137 199.682 125.131 199.693 125.126 199.699H127.216L127.221 199.693Z" fill="#22475C"/>
<path d="M166.277 143.758C159.941 151.084 152.687 157.502 144.646 162.909C143.771 163.497 144.679 164.85 145.553 164.262C153.704 158.784 161.074 152.261 167.498 144.836C168.186 144.044 166.959 142.966 166.272 143.758H166.277Z" fill="#22475C"/>
<path d="M159.836 163.877C152.086 169.536 144.342 175.196 136.593 180.861C135.746 181.477 136.653 182.835 137.5 182.214C145.25 176.554 152.994 170.895 160.743 165.23C161.59 164.614 160.683 163.255 159.836 163.877Z" fill="#22475C"/>
<path d="M156.135 179.305C146.51 184.09 137.209 189.48 128.272 195.453C127.397 196.036 128.305 197.389 129.179 196.806C138.117 190.833 147.417 185.443 157.042 180.658C157.983 180.191 157.064 178.843 156.135 179.305Z" fill="#22475C"/>
<path d="M138.705 179.821C138.975 173.909 136.516 168.502 133.854 163.371C130.648 157.189 127.821 151.293 127.617 144.192C127.59 143.142 125.962 143.268 125.995 144.319C126.176 150.638 128.316 156.215 131.192 161.77C134.151 167.485 137.385 173.304 137.083 179.948C137.033 180.993 138.661 180.861 138.705 179.821Z" fill="#22475C"/>
<path d="M132.336 190.899C131.17 185.382 128.799 180.284 126.181 175.328C123.261 169.795 120.219 164.323 117.233 158.823C116.732 157.899 115.379 158.817 115.88 159.73C118.756 165.021 121.666 170.296 124.493 175.609C127.177 180.647 129.608 185.817 130.796 191.432C131.01 192.455 132.55 191.911 132.336 190.899Z" fill="#22475C"/>
<path d="M115.281 184.353C119.131 189.127 122.667 193.813 124.515 199.693H126.215C124.532 193.945 121.298 189.226 117.558 184.595C113.746 179.871 109.825 175.075 108.532 168.992C108.312 167.969 106.778 168.513 106.992 169.525C108.208 175.229 111.689 179.898 115.275 184.353H115.281Z" fill="#22475C"/>
<path d="M70.4992 197.432H127.82C132.198 197.432 134.805 193.885 133.65 189.512L90.0792 24.3419C88.9242 19.9639 84.4417 16.4219 80.0692 16.4219H22.7482C18.3702 16.4219 15.7632 19.9694 16.9182 24.3419L60.4892 189.512C61.6442 193.89 66.1267 197.432 70.4992 197.432Z" fill="#3B474E"/>
<path d="M71.0376 190.794H126.071C130.449 190.794 133.056 187.247 131.901 182.874L90.0841 24.3477C88.9291 19.9697 84.4466 16.4277 80.0741 16.4277H25.0411C20.6631 16.4277 18.0561 19.9752 19.2111 24.3477L61.0276 182.874C62.1826 187.252 66.6651 190.794 71.0376 190.794Z" fill="#667A84"/>
<path d="M26.4229 19.54H83.2269C85.7294 19.54 88.2924 21.5695 88.9524 24.072L132.666 189.782C133.326 192.284 131.836 194.314 129.333 194.314H72.5294C70.0269 194.314 67.4639 192.284 66.8039 189.782L23.0899 24.072C22.4299 21.5695 23.9204 19.54 26.4229 19.54Z" fill="#EAEDEF"/>
<path d="M59.6422 21.0803C57.4257 21.1188 59.0812 25.8268 61.2977 25.7883C63.5142 25.7498 61.8587 21.0418 59.6422 21.0803Z" fill="#3B474E"/>
<path d="M54.0686 40.2078L51.8217 40.2145C51.791 39.9839 51.729 39.7759 51.6356 39.5904C51.5422 39.4049 51.4189 39.2465 51.2657 39.1151C51.1125 38.9838 50.931 38.884 50.7211 38.8157C50.5141 38.7444 50.2849 38.7091 50.0332 38.7099C49.5868 38.7112 49.2022 38.8217 48.8793 39.0413C48.5594 39.261 48.3132 39.5778 48.1406 39.9917C47.9711 40.4056 47.8872 40.9062 47.8889 41.4934C47.8908 42.1045 47.9792 42.6166 48.1541 43.0295C48.3321 43.4394 48.5802 43.7487 48.8984 43.9575C49.2195 44.1632 49.5988 44.2655 50.0362 44.2642C50.2819 44.2634 50.505 44.2313 50.7055 44.1678C50.909 44.1043 51.087 44.0124 51.2394 43.8921C51.3948 43.7688 51.5217 43.6201 51.6201 43.4461C51.7214 43.269 51.7912 43.0696 51.8295 42.8478L54.0764 42.8546C54.0387 43.2622 53.9215 43.6639 53.725 44.06C53.5314 44.456 53.2644 44.8178 52.9238 45.1454C52.5832 45.4699 52.1676 45.7288 51.6769 45.922C51.1891 46.1152 50.6292 46.2127 49.9971 46.2146C49.1642 46.217 48.4177 46.0365 47.7575 45.673C47.1004 45.3064 46.5805 44.7717 46.1979 44.0688C45.8154 43.3659 45.6226 42.5097 45.6196 41.5001C45.6166 40.4875 45.8073 39.6287 46.1917 38.9235C46.576 38.2183 47.0972 37.682 47.7552 37.3146C48.4132 36.9471 49.1511 36.7622 49.969 36.7598C50.5262 36.7581 51.0417 36.8345 51.5155 36.9889C51.9893 37.1402 52.4064 37.3637 52.7668 37.6592C53.1272 37.9517 53.4203 38.3119 53.6463 38.7396C53.8722 39.1673 54.013 39.6567 54.0686 40.2078ZM66.7502 41.4374C66.7532 42.45 66.5611 43.3089 66.1737 44.0141C65.7863 44.7192 65.2606 45.2555 64.5967 45.623C63.9357 45.9905 63.1932 46.1754 62.3694 46.1779C61.5426 46.1803 60.7975 45.9983 60.1344 45.6318C59.4712 45.2652 58.9439 44.732 58.5523 44.0322C58.1638 43.3293 57.968 42.4731 57.965 41.4635C57.962 40.4509 58.1527 39.592 58.5371 38.8869C58.9244 38.1817 59.4486 37.6454 60.1096 37.2779C60.7706 36.9105 61.5145 36.7255 62.3413 36.7231C63.1652 36.7206 63.9087 36.9012 64.5719 37.2647C65.238 37.6282 65.7669 38.1614 66.1584 38.8642C66.55 39.5671 66.7472 40.4248 66.7502 41.4374ZM64.4764 41.4442C64.4746 40.845 64.3877 40.339 64.2158 39.926C64.0468 39.5131 63.8032 39.2008 63.485 38.989C63.1698 38.7772 62.7905 38.672 62.3471 38.6733C61.9067 38.6746 61.5281 38.7821 61.2112 38.9958C60.8942 39.2094 60.651 39.5232 60.4815 39.9371C60.3149 40.351 60.2326 40.8576 60.2343 41.4568C60.2361 42.0559 60.3215 42.562 60.4905 42.9749C60.6625 43.3878 60.9076 43.7001 61.2258 43.9119C61.5439 44.1237 61.9232 44.2289 62.3636 44.2276C62.807 44.2263 63.1856 44.1188 63.4996 43.9052C63.8165 43.6915 64.0582 43.3777 64.2248 42.9638C64.3943 42.5499 64.4782 42.0433 64.4764 41.4442ZM74.183 46.017L70.7813 46.0271L70.754 36.8239L74.1512 36.8138C75.0889 36.8111 75.8968 36.9929 76.575 37.3594C77.2561 37.7229 77.782 38.2486 78.1525 38.9365C78.523 39.6215 78.7097 40.4418 78.7125 41.3974C78.7154 42.3561 78.5336 43.1805 78.1671 43.8706C77.8037 44.5607 77.2825 45.0911 76.6035 45.4616C75.9246 45.8291 75.1177 46.0142 74.183 46.017ZM73 44.1241L74.092 44.1209C74.6073 44.1194 75.0429 44.0312 75.3989 43.8564C75.7579 43.6785 76.0282 43.3916 76.2097 42.9957C76.3943 42.5967 76.4856 42.0661 76.4836 41.404C76.4817 40.742 76.3872 40.215 76.2003 39.8231C76.0134 39.4282 75.7384 39.1444 75.3754 38.9717C75.0154 38.796 74.5718 38.709 74.0445 38.7105L72.984 38.7137L73 44.1241Z" fill="#00CF46"/>
<path d="M275.5 197.003H0.5V200.187H275.5V197.003Z" fill="#3B474E"/>
<path d="M206.717 83.2197L202.867 93.6202L188.259 90.6997L187.588 93.2627L187.385 94.0492L202.988 100.842C206.09 102.189 209.451 99.5657 208.89 96.2327L206.717 83.2252V83.2197Z" fill="#FFC9B9"/>
<path d="M208.896 96.2272L206.723 83.2197L204.853 88.2687C205.865 91.6182 206.597 94.9787 205.92 98.5702C205.898 98.6912 205.876 98.8067 205.854 98.9277C205.882 98.8067 205.898 98.6857 205.92 98.5702C199.392 99.5272 193.683 95.4242 187.594 93.2627L187.391 94.0492L202.994 100.842C206.096 102.189 209.457 99.5657 208.896 96.2327V96.2272Z" fill="#FDA98F"/>
<path d="M182.231 87.7686L179.404 89.5561L182.231 93.241L184.563 94.2915L187.385 94.0495L188.259 90.7L182.231 87.7686Z" fill="#FDA98F"/>
<path d="M187.588 93.2631L185.938 92.5316C184.865 91.9651 184.046 91.0136 183.644 89.8696L183.325 88.9511L180.135 87.4716C179.926 87.3726 179.816 87.1416 179.877 86.9216C179.943 86.6631 180.212 86.5146 180.465 86.5916L184.695 87.1691C185.729 87.3121 186.636 87.9171 187.164 88.8191L188.264 90.7001L187.593 93.2631H187.588Z" fill="#FFC9B9"/>
<path d="M194.336 46.7876C194.012 50.5386 196.481 54.3556 200.04 55.6041C201.816 56.2256 203.956 56.3631 205.127 57.8371C206.233 59.2231 205.991 61.1976 205.881 62.9686C205.771 64.7396 206.04 66.8571 207.608 67.6766C209.593 68.7161 212.024 66.8791 214.202 67.4126C216.347 67.9406 217.282 70.4981 217.381 72.7091C217.486 74.9201 217.145 77.2686 218.162 79.2321C219.152 81.1516 221.292 82.2736 223.437 82.5376C225.576 82.8071 227.743 82.3396 229.822 81.7621C232.363 81.0581 234.899 80.1616 237.044 78.6271C239.189 77.0871 240.921 74.8266 241.339 72.2251C241.757 69.6181 240.641 66.7031 238.331 65.4326C236.978 64.6901 235.218 64.4426 234.382 63.1446C233.496 61.7696 234.118 59.9656 234.728 58.4476C235.339 56.9296 235.883 55.0706 234.893 53.7726C233.095 51.4076 228.502 53.5691 226.704 51.1986C226.005 50.2801 226.049 49.0261 225.983 47.8766C225.664 42.2996 221.737 37.0911 216.463 35.2541C212.965 34.0386 209.01 34.3521 205.672 35.9141C203.967 36.7116 202.812 38.1251 201.239 39.0271C199.732 39.8906 198.241 40.1491 196.932 41.4416C195.491 42.8606 194.512 44.7691 194.342 46.7876H194.336Z" fill="#BF360C"/>
<path d="M238.331 65.4326C236.978 64.6901 235.218 64.4426 234.382 63.1446C233.496 61.7696 234.118 59.9656 234.728 58.4476C235.339 56.9296 235.883 55.0706 234.893 53.7726C233.095 51.4076 228.502 53.5691 226.704 51.1986C226.005 50.2801 226.049 49.0261 225.983 47.8766C225.67 42.3271 221.781 37.1516 216.545 35.2871C219.999 37.5091 222.623 41.1391 223.547 45.1266C223.86 46.4851 223.937 47.8821 223.91 49.2736C223.866 51.2261 222.634 53.6846 225.131 54.5976C226.891 55.2356 228.805 55.0046 230.158 56.5941C230.95 57.5236 230.933 58.6456 230.587 59.7566C230.251 60.8401 230.037 61.7806 230.433 62.8916C230.812 63.9641 231.566 64.9266 232.33 65.7571C233.029 66.5216 233.716 67.3136 233.749 68.4026C233.782 69.4641 233.227 70.5421 232.512 71.2956C231.164 72.7256 229.008 73.4131 227.111 73.6991C225.329 73.9686 223.558 73.7761 222.161 72.5496C220.857 71.4056 220.192 69.6621 219.57 68.0891C219.218 67.1926 218.91 66.3126 218.173 65.6581C217.535 65.0861 216.721 64.7891 215.902 64.5856C213.977 64.1071 211.744 64.3216 209.956 63.4141C208.356 62.6001 208.075 60.8841 208.147 59.2561C208.218 57.6996 208.581 55.7966 207.173 54.7021C206.425 54.1191 205.468 53.8881 204.566 53.6956C203.62 53.4921 202.674 53.2666 201.756 52.9696C199.743 52.3206 197.829 51.3086 196.547 49.5816C195.414 48.0471 195.073 46.1661 195.205 44.2906C195.216 44.1036 195.238 43.9111 195.26 43.7241C194.76 44.6811 194.43 45.7261 194.336 46.8096C194.012 50.5606 196.481 54.3776 200.04 55.6261C201.816 56.2476 203.956 56.3851 205.127 57.8591C206.233 59.2451 205.991 61.2196 205.881 62.9906C205.771 64.7616 206.04 66.8791 207.608 67.6986C209.593 68.7381 212.024 66.9011 214.202 67.4346C216.347 67.9626 217.282 70.5201 217.381 72.7311C217.486 74.9421 217.145 77.2906 218.162 79.2541C219.152 81.1736 221.292 82.2956 223.437 82.5596C225.576 82.8291 227.743 82.3616 229.822 81.7841C232.363 81.0801 234.899 80.1836 237.044 78.6491C239.189 77.1146 240.921 74.8486 241.339 72.2471C241.757 69.6401 240.641 66.7251 238.331 65.4546V65.4326Z" fill="#92360C"/>
<path d="M228.723 192.124L224.95 192.861L223.415 182.087L229.823 181.146L228.723 192.124Z" fill="#FFC9B9"/>
<path d="M211.738 112.342L228.029 111.522L229.201 124.557L227.149 147.888L230.79 155.588L229.822 181.147L223.415 182.087L218.492 152.651L211.738 112.342Z" fill="#263238"/>
<path d="M229.057 191.124L230.889 196.662L212.42 196.937L212.585 195.711L224.135 190.475L225.691 191.69L229.057 191.124Z" fill="#54BB77"/>
<path d="M238.495 191.817L234.486 192.603L232.671 181.147L239.32 180.569L238.495 191.817Z" fill="#FFC9B9"/>
<path d="M236.708 111.786C231.621 112.199 226.55 112.765 221.501 113.502L227.49 150.204L232.671 181.152L239.321 180.575L240.14 161.957C240.415 156.38 238.76 150.88 235.46 146.376L239.491 132.978C240.3 131.603 241.713 123.265 240.795 115.174C240.564 113.123 238.765 111.627 236.708 111.792V111.786Z" fill="#37474F"/>
<path d="M238.859 190.755L240.8 196.645L221.165 196.937L221.347 195.633L233.623 190.067L235.278 191.36L238.859 190.755Z" fill="#54BB77"/>
<path d="M236.449 139.346L231.901 151.732C231.648 152.414 232.715 152.612 232.962 151.936C234.48 147.805 235.998 143.675 237.511 139.55C237.764 138.868 236.697 138.67 236.449 139.346Z" fill="#263238"/>
<path d="M236.01 148.498C235.707 148.416 235.427 148.575 235.295 148.861L233.716 152.189C233.59 152.458 233.76 152.805 234.024 152.876C234.327 152.959 234.607 152.799 234.739 152.513C235.267 151.402 235.79 150.291 236.318 149.186C236.444 148.916 236.274 148.57 236.01 148.498Z" fill="#263238"/>
<path d="M238.204 115.67C231.335 120.928 222.177 122.957 213.729 121.093C213.042 120.939 212.712 121.989 213.405 122.143C222.254 124.096 231.742 122 238.941 116.489C239.502 116.06 238.765 115.241 238.204 115.67Z" fill="#CFD8DC"/>
<path d="M217.596 89.0933C217.145 87.7953 216.397 86.6128 215.369 85.6943C215.154 85.5018 214.819 85.4303 214.593 85.6503C214.401 85.8428 214.324 86.2223 214.549 86.4258C214.78 86.6348 215 86.8548 215.204 87.0858C215.308 87.2013 215.402 87.3223 215.501 87.4433C215.55 87.5038 215.594 87.5643 215.638 87.6303C215.66 87.6578 215.677 87.6853 215.699 87.7128C215.699 87.7183 215.699 87.7128 215.704 87.7183C215.704 87.7238 215.704 87.7293 215.721 87.7403C215.886 87.9933 216.04 88.2518 216.177 88.5213C216.249 88.6588 216.315 88.8018 216.375 88.9448C216.408 89.0163 216.436 89.0878 216.463 89.1593C216.474 89.1923 216.485 89.2253 216.502 89.2583C216.507 89.2748 216.513 89.2858 216.513 89.2913C216.513 89.2968 216.513 89.3078 216.524 89.3188C216.617 89.5883 216.865 89.8193 217.178 89.7368C217.437 89.6708 217.701 89.3738 217.596 89.0823V89.0933Z" fill="#CFD8DC"/>
<path d="M212.08 65.383C213.878 65.8505 219.268 61.346 221.166 61.39C223.058 61.4395 228.03 61.1425 229.46 65.8065C230.67 69.761 228.382 74.6725 227.155 78.704C226.506 80.8325 225.709 82.9555 225.527 85.139C225.252 88.494 226.49 91.7115 228.343 94.3625C230.197 97.0025 238.348 104.614 241.301 115.295C234.734 122.968 220.891 125.261 211.744 122.638C211.183 115.405 207.267 95.0445 207.124 87.6525C207.113 87.2125 206.943 86.91 206.673 86.668C204.281 84.523 202.994 81.4045 203.802 78.2915C205.084 73.3305 207.284 70.6905 212.085 65.383H212.08Z" fill="#54BB77"/>
<path opacity="0.63" d="M206.667 86.6682C206.942 86.9102 207.113 87.2127 207.118 87.6527C207.168 90.2707 207.564 93.4442 208.075 96.7662C208.807 96.9752 209.56 97.1567 210.325 97.3217C211.43 96.8047 212.525 96.2603 213.586 95.6938C215.654 94.5828 217.601 93.2517 219.367 91.7007C221.176 90.1057 222.579 88.2852 223.893 86.2722C224.526 85.3042 225.147 84.3252 225.802 83.3792C226.137 81.8117 226.687 80.2607 227.16 78.7097L227.182 78.6437C227.672 77.0267 225.692 75.8112 224.449 76.9497C219.125 81.8282 211.837 84.5012 204.236 83.3242C204.775 84.5727 205.617 85.7167 206.678 86.6682H206.667Z" fill="#54BB77"/>
<path d="M220.329 64.1836C219.785 65.4816 218.745 66.5651 217.431 67.0986C215.957 67.6981 214.268 67.5771 212.871 66.8236C212.558 66.6531 212.299 67.1426 212.613 67.3076C214.125 68.1271 215.99 68.2756 217.596 67.6211C219.037 67.0326 220.208 65.8776 220.813 64.4421C220.951 64.1176 220.467 63.8591 220.329 64.1836Z" fill="#CFD8DC"/>
<path d="M188.275 81.4528L181.831 68.9463L175.138 72.395L181.582 84.9015L188.275 81.4528Z" fill="#7CB342"/>
<path d="M187.139 80.8938L181.63 70.2012L176.271 72.9622L181.781 83.6547L187.139 80.8938Z" stroke="#F2E0BE" stroke-miterlimit="10"/>
<path d="M180.053 77.6865C179.58 76.768 179.943 75.6405 180.856 75.1675C181.775 74.6945 182.902 75.0575 183.375 75.976C183.848 76.8945 183.485 78.022 182.567 78.495C181.648 78.968 180.521 78.605 180.048 77.6865H180.053Z" fill="#F2E0BE"/>
<path d="M189.1 78.9459L188.985 78.8909C188.985 78.8909 187.632 78.2584 186.565 77.7524C186.015 77.4939 185.366 77.8074 185.234 78.4014C185.113 78.9349 184.959 79.4739 184.937 79.6279C184.722 81.1734 184.777 82.7354 185.135 84.2534C185.327 85.0784 185.514 86.1729 186.378 86.5469C186.515 86.6074 188.132 87.2674 188.121 87.3059L188.402 86.3159L189.117 83.8189L189.1 78.9459Z" fill="#FFC9B9"/>
<path d="M200.386 85.0675L188.583 83.126L188.121 87.3115L208.356 94.049L208.988 89.7645L209.461 86.558L200.386 85.0675Z" fill="#FFC9B9"/>
<path d="M209.462 86.558L200.387 85.0675L188.584 83.126L188.221 86.437C194.914 88.4115 201.619 91.519 208.692 91.805L208.994 89.7645L209.467 86.558H209.462Z" fill="#FFC9B9"/>
<path d="M210.781 91.7998C215.506 87.1083 220.192 82.8458 223.888 77.0983C222.216 76.0588 220.813 74.4803 219.141 73.4463L209.467 86.5583L208.691 91.8053C209.384 91.8328 210.083 91.8328 210.781 91.8053V91.7998Z" fill="#FFC9B9"/>
<path d="M219.735 72.6436L219.141 73.4466C220.813 74.4806 222.216 76.0591 223.888 77.0986C220.192 82.8461 215.506 87.1086 210.781 91.8001C210.083 91.8276 209.384 91.8331 208.691 91.8001C201.618 91.5141 195.816 89.5506 189.122 87.5761L188.127 87.3121L208.361 94.0496C214.961 96.2496 226.088 76.9226 226.088 76.9226L219.741 72.6436H219.735Z" fill="#FDA98F"/>
<path d="M226.501 76.5536C224.295 75.0906 222.09 73.6276 219.884 72.1646C219.637 71.9996 219.268 72.1481 219.142 72.3901C218.993 72.6761 219.12 72.9676 219.367 73.1326L225.984 77.5216C226.231 77.6866 226.6 77.5381 226.726 77.2961C226.875 77.0101 226.748 76.7186 226.501 76.5536Z" fill="#CFD8DC"/>
<path d="M205.865 46.2977C208.983 47.8377 213.334 50.2687 216.639 48.0632C217.233 47.6672 217.668 47.1887 217.97 46.6717C218.344 46.6387 218.724 46.7212 219.114 46.9962C220.154 47.7332 220.599 49.2182 220.187 50.4172C219.747 51.6932 218.724 52.1332 217.382 52.3147C217.635 55.9887 218.669 58.7497 219.78 62.4622C219.373 64.3542 218.685 65.4542 217.178 66.1692C215.671 66.8842 215.308 66.8622 213.741 66.2957C213.4 64.4422 212.982 61.9232 212.349 60.1467C211.172 60.9277 208.384 61.7857 207.113 61.7472C206.635 61.7362 201.575 53.9647 201.52 43.2617C202.785 44.4827 204.253 45.5002 205.87 46.2977H205.865Z" fill="#FFC9B9"/>
<path d="M209.621 61.2906C210.672 60.9771 211.728 60.5481 212.344 60.1411C212.894 61.6866 213.279 63.7876 213.598 65.5311L213.449 58.8486L209.621 61.2906Z" fill="#FDA98F"/>
<path d="M216.865 48.4979C217.217 48.0524 217.662 47.7279 218.157 47.5244C218.427 47.4144 218.564 47.8819 218.3 48.0029C217.86 48.1954 217.486 48.5034 217.184 48.9049C217.041 49.0974 216.92 49.3064 216.821 49.5319C216.733 49.7354 216.705 49.9004 216.54 50.0434C216.452 50.1204 216.309 50.0544 216.276 49.9389C216.15 49.4604 216.595 48.8389 216.865 48.4979Z" fill="#FDA98F"/>
<path d="M208.428 49.7463C208.384 49.5373 208.323 49.3283 208.384 49.1193C208.466 48.8168 208.829 48.7012 209.066 48.9157C209.231 49.0587 209.297 49.2677 209.374 49.4657C209.445 49.6472 209.5 49.8177 209.539 50.0102C209.66 50.6372 208.835 50.8903 208.593 50.2963C208.521 50.1148 208.472 49.9442 208.433 49.7517L208.428 49.7463Z" fill="#472C1F"/>
<path d="M203.125 50.3841C203.092 50.1751 203.037 49.9606 203.103 49.7571C203.197 49.4601 203.565 49.3556 203.791 49.5756C203.95 49.7241 204.005 49.9331 204.082 50.1366C204.148 50.3181 204.198 50.4941 204.225 50.6866C204.324 51.3191 203.494 51.5446 203.268 50.9396C203.202 50.7581 203.158 50.5821 203.125 50.3896V50.3841Z" fill="#472C1F"/>
<path d="M207.058 57.095C208.372 56.633 209.621 55.962 210.737 55.126C209.89 56.292 208.62 56.93 207.289 57.3645C207.217 57.271 207.14 57.1775 207.058 57.095Z" fill="white"/>
<path d="M210.737 55.1255C210.792 55.0815 210.852 55.043 210.907 54.999C210.924 55.2575 210.918 55.527 210.885 55.7855C210.808 56.3795 210.599 56.957 210.214 57.408C209.664 58.057 208.856 58.486 208.009 58.563C207.866 58.299 207.723 58.0295 207.569 57.771C207.486 57.6335 207.393 57.496 207.294 57.364C208.625 56.9295 209.895 56.286 210.742 55.1255H210.737Z" fill="#B51C1C"/>
<path d="M206.711 45.7808C208.07 45.3903 209.45 45.5113 210.726 46.1328C211.029 46.2813 210.787 46.7433 210.484 46.5948C209.34 46.0338 208.103 45.9239 206.876 46.2759C206.552 46.3694 206.392 45.8689 206.717 45.7754L206.711 45.7808Z" fill="#BF360C"/>
<path d="M202.075 47.6394C202.339 47.1114 202.79 46.7209 203.345 46.5284C203.664 46.4184 203.824 46.9189 203.505 47.0289C203.07 47.1774 202.74 47.4799 202.537 47.8869C202.388 48.1894 201.921 47.9474 202.075 47.6449V47.6394Z" fill="#BF360C"/>
<path d="M206.282 55.5541C205.974 55.3671 205.584 55.4056 205.237 55.3561C205.039 55.3286 204.753 55.2516 204.665 55.0481C204.61 54.9161 204.693 54.7621 204.737 54.6411C204.808 54.4596 204.885 54.2781 204.957 54.0911C205.1 53.7226 205.254 53.3651 205.358 52.9801C205.43 52.7216 205.056 52.5731 204.929 52.8041C204.709 53.1946 204.544 53.6181 204.374 54.0306C204.214 54.4101 203.967 54.8336 204.143 55.2461C204.28 55.5706 204.605 55.7631 204.929 55.8511C205.122 55.9006 205.325 55.9116 205.518 55.9226C205.71 55.9391 205.892 55.9776 206.079 56.0271C206.376 56.0986 206.535 55.6916 206.277 55.5376L206.282 55.5541Z" fill="#472C1F"/>
<path d="M188.803 78.5174C186.867 77.2084 184.695 76.2734 182.418 75.7564C181.725 75.5969 181.477 76.6694 182.165 76.8289C184.354 77.3239 186.422 78.2314 188.281 79.4909C188.528 79.6559 188.897 79.5074 189.023 79.2654C189.177 78.9794 189.045 78.6879 188.798 78.5229L188.803 78.5174Z" fill="#FFC9B9"/>
<path d="M186.098 78.9566C185.058 78.0326 183.744 77.4166 182.358 77.2461C182.072 77.2131 181.753 77.3451 181.698 77.6586C181.648 77.9226 181.802 78.2801 182.11 78.3186C182.418 78.3571 182.721 78.4121 183.023 78.4946C183.359 78.5881 183.546 78.6541 183.843 78.7861C184.437 79.0556 184.893 79.3526 185.35 79.7651C185.564 79.9576 185.933 79.9631 186.125 79.7376C186.318 79.5121 186.323 79.1656 186.092 78.9621L186.098 78.9566Z" fill="#FFC9B9"/>
<path d="M185.701 80.5028C184.799 79.6448 183.677 79.0288 182.467 78.7318C182.187 78.6603 181.862 78.8528 181.807 79.1443C181.752 79.4413 181.917 79.7328 182.22 79.8043C182.357 79.8373 182.495 79.8758 182.627 79.9198C182.693 79.9418 182.753 79.9583 182.814 79.9803C182.847 79.9913 182.874 80.0023 182.907 80.0133C183.171 80.1233 183.424 80.2388 183.677 80.3708C183.793 80.4368 183.908 80.5028 184.024 80.5743C184.079 80.6073 184.134 80.6458 184.189 80.6843C184.216 80.7063 184.249 80.7228 184.277 80.7448C184.282 80.7448 184.288 80.7503 184.299 80.7613C184.524 80.9318 184.744 81.1133 184.948 81.3058C185.157 81.5038 185.536 81.4983 185.723 81.2728C185.921 81.0418 185.916 80.7063 185.69 80.4973L185.701 80.5028Z" fill="#FFC9B9"/>
<path d="M186.031 82.9663C185.107 81.8553 183.941 81.0303 182.583 80.5353C182.313 80.4363 181.972 80.6783 181.923 80.9478C181.862 81.2723 182.044 81.5033 182.335 81.6078C182.352 81.6133 182.357 81.6133 182.363 81.6188C182.363 81.6188 182.363 81.6188 182.368 81.6188C182.401 81.6298 182.429 81.6463 182.462 81.6573C182.533 81.6848 182.605 81.7178 182.671 81.7453C182.808 81.8058 182.946 81.8718 183.083 81.9433C183.358 82.0863 183.628 82.2513 183.881 82.4328C183.881 82.4328 183.881 82.4328 183.886 82.4328C183.919 82.4603 183.952 82.4823 183.985 82.5098C184.046 82.5538 184.106 82.6033 184.167 82.6528C184.282 82.7463 184.398 82.8453 184.513 82.9498C184.623 83.0543 184.733 83.1588 184.838 83.2688C184.893 83.3238 184.942 83.3788 184.992 83.4338C185.014 83.4613 185.036 83.4833 185.058 83.5108C185.058 83.5108 185.168 83.6428 185.096 83.5548C185.278 83.7748 185.591 83.9068 185.855 83.7253C186.075 83.5713 186.218 83.2028 186.026 82.9663H186.031Z" fill="#FFC9B9"/>
<path d="M163.735 92.6803L170.748 93.1313L174.961 89.8808H176.116L173.591 86.9383L170.28 86.3828L163.735 90.9203V92.6803Z" fill="#FDA98F"/>
<path d="M163.735 90.92L166.15 90.3645C167.761 89.996 169.18 89.028 170.11 87.664L170.858 86.5695L175.582 85.7445C175.89 85.6895 176.116 85.4255 176.116 85.112C176.116 84.749 175.819 84.4575 175.456 84.4685L169.681 83.737C168.273 83.561 166.859 84.0395 165.847 85.0405L163.735 87.136V90.92Z" fill="#FFC9B9"/>
<path d="M132.907 189.31H125.779L125.735 186.73H132.962L132.907 189.31Z" fill="#FFC9B9"/>
<path d="M145.266 194.689L133.095 189.31H125.23L123.938 195.954H145.982L145.266 194.689Z" fill="#489663"/>
<path d="M123.937 195.953L123.733 197.004H146.575L145.981 195.953H123.937Z" fill="white"/>
<path d="M98.4664 138.429V109.708L102.261 111.166C104.582 112.057 105.748 114.653 104.874 116.974C104.274 118.569 104.775 120.373 106.111 121.434L135.014 144.336C136.334 145.381 137.065 147.009 136.966 148.692L134.777 186.73H123.095L121.858 154.115L98.4609 138.429H98.4664Z" fill="#263238"/>
<path d="M99.5163 111.523L99.6153 121.506L117.985 142.076C119.366 143.621 120.114 145.629 120.075 147.697C120.004 152.047 117.342 155.936 113.31 157.575L84.5618 169.257L80.6073 156.717L104.813 147.416L91.8218 142.103C81.7293 137.978 75.1348 128.155 75.1348 117.254L99.5163 111.523Z" fill="#37474F"/>
<path d="M112.123 147.889C107.993 147.581 103.961 146.398 100.309 144.457C99.6824 144.127 99.1819 145.106 99.8089 145.436C103.648 147.471 107.855 148.664 112.189 148.983C112.893 149.033 112.827 147.938 112.129 147.883L112.123 147.889Z" fill="#263238"/>
<path d="M108.157 149.693L105.402 147.999C105.154 147.851 104.791 147.911 104.643 148.175C104.494 148.434 104.555 148.775 104.819 148.934L107.574 150.628C107.822 150.777 108.185 150.716 108.333 150.452C108.482 150.194 108.421 149.853 108.157 149.693Z" fill="#263238"/>
<path d="M119.774 80.1901C121.248 77.6711 122.728 75.3006 125.258 76.8296C129.19 79.2166 132.82 80.8611 137.473 82.6046L132.853 92.6971C128.217 91.4651 122.832 90.7611 118.619 88.2036C116.106 86.6801 118.273 82.7586 119.774 80.1901Z" fill="#489663"/>
<path d="M142.61 85.5087L137.682 83.2207C136.593 86.5537 134.987 89.6007 132.721 92.2132L142.115 95.1447L163.73 92.6752V87.1312L142.61 85.5032V85.5087Z" fill="#FFC9B9"/>
<path d="M141.202 93.2854L163.735 91.1349V87.1364L142.615 85.5084L138.166 83.4404C138.012 86.3884 137.181 89.0009 135.669 91.2724L141.202 93.2854Z" fill="#FFC9B9"/>
<path d="M141.202 93.2858L135.669 91.2728C137.181 89.0013 138.012 86.3888 138.166 83.4408L137.478 83.1218L137.264 83.0283C136.505 86.3118 135.207 89.5678 132.798 92.2298L142.12 95.1393L163.735 92.6698V91.1243L141.202 93.2748V93.2858Z" fill="#FDA98F"/>
<path d="M137.093 82.6374C136.076 86.0144 134.525 89.1934 132.501 92.0809C132.094 92.6584 133.018 93.2524 133.425 92.6749C135.504 89.7159 137.099 86.4269 138.144 82.9619C138.347 82.2854 137.297 81.9554 137.093 82.6374Z" fill="#5ABB7C"/>
<path d="M105.463 114.312C105.771 112.112 106.481 109.978 107.3 107.916C110.589 99.616 115.286 91.564 121.386 85.019C123.36 82.896 125.522 80.9655 127.854 79.266C121.622 72.853 111.563 67.2045 101.718 65.0815C97.6258 64.2015 93.5118 66.4675 92.0543 70.389L84.5688 79.6455C73.9153 92.8235 70.8023 110.561 76.3298 126.582C88.9578 117.991 102.559 116.859 105.458 117.848C105.254 116.688 105.304 115.483 105.463 114.312Z" fill="#489663"/>
<path d="M93.6435 111.628C89.117 112.134 84.6674 113.245 80.4874 115.148C76.7089 98.1361 85.9214 82.7471 96.6134 70.0311C98.1424 68.2161 95.519 65.7796 93.8745 67.4901C93.0935 68.3041 92.4664 69.2831 92.0484 70.3941L84.5629 79.6506C73.9094 92.8286 70.7964 110.566 76.3239 126.588C77.4459 125.823 78.5734 125.125 79.7064 124.476C79.9484 123.167 80.3664 121.885 81.0374 120.653C83.3969 115.544 88.842 114.647 93.968 113.349C95.0184 113.08 94.7269 111.512 93.6489 111.633L93.6435 111.628Z" fill="#36704A"/>
<path d="M103.428 114.081C99.9901 113.905 96.5747 114.494 93.3847 115.775C92.7302 116.039 93.2581 117.002 93.9126 116.743C96.9211 115.539 100.166 115.016 103.4 115.181C104.11 115.22 104.143 114.12 103.433 114.081H103.428Z" fill="#36704A"/>
<path d="M118.333 87.8896C112.519 94.2091 108.235 101.882 105.919 110.154C105.259 112.508 104.77 114.906 104.434 117.326C104.335 118.024 105.435 118.068 105.534 117.37C106.689 109.098 109.835 101.139 114.604 94.286C115.968 92.328 117.458 90.469 119.075 88.709C119.548 88.192 118.822 87.3671 118.338 87.8896H118.333Z" fill="#5ABB7C"/>
<path d="M83.0456 104.225C83.0456 104.225 86.6921 105.847 89.1341 107.173C89.8931 109.906 87.8746 112.502 85.6196 113.668C83.7936 114.614 81.4616 114.504 79.7346 113.393C78.0021 112.282 76.9406 110.209 77.0396 108.152L83.0456 104.225Z" fill="#FFC9B9"/>
<path d="M94.012 114.525C93.517 111.341 91.5755 108.596 88.7815 107.007C87.643 106.358 86.6035 108.112 87.7475 108.761C90.129 110.114 91.625 112.358 92.0485 115.059C92.252 116.351 94.2155 115.812 94.0175 114.525H94.012Z" fill="#FFC9B9"/>
<path d="M91.6849 116.082C91.1899 112.898 89.2484 110.153 86.4544 108.564C85.3159 107.915 84.2764 109.669 85.4204 110.318C87.8019 111.671 89.2979 113.915 89.7214 116.616C89.9249 117.908 91.8884 117.369 91.6904 116.082H91.6849Z" fill="#FFC9B9"/>
<path d="M88.7435 116.901C88.2485 113.717 86.307 110.972 83.513 109.383C82.3745 108.734 81.335 110.488 82.479 111.137C84.8605 112.49 86.3565 114.734 86.78 117.435C86.9835 118.727 88.947 118.188 88.749 116.901H88.7435Z" fill="#FFC9B9"/>
<path d="M85.6732 116.891C85.1782 113.706 83.2367 110.962 80.4427 109.372C79.3042 108.723 78.2647 110.478 79.4087 111.127C81.7902 112.48 83.2862 114.724 83.7097 117.424C83.9132 118.717 85.8767 118.178 85.6787 116.891H85.6732Z" fill="#FFC9B9"/>
<path d="M83.0447 104.224L75.6142 82.9336L96.9432 75.3381L92.4607 65.8066L64.8947 74.8816C63.1842 75.4426 62.3592 77.3786 63.1347 79.0066L77.0387 108.151L83.0447 104.224Z" fill="#FFC9B9"/>
<path d="M96.9428 75.344L92.4603 65.8125L84.7493 68.348C84.5293 71.384 84.4248 74.3925 85.2773 77.1645C81.4108 79.3095 76.7798 80.9375 72.6328 82.131C74.2993 83.264 75.6028 84.6005 76.7138 86.091L75.6138 82.9395L96.9428 75.344Z" fill="#FDA98F"/>
<path d="M72.6332 82.1307C76.7747 80.9372 81.4112 79.3092 85.2777 77.1642C84.4307 74.3922 84.5297 71.3837 84.7497 68.3477L64.8947 74.8817C63.1842 75.4427 62.3592 77.3787 63.1347 79.0067L77.0387 108.151L83.0447 104.224L76.7142 86.0907C75.6032 84.6002 74.2997 83.2637 72.6332 82.1307Z" fill="#FFC9B9"/>
<path d="M81.7747 80.8107C86.6587 78.9242 91.2457 77.6812 96.5697 76.6362C99.4847 76.0642 101.905 73.1822 101.212 69.9812C100.563 66.9672 102.9 65.1302 99.7267 64.8882C91.6857 64.2722 83.5897 67.5117 78.3262 69.4752C78.6397 73.3252 79.8277 77.2907 81.7747 80.8107Z" fill="#489663"/>
<path d="M78.1225 69.7007C78.5185 73.6112 79.745 77.3787 81.736 80.7667C82.0935 81.3772 83.023 80.7832 82.66 80.1727C80.7735 76.9497 79.5965 73.3582 79.2225 69.6402C79.151 68.9417 78.051 68.9912 78.1225 69.7007Z" fill="#5ABB7C"/>
<path d="M123.81 54.7516C125.856 53.8276 126.995 51.5836 126.78 49.4826C126.566 47.3871 125.169 45.4896 123.321 44.2521C121.478 43.0146 119.223 42.3821 116.968 42.0961C115.065 41.8541 113.107 41.8486 111.248 42.2996C110.308 42.5306 109.329 42.9266 108.85 43.7076C108.372 44.4886 108.696 45.7151 109.648 45.9131C108.856 45.7866 107.992 46.1936 107.646 46.8646C107.299 47.5356 107.492 48.4156 108.097 48.9051C107.178 48.8171 106.232 49.3231 105.853 50.1041C105.479 50.8851 105.704 51.8751 106.392 52.4416C105.457 52.7496 105.072 53.8496 105.281 54.7461C105.49 55.6426 106.133 56.3961 106.716 57.1386C108.19 59.0196 109.411 61.0766 110.33 63.2436C111.688 62.7596 112.97 62.0831 114.108 61.2471" fill="#3F2500"/>
<path d="M124.669 49.6869C123.481 49.4559 122.287 49.5329 121.083 49.6759C120.06 49.7969 116.925 50.4734 116.925 50.4734C116.177 52.6514 115.814 54.1034 114.054 55.5884C113.889 55.7314 113.702 55.8744 113.482 55.8799C113.19 55.8854 112.866 55.6654 112.585 55.5829C112.189 55.4674 111.804 55.3189 111.419 55.1704C110.215 54.7029 108.906 54.0484 107.729 54.9284C106.75 55.6599 106.491 57.1449 107.041 58.2339C107.597 59.3229 108.84 59.9774 110.061 59.9719C110.55 63.4424 110.451 64.7184 109.923 68.1834C110.528 69.8279 112.079 71.8849 113.52 72.3359C114.961 72.7869 116.589 72.7979 117.926 72.0939C118.003 70.3889 118.162 68.7224 118.509 67.0559C119.642 67.2484 120.857 67.3034 121.985 67.1109C122.414 67.0394 122.87 66.9239 123.156 66.5939C123.371 66.3464 123.459 66.0219 123.541 65.7029C124.856 60.6484 125.186 55.0109 124.658 49.6814L124.669 49.6869Z" fill="#FFC9B9"/>
<path d="M117.942 72.0933C118.019 70.3883 118.179 68.7218 118.525 67.0553C119.158 67.1598 119.818 67.2258 120.472 67.2258C118.998 66.9563 117.975 66.3898 116.776 66.0488C116.98 68.2598 117.623 72.2638 117.942 72.0933Z" fill="#FDA98F"/>
<path d="M109.824 56.545C109.456 56.193 109.016 55.9565 108.548 55.83C108.295 55.764 108.229 56.204 108.477 56.2755C108.895 56.3965 109.269 56.622 109.593 56.9465C109.747 57.1005 109.879 57.2765 109.995 57.4635C110.099 57.634 110.143 57.7825 110.308 57.887C110.396 57.942 110.517 57.8705 110.534 57.7605C110.589 57.315 110.105 56.8145 109.824 56.545Z" fill="#FDA98F"/>
<path d="M118.882 54.8625C118.893 54.67 118.921 54.4775 118.844 54.296C118.734 54.0375 118.393 53.9825 118.206 54.197C118.079 54.3455 118.046 54.5435 117.997 54.725C117.953 54.8955 117.925 55.055 117.92 55.231C117.892 55.8085 118.662 55.9295 118.805 55.3685C118.849 55.198 118.871 55.0385 118.882 54.8625Z" fill="#472C1F"/>
<path d="M124.382 54.4052C124.344 54.2182 124.322 54.0202 124.201 53.8662C124.025 53.6407 123.684 53.6737 123.557 53.9322C123.469 54.1082 123.486 54.3062 123.491 54.4987C123.491 54.6747 123.508 54.8397 123.546 55.0102C123.662 55.5767 124.443 55.4997 124.437 54.9167C124.437 54.7407 124.415 54.5812 124.382 54.4052Z" fill="#472C1F"/>
<path d="M118.332 63.6239C119.289 63.7064 120.169 64.0364 120.956 64.5919C121.165 64.7404 120.912 65.0484 120.708 64.8999C119.977 64.3829 119.163 64.0914 118.277 64.0144C118.024 63.9924 118.085 63.6019 118.338 63.6239H118.332Z" fill="#FDA98F"/>
<path d="M122.981 50.8027C123.663 50.3572 124.9 51.0337 125.241 51.6717C125.362 51.8917 125.104 52.2217 124.856 52.1502C124.526 52.0512 124.24 51.8642 123.916 51.7487C123.602 51.6387 123.206 51.6387 122.959 51.4022C122.794 51.2427 122.755 50.9457 122.975 50.8027H122.981Z" fill="#3F2500"/>
<path d="M117.051 51.5288C117.706 50.7423 119.169 50.5333 120.131 50.5993C120.588 50.6323 120.533 51.3088 120.115 51.3748C119.609 51.4573 119.119 51.5178 118.624 51.6773C118.206 51.8093 117.783 52.0238 117.343 52.0678C117.062 52.0953 116.859 51.7543 117.046 51.5288H117.051Z" fill="#3F2500"/>
<path d="M117.557 59.1631C119.152 60.0761 120.901 60.7306 122.705 61.0936C122.496 61.3796 122.336 61.6931 122.199 62.0231C120.582 61.7041 119.031 61.0936 117.727 60.1366C117.639 59.8176 117.584 59.4876 117.562 59.1631H117.557Z" fill="#F3F3F3"/>
<path d="M122.194 62.0232C122.045 62.3752 121.919 62.7382 121.787 63.0847C120.72 63.1397 119.642 62.7492 118.844 62.0342C118.289 61.5392 117.926 60.8627 117.728 60.1367C119.031 61.0937 120.582 61.7042 122.199 62.0232H122.194Z" fill="#B51C1C"/>
<path d="M109.972 67.8253C110.627 71.5433 114.295 73.5013 117.766 72.0383C118.349 71.7908 118.602 72.7423 118.03 72.9898C114.081 74.6508 109.769 72.3023 109.026 68.0893C108.916 67.4678 109.868 67.2038 109.978 67.8253H109.972Z" fill="#5ABB7C"/>
<path d="M127.149 40.8041C125.813 41.5136 124.487 42.2506 123.184 43.0261C123.112 42.9601 123.041 42.8941 122.969 42.8226C120.384 40.3421 116.545 39.2476 113.042 40.0011C109.544 40.7491 106.486 43.3176 105.144 46.6396C103.939 49.6261 103.983 53.4596 105.798 56.0556C105.732 56.1106 105.672 56.1711 105.606 56.2316C105.089 56.7211 105.842 57.5241 106.359 57.0346C109.599 53.9766 113.042 51.1441 116.661 48.5701C119.031 46.8761 121.473 45.2976 123.987 43.8291C125.202 43.1141 126.429 42.4321 127.677 41.7721C128.304 41.4421 127.776 40.4741 127.149 40.8041Z" fill="#489663"/>
<path d="M123.662 59.2178C123.211 57.6063 122.76 56.0003 122.309 54.3888C122.215 54.0478 121.676 54.1633 121.77 54.5043C122.193 56.0223 122.622 57.5458 123.046 59.0638C122.644 59.1463 122.243 59.2288 121.847 59.3113C121.5 59.3828 121.616 59.9218 121.962 59.8503C122.457 59.7513 122.952 59.6468 123.447 59.5478C123.585 59.5203 123.695 59.3608 123.656 59.2178H123.662Z" fill="#472C1F"/>
<path d="M121.374 42.9162C116.325 46.7937 111.276 50.6766 106.233 54.5541C105.672 54.9886 106.409 55.8026 106.97 55.3736C112.019 51.4961 117.068 47.6131 122.111 43.7356C122.672 43.3011 121.935 42.4872 121.374 42.9162Z" fill="#5ABB7C"/>
<path d="M154.385 96.9531H197.846L196.339 122.941H155.892L154.385 96.9531Z" fill="#36704A"/>
<path d="M196.339 122.941L197.846 130.416H154.385L155.892 122.941H196.339Z" fill="#489663"/>
<path d="M182.275 100.501V94.9186C182.275 91.7121 179.899 88.9071 176.709 88.6101C173.046 88.2636 169.961 91.1456 169.961 94.7371V100.501C169.961 100.776 169.735 101.002 169.46 101.002C169.185 101.002 168.96 100.776 168.96 100.501V94.9461C168.96 91.0961 171.913 87.7741 175.763 87.5871C179.877 87.3836 183.287 90.6726 183.287 94.7426V100.507C183.287 100.782 183.062 101.007 182.787 101.007C182.512 101.007 182.286 100.782 182.286 100.507L182.275 100.501Z" fill="#263238"/>
<path d="M178.892 90.2764C178.711 90.0069 178.782 89.6439 179.052 89.4679L181.323 87.9334C181.593 87.7519 181.956 87.8234 182.132 88.0929C182.313 88.3624 182.242 88.7254 181.972 88.9014L179.701 90.4359C179.431 90.6174 179.068 90.5459 178.892 90.2764Z" fill="#FFC9B9"/>
<path d="M179.63 91.3271C179.448 91.0576 179.52 90.6946 179.789 90.5186L182.061 88.9841C182.33 88.8026 182.693 88.8741 182.869 89.1436C183.051 89.4131 182.979 89.7761 182.71 89.9521L180.438 91.4866C180.169 91.6681 179.806 91.5966 179.63 91.3271Z" fill="#FFC9B9"/>
<path d="M180.614 92.4814C180.433 92.2119 180.504 91.8489 180.774 91.6729L183.045 90.1384C183.315 89.9569 183.678 90.0284 183.854 90.2979C184.035 90.5674 183.964 90.9304 183.694 91.1064L181.423 92.6409C181.153 92.8224 180.79 92.7509 180.614 92.4814Z" fill="#FFC9B9"/>
<path d="M181.345 93.4612C181.164 93.1917 181.235 92.8287 181.505 92.6527L183.479 91.3162C183.749 91.1347 184.112 91.2062 184.288 91.4757C184.469 91.7452 184.398 92.1082 184.128 92.2842L182.154 93.6207C181.884 93.8022 181.521 93.7307 181.345 93.4612Z" fill="#FFC9B9"/>
<path d="M88.6761 177.776C85.2991 167.359 81.9221 156.942 78.5451 146.525C78.1106 145.188 75.9711 145.694 76.4056 147.047C79.7826 157.464 83.1596 167.881 86.5366 178.298C86.9711 179.635 89.1106 179.129 88.6761 177.776Z" fill="#00CF46"/>
<path d="M77.0594 141.025L75.6459 137.098C75.5469 136.817 75.4204 136.586 75.1619 136.427C74.9309 136.284 74.5844 136.212 74.3204 136.289C73.7979 136.443 73.3029 137.037 73.5119 137.62C73.9849 138.929 74.4524 140.238 74.9254 141.547C75.0244 141.828 75.1509 142.059 75.4094 142.218C75.6404 142.361 75.9869 142.433 76.2509 142.356C76.7734 142.202 77.2684 141.608 77.0594 141.025Z" fill="#00CF46"/>
<path d="M66.9238 108.459C65.6038 104.064 64.2838 99.6643 62.9583 95.2698C62.5513 93.9223 60.4118 94.4283 60.8188 95.7923C62.1388 100.187 63.4588 104.587 64.7843 108.981C65.1913 110.329 67.3308 109.823 66.9238 108.459Z" fill="#00CF46"/>
<path d="M176.902 89.9681C177.232 89.6821 177.27 89.176 176.979 88.8461L174.531 86.0245C174.245 85.6945 173.739 85.656 173.409 85.9475C173.079 86.2335 173.041 86.7395 173.332 87.0695L175.78 89.891C176.066 90.221 176.572 90.2596 176.902 89.9681Z" fill="#FFC9B9"/>
<path d="M174.878 91.0022C175.208 90.7162 175.247 90.2102 174.955 89.8802L172.508 87.0587C172.222 86.7287 171.716 86.6902 171.386 86.9817C171.056 87.2677 171.017 87.7737 171.309 88.1037L173.756 90.9252C174.042 91.2552 174.548 91.2937 174.878 91.0022Z" fill="#FFC9B9"/>
<path d="M173.178 92.1731C173.508 91.8871 173.547 91.3811 173.255 91.0511L170.808 88.2296C170.522 87.8996 170.016 87.8611 169.686 88.1526C169.356 88.4386 169.317 88.9446 169.609 89.2746L172.056 92.0961C172.342 92.4261 172.848 92.4646 173.178 92.1731Z" fill="#FFC9B9"/>
<path d="M171.87 93.2079C172.2 92.9219 172.238 92.4159 171.947 92.0859L169.813 89.6329C169.527 89.3029 169.021 89.2644 168.691 89.5559C168.361 89.8419 168.322 90.3479 168.614 90.6779L170.748 93.1309C171.034 93.4609 171.54 93.4994 171.87 93.2079Z" fill="#FFC9B9"/>
</g>
<defs>
<clipPath id="clip0_8527_474">
<rect width="275" height="200" fill="white"/>
</clipPath>
</defs>
</svg>
