<svg width="21" height="26" viewBox="0 0 21 26" fill="none" xmlns="http://www.w3.org/2000/svg">
<path d="M2.50236 3.66602V22.4187H16.3042V3.66602H14.2059V5.52633C14.2059 5.89406 13.9167 6.19301 13.5602 6.19301H5.31663C4.96094 6.19301 4.67179 5.89406 4.67179 5.52633V3.66602H2.50195H2.50236ZM10.502 15.8844H4.2278V14.8704H10.502V15.8844ZM14.7291 19.6152H13.4493V20.9392H12.3408V19.6152H11.0602V18.4691H12.3408V17.146H13.4493V18.4691H14.7291V19.6152ZM14.7291 13.5485H4.2278V12.5345H14.7291V13.5485ZM14.7291 11.213H4.2278V10.199H14.7291V11.213ZM14.7291 7.86266V8.87669H4.2278V7.86266H14.7291Z" fill="white"/>
<path d="M13.5615 0.895508H5.31795C4.96226 0.895508 4.67311 1.19402 4.67311 1.56261V2.07217H1.3167C0.956906 2.07217 0.664062 2.37408 0.664062 2.74691V23.4698C0.664062 23.8422 0.956906 24.1446 1.3167 24.1446H17.4248C17.7854 24.1446 18.0782 23.8418 18.0782 23.4698V2.74691C18.0782 2.37366 17.7854 2.07217 17.4248 2.07217H14.2072V1.56261C14.2072 1.19402 13.918 0.895508 13.5615 0.895508ZM5.96319 2.89086H12.9167V4.85946H5.96319V2.89086ZM16.3052 3.66666V22.4193H2.50327V3.66666H4.67311V5.52698C4.67311 5.89471 4.96185 6.19365 5.31795 6.19365H13.5615C13.918 6.19365 14.2072 5.89471 14.2072 5.52698V3.66666H16.3056H16.3052Z" fill="#616E7D"/>
<path d="M14.7298 7.86328H4.22852V8.8773H14.7298V7.86328Z" fill="#03C777"/>
<path d="M14.7298 10.1992H4.22852V11.2132H14.7298V10.1992Z" fill="#03C777"/>
<path d="M14.7298 12.5352H4.22852V13.5492H14.7298V12.5352Z" fill="#03C777"/>
<path d="M10.5027 14.8711H4.22852V15.8851H10.5027V14.8711Z" fill="#03C777"/>
<path d="M5.50956 17.2061V18.5292H4.22852V19.6749H5.50956V20.9993H6.61768V19.6749H7.8979V18.5292H6.61768V17.2061H5.50956Z" fill="#EF0101"/>
<path d="M12.9184 2.89062H5.96484V4.85922H12.9184V2.89062Z" fill="#03C777"/>
<ellipse cx="15.5828" cy="20.6369" rx="5.08084" ry="5.25894" fill="#F4C005"/>
<path d="M13.8047 22.7406H17.3613V22.2147H13.8047V22.7406ZM13.8047 20.1111H14.8209V21.6888H16.3451V20.1111H17.3613L15.583 18.2705L13.8047 20.1111Z" fill="white"/>
</svg>
