<svg width="200" height="170" viewBox="0 0 200 170" fill="none" xmlns="http://www.w3.org/2000/svg">
<rect width="200" height="170" fill="white"/>
<path d="M171.382 3.84978L135.542 11.7886C134.078 12.113 133.154 13.5632 133.478 15.0277L140.947 48.7464C141.271 50.2109 142.722 51.1351 144.186 50.8107L180.025 42.8719C181.49 42.5475 182.414 41.0973 182.09 39.6328L174.621 5.91412C174.296 4.44961 172.846 3.52538 171.382 3.84978Z" fill="#EBEBEB"/>
<path d="M165.976 31.6798C165.976 31.6798 165.884 31.7118 165.704 31.7598C165.508 31.8078 165.244 31.8718 164.912 31.9558C164.204 32.1198 163.204 32.3558 161.972 32.6438C159.46 33.2158 155.988 34.0038 152.084 34.8918L152.004 34.9118L151.976 34.8358C151.784 34.3278 151.584 33.7918 151.38 33.2478C149.648 28.5958 148.104 24.4438 147.092 21.7278L147.16 21.7638C146.044 22.0038 145.152 22.1918 144.52 22.3278C144.224 22.3878 143.992 22.4358 143.816 22.4678C143.656 22.4998 143.572 22.5118 143.572 22.5038C143.572 22.4998 143.652 22.4758 143.812 22.4318C143.984 22.3878 144.216 22.3318 144.508 22.2598C145.136 22.1118 146.024 21.9038 147.136 21.6438L147.188 21.6318L147.208 21.6798C148.232 24.3878 149.804 28.5318 151.56 33.1758C151.764 33.7198 151.964 34.2558 152.156 34.7638L152.048 34.7038C155.956 33.8398 159.432 33.0718 161.948 32.5158C163.188 32.2518 164.192 32.0358 164.904 31.8838C165.24 31.8158 165.504 31.7638 165.704 31.7238C165.888 31.6878 165.984 31.6718 165.984 31.6798H165.976Z" fill="#FAFAFA"/>
<path d="M151.012 32.0041C151.012 32.0041 151.036 31.9921 151.08 31.9801C151.136 31.9641 151.2 31.9481 151.284 31.9281C151.476 31.8801 151.74 31.8161 152.076 31.7361C152.784 31.5721 153.788 31.3361 155.048 31.0441C157.604 30.4641 161.176 29.6521 165.308 28.7121L165.236 28.8041C165.152 27.0081 165.064 25.0641 164.972 23.0521C164.924 22.0161 164.88 21.0001 164.836 20.0321L164.952 20.1201C160.144 21.1841 155.9 22.1241 152.84 22.8001C151.328 23.1281 150.108 23.3921 149.252 23.5761C148.84 23.6601 148.516 23.7281 148.284 23.7761C148.18 23.7961 148.1 23.8121 148.032 23.8241C147.976 23.8321 147.944 23.8361 147.944 23.8361C147.944 23.8361 147.972 23.8241 148.028 23.8081C148.092 23.7921 148.176 23.7681 148.276 23.7441C148.508 23.6881 148.828 23.6121 149.236 23.5121C150.088 23.3121 151.304 23.0321 152.812 22.6801C155.868 21.9881 160.104 21.0281 164.908 19.9361L165.02 19.9121V20.0241C165.068 20.9921 165.116 22.0081 165.164 23.0441C165.256 25.0561 165.34 26.9961 165.42 28.7961V28.8721L165.348 28.8881C161.208 29.8001 157.628 30.5921 155.072 31.1561C153.808 31.4281 152.796 31.6441 152.088 31.7961C151.748 31.8641 151.484 31.9201 151.288 31.9601C151.204 31.9761 151.136 31.9881 151.08 32.0001C151.032 32.0081 151.008 32.0121 151.008 32.0081L151.012 32.0041Z" fill="#FAFAFA"/>
<path d="M156.385 37.7962C156.385 37.7962 156.341 37.6762 156.233 37.4842C156.129 37.2962 155.917 37.0322 155.561 36.8762C155.213 36.7162 154.701 36.7042 154.277 36.9842C153.853 37.2482 153.565 37.8282 153.697 38.4002C153.821 38.9762 154.329 39.3762 154.825 39.4362C155.329 39.5082 155.785 39.2762 156.033 38.9842C156.289 38.6922 156.369 38.3642 156.381 38.1482C156.397 37.9282 156.369 37.8042 156.385 37.8002C156.393 37.8002 156.445 37.9162 156.453 38.1522C156.461 38.3802 156.401 38.7402 156.133 39.0762C155.877 39.4082 155.373 39.6882 154.797 39.6162C154.233 39.5602 153.645 39.1042 153.505 38.4482C153.353 37.7922 153.689 37.1322 154.177 36.8402C154.665 36.5322 155.241 36.5682 155.613 36.7602C155.997 36.9482 156.205 37.2482 156.297 37.4562C156.389 37.6722 156.393 37.8002 156.385 37.8042V37.7962Z" fill="#FAFAFA"/>
<path d="M165.341 35.7884C165.341 35.7884 165.297 35.6684 165.189 35.4764C165.085 35.2884 164.873 35.0244 164.517 34.8684C164.169 34.7084 163.657 34.6964 163.233 34.9764C162.809 35.2404 162.521 35.8204 162.653 36.3924C162.777 36.9684 163.285 37.3684 163.781 37.4284C164.285 37.5004 164.741 37.2684 164.989 36.9764C165.245 36.6844 165.325 36.3564 165.337 36.1404C165.353 35.9204 165.325 35.7964 165.341 35.7924C165.349 35.7924 165.401 35.9084 165.409 36.1444C165.417 36.3724 165.357 36.7324 165.089 37.0684C164.833 37.4004 164.329 37.6804 163.753 37.6084C163.189 37.5524 162.601 37.0964 162.461 36.4404C162.309 35.7844 162.645 35.1244 163.133 34.8324C163.621 34.5244 164.197 34.5604 164.569 34.7524C164.953 34.9404 165.161 35.2404 165.253 35.4484C165.345 35.6644 165.349 35.7924 165.341 35.7964V35.7884Z" fill="#FAFAFA"/>
<path d="M167.825 17.9002C168.317 20.0922 166.937 22.2682 164.745 22.7602C162.553 23.2522 160.377 21.8722 159.885 19.6802C159.393 17.4882 160.773 15.3122 162.965 14.8202C165.157 14.3282 167.333 15.7082 167.825 17.9002Z" fill="#FAFAFA"/>
<path d="M165.676 16.8247C165.7 16.8367 165.556 17.1247 165.304 17.5807C165.052 18.0367 164.696 18.6567 164.292 19.3367C164.14 19.5887 163.996 19.8327 163.856 20.0607L163.812 20.1367L163.736 20.0927C162.708 19.5247 161.98 19.0887 162 19.0527C162.02 19.0167 162.784 19.3847 163.824 19.9327L163.704 19.9647C163.84 19.7367 163.984 19.4887 164.132 19.2367C164.536 18.5567 164.912 17.9487 165.192 17.5087C165.472 17.0687 165.656 16.8087 165.68 16.8207L165.676 16.8247Z" fill="#E0E0E0"/>
<path d="M28.9124 63.7523C28.1764 61.1403 24.7764 61.3923 24.7764 61.3923L24.8684 63.2083C26.8324 62.8683 28.0524 65.1723 28.0524 65.1723L28.9084 63.7523H28.9124Z" fill="#E0E0E0"/>
<path d="M78.7927 33.5764C82.7327 34.7684 85.1847 30.2244 85.1847 30.2244L82.7887 28.8564C81.6167 31.6404 77.6807 31.3164 77.6807 31.3164L78.7927 33.5724V33.5764Z" fill="#E0E0E0"/>
<path d="M111.496 57.9726C110.732 55.8006 107.872 56.1926 107.872 56.1926L108.048 57.7246C109.692 57.3326 110.844 59.2166 110.844 59.2166L111.496 57.9686V57.9726Z" fill="#E0E0E0"/>
<path d="M66.3047 7.07222C65.5407 4.90022 62.6807 5.29222 62.6807 5.29222L62.8567 6.82422C64.5007 6.43222 65.6527 8.31622 65.6527 8.31622L66.3047 7.06822V7.07222Z" fill="#E0E0E0"/>
<path d="M32.1679 34.8759C31.4039 32.7039 28.5439 33.0959 28.5439 33.0959L28.7199 34.6279C30.3639 34.2359 31.5159 36.1199 31.5159 36.1199L32.1679 34.8719V34.8759Z" fill="#EBEBEB"/>
<path d="M24.9962 14.5645C22.7242 14.9365 22.6162 17.8245 22.6162 17.8245L24.1562 17.9205C24.0562 16.2325 26.1122 15.4245 26.1122 15.4245L24.9962 14.5685V14.5645Z" fill="#EBEBEB"/>
<path d="M8.63641 82.1564C12.5764 83.3484 15.0284 78.8044 15.0284 78.8044L12.6324 77.4404C11.4604 80.2244 7.52441 79.9004 7.52441 79.9004L8.63641 82.1564Z" fill="#EBEBEB"/>
<path d="M120.88 33.8287C121.148 32.0047 118.972 31.2207 118.972 31.2207L118.528 32.3727C119.84 32.7047 119.96 34.4727 119.96 34.4727L120.884 33.8287H120.88Z" fill="#E0E0E0"/>
<path d="M107.781 13.7881C106.245 14.8081 107.112 16.9521 107.112 16.9521L108.269 16.5161C107.641 15.3161 108.877 14.0521 108.877 14.0521L107.781 13.7921V13.7881Z" fill="#EBEBEB"/>
<path d="M174.432 54.6279L169.116 70.2919L184.844 73.4199L185.752 56.8759L174.432 54.6279Z" fill="#F5F5F5"/>
<path d="M184.008 58.9562C184.008 58.9562 183.98 59.1322 183.832 59.4042C183.684 59.6762 183.436 60.0602 183.04 60.4562C182.644 60.8522 182.088 61.2562 181.372 61.4962C180.66 61.7402 179.812 61.7842 178.972 61.6162C178.132 61.4562 177.352 61.1162 176.776 60.6282C176.192 60.1482 175.848 59.5402 175.648 59.0162C175.452 58.4882 175.392 58.0362 175.376 57.7242C175.364 57.4122 175.392 57.2402 175.412 57.2442C175.464 57.2362 175.424 57.9402 175.84 58.9362C176.052 59.4242 176.396 59.9802 176.948 60.4162C177.492 60.8602 178.22 61.1682 179.024 61.3202C179.824 61.4802 180.62 61.4442 181.288 61.2282C181.96 61.0202 182.496 60.6562 182.896 60.2962C183.688 59.5642 183.968 58.9202 184.008 58.9442V58.9562Z" fill="white"/>
<path d="M189.628 167.668C189.628 167.724 148.6 167.772 98.0041 167.772C47.4081 167.772 6.37207 167.724 6.37207 167.668C6.37207 167.612 47.3921 167.564 98.0041 167.564C148.616 167.564 189.628 167.612 189.628 167.668Z" fill="#263238"/>
<path d="M110.644 44.3359H13.1035V120.696H110.644V44.3359Z" fill="#FAFAFA"/>
<path d="M110.644 120.692C110.644 119.976 110.608 90.3995 110.556 44.3315L110.644 44.4195C82.848 44.4235 49.268 44.4315 13.112 44.4355H13.104L13.208 44.3315C13.208 71.8675 13.2 97.9035 13.196 120.692L13.104 120.6C71.008 120.656 109.824 120.692 110.644 120.692C109.824 120.692 71.008 120.732 13.104 120.784H13.012V120.692C13.012 97.9075 13.004 71.8675 13 44.3315V44.2275H13.104H13.112C49.268 44.2355 82.848 44.2395 110.644 44.2435H110.732V44.3315C110.68 90.3955 110.648 119.972 110.644 120.692Z" fill="#263238"/>
<path d="M31.5598 81.316V82.584H30.7318V81.304L29.3438 79H30.2237L31.1797 80.592L32.1357 79H32.9517L31.5598 81.316Z" fill="#263238"/>
<path d="M32.7314 81.42C32.7314 80.592 33.3714 80 34.2474 80C35.1234 80 35.7594 80.588 35.7594 81.42C35.7594 82.252 35.1234 82.84 34.2474 82.84C33.3714 82.84 32.7314 82.252 32.7314 81.42ZM34.9514 81.42C34.9514 80.944 34.6474 80.656 34.2514 80.656C33.8554 80.656 33.5434 80.944 33.5434 81.42C33.5434 81.896 33.8514 82.184 34.2514 82.184C34.6514 82.184 34.9514 81.896 34.9514 81.42Z" fill="#263238"/>
<path d="M39.0673 80.004V82.76H38.3113V82.432C38.1033 82.672 37.7953 82.8 37.4553 82.8C36.7633 82.8 36.2793 82.412 36.2793 81.56V80.004H37.0793V81.444C37.0793 81.904 37.2833 82.108 37.6393 82.108C37.9953 82.108 38.2753 81.872 38.2753 81.364V80H39.0753L39.0673 80.004Z" fill="#263238"/>
<path d="M41.5157 80.004V80.74C41.4477 80.736 41.3997 80.728 41.3357 80.728C40.8957 80.728 40.6037 80.968 40.6037 81.496V82.796H39.8037V80.04H40.5677V80.404C40.7637 80.136 41.0917 80 41.5157 80V80.004Z" fill="#263238"/>
<path d="M43.292 80.852C43.292 79.788 44.12 79 45.252 79C46.384 79 47.212 79.784 47.212 80.852C47.212 81.92 46.376 82.704 45.252 82.704C44.128 82.704 43.292 81.916 43.292 80.852ZM46.376 80.852C46.376 80.172 45.896 79.704 45.256 79.704C44.616 79.704 44.136 80.168 44.136 80.852C44.136 81.536 44.616 82 45.256 82C45.896 82 46.376 81.536 46.376 80.852Z" fill="#263238"/>
<path d="M49.4913 80.004V80.74C49.4233 80.736 49.3753 80.728 49.3113 80.728C48.8713 80.728 48.5793 80.968 48.5793 81.496V82.796H47.7793V80.04H48.5433V80.404C48.7393 80.136 49.0673 80 49.4913 80V80.004Z" fill="#263238"/>
<path d="M52.748 79V82.8H51.984V82.484C51.784 82.724 51.492 82.844 51.124 82.844C50.344 82.844 49.748 82.292 49.748 81.424C49.748 80.556 50.348 80.004 51.124 80.004C51.464 80.004 51.748 80.112 51.948 80.336V79H52.748ZM51.964 81.424C51.964 80.948 51.656 80.66 51.264 80.66C50.872 80.66 50.556 80.948 50.556 81.424C50.556 81.9 50.864 82.188 51.264 82.188C51.664 82.188 51.964 81.9 51.964 81.424Z" fill="#263238"/>
<path d="M56.1673 81.652H54.0833C54.1593 81.996 54.4513 82.204 54.8713 82.204C55.1633 82.204 55.3713 82.116 55.5633 81.936L55.9873 82.396C55.7313 82.688 55.3473 82.84 54.8513 82.84C53.8993 82.84 53.2793 82.24 53.2793 81.42C53.2793 80.6 53.9073 80 54.7473 80C55.5873 80 56.1793 80.544 56.1793 81.428C56.1793 81.488 56.1673 81.576 56.1633 81.644L56.1673 81.652ZM54.0713 81.184H55.4273C55.3713 80.836 55.1113 80.612 54.7513 80.612C54.3913 80.612 54.1273 80.832 54.0713 81.184Z" fill="#263238"/>
<path d="M58.4239 80.004V80.74C58.3559 80.736 58.3079 80.728 58.2439 80.728C57.8039 80.728 57.5119 80.968 57.5119 81.496V82.796H56.7119V80.04H57.4759V80.404C57.6719 80.136 57.9999 80 58.4239 80V80.004Z" fill="#263238"/>
<path d="M60.2715 79.444C60.2715 79.192 60.4715 79 60.7675 79C61.0635 79 61.2635 79.184 61.2635 79.432C61.2635 79.7 61.0635 79.892 60.7675 79.892C60.4715 79.892 60.2715 79.696 60.2715 79.448V79.444ZM60.3675 80.272H61.1675V83.028H60.3675V80.272Z" fill="#263238"/>
<path d="M61.6436 82.54L61.9116 81.968C62.1556 82.128 62.5316 82.236 62.8676 82.236C63.2356 82.236 63.3756 82.14 63.3756 81.984C63.3756 81.532 61.7116 81.996 61.7116 80.892C61.7116 80.368 62.1836 80 62.9876 80C63.3676 80 63.7876 80.088 64.0476 80.24L63.7796 80.808C63.5076 80.656 63.2356 80.604 62.9876 80.604C62.6276 80.604 62.4756 80.716 62.4756 80.86C62.4756 81.332 64.1396 80.876 64.1396 81.96C64.1396 82.472 63.6636 82.836 62.8396 82.836C62.3756 82.836 61.9036 82.708 61.6476 82.54H61.6436Z" fill="#263238"/>
<path d="M69.0056 80.4936C69.0056 80.6877 68.9588 80.8697 68.8652 81.0396C68.7751 81.2095 68.6312 81.3464 68.4336 81.4504C68.2395 81.5544 67.9933 81.6064 67.6952 81.6064H67.0868V83H66.3588V79.3704H67.6952C67.976 79.3704 68.2152 79.4189 68.4128 79.516C68.6104 79.6131 68.7577 79.7465 68.8548 79.9164C68.9553 80.0863 69.0056 80.2787 69.0056 80.4936ZM67.664 81.0188C67.8651 81.0188 68.0141 80.9737 68.1112 80.8836C68.2083 80.79 68.2568 80.66 68.2568 80.4936C68.2568 80.14 68.0592 79.9632 67.664 79.9632H67.0868V81.0188H67.664ZM70.2505 79.152V83H69.5225V79.152H70.2505ZM70.7825 81.5492C70.7825 81.258 70.8397 80.9997 70.9541 80.7744C71.072 80.5491 71.2297 80.3757 71.4273 80.2544C71.6284 80.1331 71.852 80.0724 72.0981 80.0724C72.3131 80.0724 72.5003 80.1157 72.6597 80.2024C72.8227 80.2891 72.9527 80.3983 73.0497 80.53V80.1192H73.7829V83H73.0497V82.5788C72.9561 82.714 72.8261 82.8267 72.6597 82.9168C72.4968 83.0035 72.3079 83.0468 72.0929 83.0468C71.8503 83.0468 71.6284 82.9844 71.4273 82.8596C71.2297 82.7348 71.072 82.5597 70.9541 82.3344C70.8397 82.1056 70.7825 81.8439 70.7825 81.5492ZM73.0497 81.5596C73.0497 81.3828 73.0151 81.232 72.9457 81.1072C72.8764 80.9789 72.7828 80.8819 72.6649 80.816C72.5471 80.7467 72.4205 80.712 72.2853 80.712C72.1501 80.712 72.0253 80.7449 71.9109 80.8108C71.7965 80.8767 71.7029 80.9737 71.6301 81.102C71.5608 81.2268 71.5261 81.3759 71.5261 81.5492C71.5261 81.7225 71.5608 81.8751 71.6301 82.0068C71.7029 82.1351 71.7965 82.2339 71.9109 82.3032C72.0288 82.3725 72.1536 82.4072 72.2853 82.4072C72.4205 82.4072 72.5471 82.3743 72.6649 82.3084C72.7828 82.2391 72.8764 82.142 72.9457 82.0172C73.0151 81.8889 73.0497 81.7364 73.0497 81.5596ZM74.3068 81.5596C74.3068 81.2615 74.3674 81.0015 74.4888 80.7796C74.6101 80.5543 74.7782 80.3809 74.9932 80.2596C75.2081 80.1348 75.4542 80.0724 75.7316 80.0724C76.0886 80.0724 76.3833 80.1625 76.6156 80.3428C76.8513 80.5196 77.009 80.7692 77.0888 81.0916H76.3036C76.262 80.9668 76.1909 80.8697 76.0904 80.8004C75.9933 80.7276 75.872 80.6912 75.7264 80.6912C75.5184 80.6912 75.3537 80.7675 75.2324 80.92C75.111 81.0691 75.0504 81.2823 75.0504 81.5596C75.0504 81.8335 75.111 82.0467 75.2324 82.1992C75.3537 82.3483 75.5184 82.4228 75.7264 82.4228C76.021 82.4228 76.2134 82.2911 76.3036 82.0276H77.0888C77.009 82.3396 76.8513 82.5875 76.6156 82.7712C76.3798 82.9549 76.0852 83.0468 75.7316 83.0468C75.4542 83.0468 75.2081 82.9861 74.9932 82.8648C74.7782 82.74 74.6101 82.5667 74.4888 82.3448C74.3674 82.1195 74.3068 81.8577 74.3068 81.5596ZM80.3001 81.4972C80.3001 81.6012 80.2931 81.6948 80.2793 81.778H78.1733C78.1906 81.986 78.2634 82.1489 78.3917 82.2668C78.5199 82.3847 78.6777 82.4436 78.8649 82.4436C79.1353 82.4436 79.3277 82.3275 79.4421 82.0952H80.2273C80.1441 82.3725 79.9846 82.6013 79.7489 82.7816C79.5131 82.9584 79.2237 83.0468 78.8805 83.0468C78.6031 83.0468 78.3535 82.9861 78.1317 82.8648C77.9133 82.74 77.7417 82.5649 77.6169 82.3396C77.4955 82.1143 77.4349 81.8543 77.4349 81.5596C77.4349 81.2615 77.4955 80.9997 77.6169 80.7744C77.7382 80.5491 77.9081 80.3757 78.1265 80.2544C78.3449 80.1331 78.5962 80.0724 78.8805 80.0724C79.1543 80.0724 79.3987 80.1313 79.6137 80.2492C79.8321 80.3671 80.0002 80.5352 80.1181 80.7536C80.2394 80.9685 80.3001 81.2164 80.3001 81.4972ZM79.5461 81.2892C79.5426 81.102 79.475 80.9529 79.3433 80.842C79.2115 80.7276 79.0503 80.6704 78.8597 80.6704C78.6794 80.6704 78.5269 80.7259 78.4021 80.8368C78.2807 80.9443 78.2062 81.0951 78.1785 81.2892H79.5461ZM80.6443 81.5492C80.6443 81.258 80.7015 80.9997 80.8159 80.7744C80.9337 80.5491 81.0932 80.3757 81.2943 80.2544C81.4953 80.1331 81.7189 80.0724 81.9651 80.0724C82.1523 80.0724 82.3308 80.114 82.5007 80.1972C82.6705 80.2769 82.8057 80.3844 82.9063 80.5196V79.152H83.6447V83H82.9063V82.5736C82.8161 82.7157 82.6896 82.8301 82.5267 82.9168C82.3637 83.0035 82.1748 83.0468 81.9599 83.0468C81.7172 83.0468 81.4953 82.9844 81.2943 82.8596C81.0932 82.7348 80.9337 82.5597 80.8159 82.3344C80.7015 82.1056 80.6443 81.8439 80.6443 81.5492ZM82.9115 81.5596C82.9115 81.3828 82.8768 81.232 82.8075 81.1072C82.7381 80.9789 82.6445 80.8819 82.5267 80.816C82.4088 80.7467 82.2823 80.712 82.1471 80.712C82.0119 80.712 81.8871 80.7449 81.7727 80.8108C81.6583 80.8767 81.5647 80.9737 81.4919 81.102C81.4225 81.2268 81.3879 81.3759 81.3879 81.5492C81.3879 81.7225 81.4225 81.8751 81.4919 82.0068C81.5647 82.1351 81.6583 82.2339 81.7727 82.3032C81.8905 82.3725 82.0153 82.4072 82.1471 82.4072C82.2823 82.4072 82.4088 82.3743 82.5267 82.3084C82.6445 82.2391 82.7381 82.142 82.8075 82.0172C82.8768 81.8889 82.9115 81.7364 82.9115 81.5596ZM85.2969 79.308L85.2137 81.8196H84.6001L84.5117 79.308H85.2969ZM84.9225 83.0364C84.7907 83.0364 84.6815 82.9965 84.5949 82.9168C84.5117 82.8336 84.4701 82.7313 84.4701 82.61C84.4701 82.4887 84.5117 82.3881 84.5949 82.3084C84.6815 82.2252 84.7907 82.1836 84.9225 82.1836C85.0507 82.1836 85.1565 82.2252 85.2397 82.3084C85.3229 82.3881 85.3645 82.4887 85.3645 82.61C85.3645 82.7313 85.3229 82.8336 85.2397 82.9168C85.1565 82.9965 85.0507 83.0364 84.9225 83.0364Z" fill="#263238"/>
<path d="M37.2364 87.9358H36.0684V87.6318H38.7604V87.9358H37.5924V90.9598H37.2404V87.9358H37.2364Z" fill="#263238"/>
<path d="M41.548 89.5116V90.9596H41.212V89.5436C41.212 89.0156 40.936 88.7436 40.46 88.7436C39.924 88.7436 39.584 89.0756 39.584 89.6476V90.9596H39.248V87.4316H39.584V88.8956C39.768 88.6036 40.096 88.4396 40.52 88.4396C41.128 88.4396 41.548 88.7916 41.548 89.5076V89.5116Z" fill="#263238"/>
<path d="M44.3528 89.4113V90.9633H44.0288V90.5753C43.8768 90.8313 43.5808 90.9873 43.1688 90.9873C42.6048 90.9873 42.2568 90.6913 42.2568 90.2593C42.2568 89.8753 42.5048 89.5513 43.2208 89.5513H44.0128V89.3993C44.0128 88.9713 43.7688 88.7393 43.3048 88.7393C42.9808 88.7393 42.6768 88.8553 42.4728 89.0353L42.3208 88.7833C42.5728 88.5713 42.9448 88.4473 43.3368 88.4473C43.9848 88.4473 44.3488 88.7713 44.3488 89.4153L44.3528 89.4113ZM44.0168 90.2073V89.7993H43.2328C42.7488 89.7993 42.5928 89.9913 42.5928 90.2473C42.5928 90.5393 42.8248 90.7193 43.2248 90.7193C43.6248 90.7193 43.8848 90.5393 44.0168 90.2113V90.2073Z" fill="#263238"/>
<path d="M47.5725 89.5115V90.9594H47.2365V89.5434C47.2365 89.0154 46.9605 88.7434 46.4845 88.7434C45.9485 88.7434 45.6085 89.0754 45.6085 89.6474V90.9594H45.2725V88.4594H45.5965V88.9194C45.7765 88.6154 46.1165 88.4395 46.5485 88.4395C47.1565 88.4395 47.5765 88.7914 47.5765 89.5074L47.5725 89.5115Z" fill="#263238"/>
<path d="M49.4162 89.7037L48.8282 90.2437V90.9557H48.4922V87.4277H48.8282V89.8197L50.3202 88.4557H50.7402L49.6722 89.4797L50.8402 90.9597H50.4282L49.4202 89.7037H49.4162Z" fill="#263238"/>
<path d="M50.9199 90.6755L51.0719 90.4074C51.2719 90.5634 51.6079 90.6875 51.9599 90.6875C52.4359 90.6875 52.6319 90.5275 52.6319 90.2795C52.6319 89.6275 51.0119 90.1435 51.0119 89.1515C51.0119 88.7435 51.3639 88.4395 51.9999 88.4395C52.3239 88.4395 52.6759 88.5314 52.8839 88.6714L52.7359 88.9434C52.5159 88.7914 52.2559 88.7314 51.9999 88.7314C51.5479 88.7314 51.3479 88.9074 51.3479 89.1434C51.3479 89.8194 52.9679 89.3114 52.9679 90.2714C52.9679 90.7034 52.5879 90.9834 51.9359 90.9834C51.5239 90.9834 51.1239 90.8515 50.9199 90.6755Z" fill="#263238"/>
<path d="M55.2602 87.9358V89.2438H56.9802V89.5478H55.2602V90.9598H54.9082V87.6318H57.1922V87.9358H55.2602Z" fill="#263238"/>
<path d="M57.5088 89.7114C57.5088 88.9714 58.0488 88.4434 58.7848 88.4434C59.5208 88.4434 60.0528 88.9714 60.0528 89.7114C60.0528 90.4514 59.5168 90.9874 58.7848 90.9874C58.0528 90.9874 57.5088 90.4554 57.5088 89.7114ZM59.7088 89.7114C59.7088 89.1274 59.3128 88.7354 58.7808 88.7354C58.2488 88.7354 57.8488 89.1234 57.8488 89.7114C57.8488 90.2994 58.2488 90.6874 58.7808 90.6874C59.3128 90.6874 59.7088 90.2994 59.7088 89.7114Z" fill="#263238"/>
<path d="M62.0001 88.4395V88.7675C61.9721 88.7675 61.9441 88.7635 61.9201 88.7635C61.3961 88.7635 61.0801 89.0955 61.0801 89.6875V90.9635H60.7441V88.4635H61.0681V88.9515C61.2241 88.6195 61.5441 88.4434 62.0041 88.4434L62.0001 88.4395Z" fill="#263238"/>
<path d="M65.1048 89.8117V90.9637H64.7568V89.8117L63.4248 87.6357H63.8008L64.9408 89.5037L66.0808 87.6357H66.4328L65.1008 89.8117H65.1048Z" fill="#263238"/>
<path d="M66.3721 89.7114C66.3721 88.9714 66.9121 88.4434 67.6481 88.4434C68.3841 88.4434 68.9161 88.9714 68.9161 89.7114C68.9161 90.4514 68.3801 90.9874 67.6481 90.9874C66.9161 90.9874 66.3721 90.4554 66.3721 89.7114ZM68.5721 89.7114C68.5721 89.1274 68.1761 88.7354 67.6441 88.7354C67.1121 88.7354 66.7121 89.1234 66.7121 89.7114C66.7121 90.2994 67.1121 90.6874 67.6441 90.6874C68.1761 90.6874 68.5721 90.2994 68.5721 89.7114Z" fill="#263238"/>
<path d="M71.8601 88.46V90.96H71.5361V90.504C71.3601 90.808 71.0361 90.984 70.6361 90.984C70.0001 90.984 69.5801 90.628 69.5801 89.908V88.46H69.9161V89.876C69.9161 90.408 70.1921 90.68 70.6681 90.68C71.1921 90.68 71.5201 90.344 71.5201 89.772V88.46H71.8561H71.8601Z" fill="#263238"/>
<path d="M74.0646 88.4395V88.7675C74.0366 88.7675 74.0086 88.7635 73.9846 88.7635C73.4606 88.7635 73.1446 89.0955 73.1446 89.6875V90.9635H72.8086V88.4635H73.1326V88.9515C73.2886 88.6195 73.6086 88.4434 74.0686 88.4434L74.0646 88.4395Z" fill="#263238"/>
<path d="M75.7324 89.2955C75.7324 88.3275 76.4724 87.6035 77.4804 87.6035C78.4884 87.6035 79.2244 88.3195 79.2244 89.2955C79.2244 90.2715 78.4764 90.9875 77.4804 90.9875C76.4844 90.9875 75.7324 90.2635 75.7324 89.2955ZM78.8724 89.2955C78.8724 88.4995 78.2764 87.9155 77.4804 87.9155C76.6844 87.9155 76.0764 88.4995 76.0764 89.2955C76.0764 90.0915 76.6764 90.6755 77.4804 90.6755C78.2844 90.6755 78.8724 90.0915 78.8724 89.2955Z" fill="#263238"/>
<path d="M81.2003 88.4395V88.7675C81.1723 88.7675 81.1443 88.7635 81.1203 88.7635C80.5963 88.7635 80.2803 89.0955 80.2803 89.6875V90.9635H79.9443V88.4635H80.2683V88.9515C80.4243 88.6195 80.7443 88.4434 81.2043 88.4434L81.2003 88.4395Z" fill="#263238"/>
<path d="M84.0681 87.4316V90.9596H83.7441V90.4636C83.5401 90.7996 83.1921 90.9836 82.7801 90.9836C82.0681 90.9836 81.5361 90.4636 81.5361 89.7076C81.5361 88.9516 82.0681 88.4396 82.7801 88.4396C83.1801 88.4396 83.5201 88.6116 83.7321 88.9356V87.4316H84.0681ZM83.7361 89.7116C83.7361 89.1276 83.3361 88.7356 82.8081 88.7356C82.2801 88.7356 81.8761 89.1236 81.8761 89.7116C81.8761 90.2996 82.2761 90.6876 82.8081 90.6876C83.3401 90.6876 83.7361 90.2996 83.7361 89.7116Z" fill="#263238"/>
<path d="M87.1848 89.8155H85.0928C85.1328 90.3395 85.5288 90.6834 86.0768 90.6834C86.3808 90.6834 86.6528 90.5755 86.8408 90.3555L87.0328 90.5755C86.8088 90.8435 86.4608 90.9834 86.0688 90.9834C85.2888 90.9834 84.7568 90.4514 84.7568 89.7074C84.7568 88.9634 85.2768 88.4395 85.9768 88.4395C86.6768 88.4395 87.1888 88.9594 87.1888 89.7074C87.1888 89.7354 87.1848 89.7755 87.1848 89.8115V89.8155ZM85.0928 89.5635H86.8648C86.8208 89.0755 86.4648 88.7314 85.9768 88.7314C85.4888 88.7314 85.1368 89.0755 85.0928 89.5635Z" fill="#263238"/>
<path d="M89.1408 88.4395V88.7675C89.1128 88.7675 89.0848 88.7635 89.0608 88.7635C88.5368 88.7635 88.2208 89.0955 88.2208 89.6875V90.9635H87.8848V88.4635H88.2088V88.9515C88.3648 88.6195 88.6848 88.4434 89.1448 88.4434L89.1408 88.4395Z" fill="#263238"/>
<path d="M76.3724 110.3H47.3764C44.0524 110.3 41.3604 107.608 41.3604 104.284C41.3604 100.96 44.0524 98.2676 47.3764 98.2676H76.3724C79.6964 98.2676 82.3884 100.96 82.3884 104.284C82.3884 107.608 79.6964 110.3 76.3724 110.3Z" fill="#02BF72"/>
<path d="M56.9121 102.912H57.9401C58.7041 102.912 59.2241 103.384 59.2241 104.088C59.2241 104.792 58.7041 105.264 57.9401 105.264H56.9121V102.912ZM57.9161 104.892C58.4401 104.892 58.7801 104.572 58.7801 104.088C58.7801 103.604 58.4401 103.284 57.9161 103.284H57.3441V104.896H57.9161V104.892Z" fill="white"/>
<path d="M59.5117 104.088C59.5117 103.392 60.0477 102.88 60.7757 102.88C61.5037 102.88 62.0397 103.392 62.0397 104.088C62.0397 104.784 61.5037 105.296 60.7757 105.296C60.0477 105.296 59.5117 104.784 59.5117 104.088ZM61.6037 104.088C61.6037 103.608 61.2517 103.264 60.7797 103.264C60.3077 103.264 59.9557 103.608 59.9557 104.088C59.9557 104.568 60.3077 104.912 60.7797 104.912C61.2517 104.912 61.6037 104.568 61.6037 104.088Z" fill="white"/>
<path d="M64.5919 102.912V105.264H64.2319L62.9359 103.672V105.264H62.5039V102.912H62.8639L64.1599 104.504V102.912H64.5919Z" fill="white"/>
<path d="M66.9837 104.896V105.264H65.2197V102.912H66.9357V103.28H65.6557V103.892H66.7917V104.252H65.6557V104.9H66.9797L66.9837 104.896Z" fill="white"/>
<path d="M62.6797 73.5958C58.4037 73.5958 54.9277 70.1198 54.9277 65.8438C54.9277 61.5678 58.4037 58.0918 62.6797 58.0918C66.9557 58.0918 70.4317 61.5678 70.4317 65.8438C70.4317 70.1198 66.9557 73.5958 62.6797 73.5958ZM62.6797 58.8878C58.8477 58.8878 55.7277 62.0078 55.7277 65.8398C55.7277 69.6718 58.8477 72.7918 62.6797 72.7918C66.5117 72.7918 69.6317 69.6718 69.6317 65.8398C69.6317 62.0078 66.5117 58.8878 62.6797 58.8878Z" fill="#02BF72"/>
<path d="M62.1194 68.2323C62.0234 68.2323 61.9314 68.2003 61.8554 68.1323C61.1754 67.5363 60.0194 66.5003 59.8674 66.2763C59.7434 66.0923 59.7954 65.8443 59.9794 65.7203C60.1594 65.6003 60.4034 65.6483 60.5314 65.8243C60.6394 65.9603 61.3754 66.6323 62.1114 67.2883L66.0354 63.5643C66.1954 63.4123 66.4474 63.4202 66.5994 63.5802C66.7514 63.7402 66.7434 63.9923 66.5834 64.1443L62.3914 68.1243C62.3154 68.1963 62.2154 68.2323 62.1154 68.2323H62.1194Z" fill="#02BF72"/>
<path d="M110.644 51.7915C110.644 51.8475 88.8597 51.8955 61.9957 51.8955C35.1317 51.8955 13.3438 51.8475 13.3438 51.7915C13.3438 51.7355 35.1197 51.6875 61.9957 51.6875C88.8717 51.6875 110.644 51.7355 110.644 51.7915Z" fill="#263238"/>
<path d="M16.5563 48.5276C16.87 48.5276 17.1243 48.2733 17.1243 47.9596C17.1243 47.6459 16.87 47.3916 16.5563 47.3916C16.2426 47.3916 15.9883 47.6459 15.9883 47.9596C15.9883 48.2733 16.2426 48.5276 16.5563 48.5276Z" fill="#263238"/>
<path d="M18.6686 48.5276C18.9823 48.5276 19.2366 48.2733 19.2366 47.9596C19.2366 47.6459 18.9823 47.3916 18.6686 47.3916C18.3549 47.3916 18.1006 47.6459 18.1006 47.9596C18.1006 48.2733 18.3549 48.5276 18.6686 48.5276Z" fill="#263238"/>
<path d="M21.3128 47.9596C21.3128 48.2716 21.0608 48.5276 20.7448 48.5276C20.4288 48.5276 20.1768 48.2756 20.1768 47.9596C20.1768 47.6436 20.4288 47.3916 20.7448 47.3916C21.0608 47.3916 21.3128 47.6436 21.3128 47.9596Z" fill="#263238"/>
<path d="M174.768 95.6314C174.768 95.6314 179.624 92.6794 180.716 93.5474C182.296 94.7994 182.82 96.9154 182.82 96.9154C182.82 96.9154 185.384 87.1354 187.832 87.5074C189.236 87.7194 188.548 88.8154 187.916 90.1874C187.332 91.4634 186.336 96.1394 186.336 96.1394C186.336 96.1394 190.976 90.6354 192.34 90.7354C193.396 90.8114 193.548 91.7394 192.028 93.2274C190.512 94.7154 187.992 99.4034 187.992 99.4034C187.992 99.4034 191.244 96.3754 192.584 96.3554C193.656 96.3434 194.348 97.0874 192.96 98.2874C191.576 99.4914 189.476 100.391 188.36 102.571C186.98 105.255 184.04 111.939 184.04 111.939L173.748 108.295C173.748 108.295 172.072 101.467 172.008 99.8114C172.008 99.8114 172.148 96.3074 172.128 95.6834C172.108 95.0594 173.764 94.8994 174.264 96.0994C174.768 97.2954 174.54 98.5554 174.744 99.3514C174.948 100.147 175.312 100.887 175.892 101.243C176.476 101.599 177.956 101.623 178.336 101.183C178.716 100.743 179.172 99.4594 179.272 98.6714C179.372 97.8834 179.244 96.6354 179.244 96.6354C179.244 96.6354 174.972 98.3714 174.764 95.6314H174.768Z" fill="#FFBE9D"/>
<path d="M59.1521 127.484L52 124.804C52 124.804 44.72 120.54 43.3721 122.056C43.3721 122.056 41.9321 121.368 41.2921 122.904C40.9201 123.792 42.1441 125.084 42.1441 125.084C42.1441 125.084 41.764 125.468 42.368 126.776C42.972 128.084 49.88 132.204 49.88 132.204C49.88 132.204 58.864 137.104 62.496 139.448L68.764 130.924L67.892 130.6C67.892 130.6 67.376 126.352 65.636 125.22C63.744 123.988 61.46 120.652 60.96 119.344C60.46 118.036 58.044 118.64 58.448 121.352C58.848 124.064 60.96 124.768 60.76 126.576C60.56 128.384 59.1521 127.48 59.1521 127.48V127.484Z" fill="#FFBE9D"/>
<path d="M48.1878 128.477C48.1598 128.529 46.7678 127.801 45.0758 126.853C43.3838 125.905 42.0398 125.097 42.0678 125.049C42.0958 124.997 43.4878 125.725 45.1798 126.673C46.8678 127.621 48.2158 128.429 48.1878 128.477Z" fill="#EB996E"/>
<path d="M51.6805 126.464C51.6685 126.488 51.1805 126.292 50.3965 125.952C49.6165 125.612 48.5405 125.124 47.3805 124.532C46.2205 123.94 45.2005 123.344 44.4845 122.876C44.1285 122.64 43.8445 122.444 43.6565 122.296C43.4645 122.152 43.3645 122.064 43.3725 122.052C43.3925 122.024 43.8325 122.316 44.5605 122.748C45.2925 123.18 46.3205 123.752 47.4725 124.344C48.6285 124.936 49.6885 125.444 50.4525 125.816C51.2165 126.188 51.6845 126.436 51.6725 126.46L51.6805 126.464Z" fill="#EB996E"/>
<path d="M53.1838 130.404C53.1838 130.404 52.9518 130.292 52.5518 130.06C52.1238 129.804 51.5558 129.464 50.8678 129.052L50.8478 129.04L50.8358 129.016C50.5198 128.332 50.1278 127.532 49.6238 126.692C49.3678 126.28 49.0878 125.836 48.7158 125.488C48.3438 125.144 47.7518 125.084 47.3078 125.384C47.2118 125.44 47.0958 125.552 47.0838 125.588C47.0958 125.604 47.0918 125.608 47.0998 125.636L47.1278 125.724C47.1438 125.784 47.1678 125.844 47.1918 125.904C47.2798 126.144 47.3718 126.376 47.4638 126.608C47.6518 127.068 47.8358 127.516 48.0118 127.944C48.3678 128.792 48.6918 129.572 48.9798 130.252L48.9678 130.232C49.5558 130.92 50.0398 131.488 50.4038 131.916C50.5558 132.1 50.6838 132.256 50.7878 132.384C50.8718 132.492 50.9158 132.552 50.9118 132.556C50.9078 132.56 50.8518 132.512 50.7558 132.412C50.6438 132.292 50.5038 132.148 50.3398 131.972C49.9638 131.556 49.4598 131.004 48.8478 130.332L48.8398 130.324V130.312C48.5358 129.644 48.1958 128.872 47.8318 128.016C47.6518 127.588 47.4678 127.14 47.2758 126.68C47.1838 126.448 47.0878 126.212 46.9998 125.968C46.9758 125.908 46.9558 125.848 46.9358 125.784L46.9038 125.688C46.8918 125.652 46.8838 125.592 46.8838 125.544C46.9198 125.416 46.9798 125.392 47.0278 125.332C47.0838 125.284 47.1398 125.24 47.1998 125.204C47.4558 125.04 47.7598 124.956 48.0598 124.984C48.3638 125.004 48.6358 125.148 48.8518 125.332C49.2638 125.72 49.5358 126.164 49.7958 126.588C50.2998 127.444 50.6798 128.256 50.9838 128.952L50.9558 128.916C51.6278 129.352 52.1838 129.708 52.6038 129.98C52.9918 130.236 53.1998 130.384 53.1918 130.396L53.1838 130.404Z" fill="#EB996E"/>
<path d="M60.3523 130.472C60.3443 130.5 60.0083 130.408 59.4723 130.256C58.9363 130.112 58.1923 129.904 57.3603 129.884C56.5283 129.864 55.7843 130.1 55.3203 130.384C54.8523 130.664 54.6443 130.952 54.6163 130.924C54.6003 130.916 54.7683 130.588 55.2403 130.26C55.7043 129.928 56.4883 129.656 57.3603 129.676C58.2323 129.7 58.9883 129.936 59.5123 130.116C60.0403 130.304 60.3563 130.448 60.3483 130.472H60.3523Z" fill="#EB996E"/>
<path d="M59.816 128.584C59.864 128.62 59.684 128.928 59.512 129.328C59.336 129.724 59.228 130.064 59.172 130.052C59.116 130.044 59.136 129.664 59.324 129.244C59.508 128.82 59.776 128.552 59.816 128.584Z" fill="#EB996E"/>
<path d="M101.024 94.5922C101.516 91.2242 105.44 86.3882 108.916 86.3842C106.924 83.5002 106.896 79.4402 108.84 76.5242C110.18 74.5202 112.34 73.0442 113.256 70.8202C114.292 68.3042 113.496 65.4642 113.596 62.7522C113.74 58.7842 115.804 55.1602 117.816 51.7122C119.656 48.5562 121.904 45.0962 125.524 44.3202C127.816 43.8282 130.192 44.5522 132.344 45.4682C142.644 49.8562 150.652 59.1002 153.4 69.7722C154.056 72.3282 154.5 75.0922 156.28 77.0642C158.164 79.1562 161.468 80.2882 162.036 83.0242C162.44 84.9842 161.184 86.9562 161.372 88.9522C161.532 90.6202 164.656 95.4882 165.38 97.0082C166.62 99.6282 166.172 102.456 164.908 105.068C163.644 107.676 160.424 110.22 157.568 110.928L125.648 100.292C122.644 102 119.652 108.616 116.204 109.02C112.756 109.428 108.548 110.928 105.232 107.296C101.756 103.492 100.528 97.9482 101.024 94.5802V94.5922Z" fill="#263238"/>
<path d="M153.956 62.8438C153.6 65.5158 154.332 69.9318 155.792 72.2118C156.772 73.7438 158.408 74.7397 160.02 75.6158C161.632 76.4918 163.324 77.3318 164.544 78.6878C165.768 80.0398 166.424 82.0718 165.604 83.6918C168.48 84.7638 169.768 88.4278 168.716 91.2598C167.66 94.0918 164.768 95.9998 161.748 96.5638L148.584 92.6038L145.692 75.8038L153.292 62.8438" fill="#263238"/>
<path d="M155.572 79.9718C155.572 79.9718 155.664 80.0038 155.828 80.0838C155.992 80.1718 156.248 80.2678 156.548 80.4558C157.16 80.8078 158 81.4198 158.856 82.3798C159.292 82.8518 159.692 83.4358 160.084 84.0878C160.444 84.7558 160.812 85.4918 161.044 86.3278C161.556 87.9718 161.668 89.9718 161.08 91.9358L161.032 91.8158C161.788 92.2398 162.52 92.7878 163.176 93.4438C164.856 95.1118 165.816 97.2798 166.048 99.3038C166.272 101.348 165.784 103.2 165.104 104.572C164.42 105.96 163.572 106.9 162.94 107.48C162.62 107.764 162.36 107.976 162.172 108.104C161.988 108.236 161.888 108.3 161.884 108.296C161.88 108.292 161.968 108.212 162.144 108.072C162.324 107.936 162.572 107.716 162.88 107.424C163.488 106.832 164.308 105.884 164.964 104.508C165.616 103.144 166.08 101.324 165.848 99.3238C165.612 97.3398 164.668 95.2198 163.02 93.5878C162.38 92.9478 161.664 92.4078 160.924 91.9918L160.852 91.9518L160.876 91.8718C161.456 89.9558 161.356 87.9998 160.864 86.3798C160.64 85.5598 160.288 84.8278 159.94 84.1678C159.56 83.5238 159.172 82.9438 158.748 82.4718C157.92 81.5118 157.1 80.8918 156.504 80.5198C156.216 80.3238 155.964 80.2158 155.808 80.1158C155.648 80.0238 155.564 79.9758 155.568 79.9678L155.572 79.9718Z" fill="#455A64"/>
<path d="M116.624 97.3682C116.624 97.3682 110.74 99.1562 108.68 102.156C107.22 104.276 92.2839 136.624 92.2839 136.624L69.6119 129.808L61.5039 140.516L86.7319 154.5C91.4079 157.092 97.0959 157.068 101.752 154.432C104.332 152.972 106.436 150.796 107.808 148.168L114.224 135.88L116.628 97.3722L116.624 97.3682Z" fill="#02BF72"/>
<path d="M110.604 167.82L114.144 152.56L111.46 141.48C109.736 135.776 108.252 126.48 110.132 118.996L116.404 97.4719L123.3 94.2999L139.076 91.5879C139.684 91.7919 155.572 96.2799 155.572 96.2799C157.772 96.7919 158.656 97.1399 158.656 97.1399L160.48 108.924L155 128.344L152.616 147.696L157.856 167.824H110.608L110.604 167.82Z" fill="#02BF72"/>
<path d="M119.72 95.9435L124.296 93.8955L144.916 94.1835L149.792 97.0155C149.792 97.0155 132.756 115.816 128.48 116.44C117.728 118.004 119.72 95.9475 119.72 95.9475V95.9435Z" fill="#FFBE9D"/>
<path d="M158.204 96.9756C158.204 96.9756 161.292 97.6716 163.94 103.32C166.588 108.968 170.868 124.688 170.868 124.688L172.696 108.028L187.604 109.668L184.72 149.48C184.72 149.48 179.444 157.132 170.62 156.424C161.796 155.716 150.592 127.824 150.592 127.824L158.204 96.9756Z" fill="#02BF72"/>
<path d="M168.544 145.028C168.544 145.028 168.54 144.996 168.544 144.932C168.544 144.856 168.552 144.764 168.556 144.648C168.572 144.384 168.592 144.02 168.62 143.564C168.676 142.624 168.788 141.264 168.944 139.584C169.256 136.228 169.824 131.604 170.52 126.512C171.216 121.416 171.808 116.8 172.156 113.452C172.332 111.776 172.464 110.42 172.548 109.484C172.592 109.028 172.628 108.668 172.652 108.404C172.664 108.292 172.676 108.2 172.684 108.124C172.692 108.06 172.7 108.028 172.704 108.028C172.704 108.028 172.708 108.06 172.704 108.124C172.704 108.2 172.696 108.292 172.692 108.408C172.676 108.672 172.656 109.036 172.628 109.492C172.572 110.432 172.46 111.792 172.304 113.472C171.992 116.828 171.424 121.452 170.728 126.548C170.032 131.64 169.44 136.256 169.092 139.608C168.916 141.284 168.784 142.64 168.7 143.58C168.656 144.036 168.62 144.396 168.596 144.66C168.584 144.772 168.572 144.864 168.564 144.94C168.556 145.004 168.548 145.036 168.544 145.036V145.028Z" fill="#263238"/>
<path d="M92.5397 145.216C92.5397 145.216 92.4677 145.116 92.3757 144.92C92.2797 144.724 92.1597 144.432 92.0277 144.06C91.7637 143.324 91.4917 142.268 91.3757 141.076C91.2637 139.884 91.3277 138.796 91.4437 138.024C91.4997 137.636 91.5637 137.328 91.6197 137.116C91.6757 136.904 91.7117 136.788 91.7237 136.792C91.7557 136.8 91.6677 137.272 91.5917 138.044C91.5157 138.812 91.4717 139.884 91.5837 141.06C91.6997 142.232 91.9437 143.276 92.1677 144.016C92.3917 144.756 92.5717 145.204 92.5397 145.216Z" fill="#263238"/>
<path d="M95.0479 145.584C95.0479 145.584 94.9439 145.488 94.7839 145.288C94.6239 145.088 94.4079 144.788 94.1599 144.404C93.6639 143.64 93.0679 142.516 92.6079 141.2C92.1519 139.88 91.9199 138.628 91.8359 137.72C91.7919 137.264 91.7719 136.896 91.7759 136.64C91.7759 136.384 91.7839 136.244 91.7959 136.244C91.8319 136.244 91.8559 136.804 91.9799 137.7C92.1039 138.596 92.3519 139.824 92.8039 141.128C93.2599 142.428 93.8279 143.548 94.2879 144.324C94.7479 145.104 95.0759 145.56 95.0479 145.58V145.584Z" fill="#263238"/>
<path d="M112.7 110.016C112.7 110.016 112.68 110.128 112.624 110.34C112.56 110.568 112.476 110.872 112.368 111.256C112.136 112.068 111.816 113.212 111.416 114.612C110.64 117.448 109.564 121.388 109.048 125.848C108.792 128.076 108.74 130.22 108.96 132.148C109.164 134.08 109.592 135.784 110.012 137.192C110.432 138.6 110.832 139.724 111.108 140.5C111.24 140.876 111.344 141.172 111.424 141.396C111.496 141.6 111.528 141.712 111.52 141.712C111.512 141.712 111.468 141.612 111.384 141.412C111.296 141.192 111.18 140.9 111.032 140.532C110.736 139.764 110.316 138.648 109.872 137.236C109.432 135.828 108.988 134.116 108.772 132.172C108.536 130.228 108.584 128.064 108.844 125.828C109.364 121.348 110.468 117.404 111.28 114.576C111.692 113.16 112.048 112.024 112.296 111.236C112.42 110.86 112.516 110.556 112.588 110.332C112.656 110.128 112.696 110.02 112.704 110.02L112.7 110.016Z" fill="#263238"/>
<path d="M154.388 136.248C154.388 136.248 154.368 136.216 154.332 136.152C154.296 136.076 154.248 135.976 154.192 135.856C154.068 135.58 153.892 135.196 153.672 134.712C153.452 134.212 153.168 133.604 152.868 132.892C152.58 132.168 152.252 131.348 151.888 130.444C151.536 129.532 151.196 128.516 150.808 127.436C150.64 126.888 150.464 126.32 150.28 125.736C150.192 125.444 150.1 125.148 150.008 124.844C149.924 124.54 149.848 124.232 149.764 123.92C149.092 121.424 148.524 118.624 148.356 115.636C148.172 112.656 148.456 109.772 149.216 107.292C149.928 104.792 151.18 102.74 152.516 101.308C153.852 99.8602 155.24 99.0243 156.236 98.5803C156.74 98.3603 157.14 98.2162 157.416 98.1442C157.544 98.1082 157.648 98.0803 157.732 98.0563C157.804 98.0363 157.84 98.0282 157.84 98.0322C157.84 98.0322 157.804 98.0523 157.736 98.0763C157.656 98.1043 157.552 98.1403 157.428 98.1843C157.156 98.2683 156.76 98.4283 156.268 98.6563C155.292 99.1203 153.928 99.9683 152.62 101.412C151.312 102.844 150.088 104.872 149.392 107.352C148.648 109.816 148.372 112.668 148.556 115.632C148.724 118.6 149.284 121.392 149.944 123.88C150.024 124.192 150.104 124.5 150.184 124.804C150.276 125.104 150.364 125.4 150.452 125.692C150.628 126.276 150.8 126.844 150.968 127.392C151.348 128.472 151.676 129.488 152.02 130.404C152.372 131.312 152.688 132.136 152.968 132.86C153.256 133.58 153.528 134.188 153.736 134.692C153.94 135.184 154.104 135.572 154.22 135.852C154.268 135.976 154.308 136.076 154.34 136.156C154.368 136.224 154.376 136.26 154.376 136.264L154.388 136.248Z" fill="#263238"/>
<g opacity="0.3">
<path d="M148.704 118.212C146.756 127.432 146.728 136.916 150.084 145.72C150.28 146.232 151.048 148.048 151.596 148.072C152.288 148.108 152.616 147.244 152.736 146.56C152.984 145.156 153.132 142.848 153.38 141.444C153.688 139.688 154.108 135.62 154.108 135.62C154.108 135.62 152.496 131.932 151.788 129.952C150.472 126.28 149.36 122.776 148.748 118.5" fill="black"/>
</g>
<path d="M147.112 153.932C147.112 153.932 147.064 154.02 146.956 154.172C146.836 154.34 146.676 154.564 146.476 154.84C146.368 154.988 146.252 155.148 146.124 155.32C145.988 155.492 145.828 155.664 145.664 155.856C145.328 156.236 144.968 156.692 144.496 157.124C144.268 157.348 144.028 157.584 143.78 157.824C143.528 158.064 143.24 158.288 142.956 158.532C142.396 159.036 141.732 159.488 141.044 159.984C139.636 160.916 138 161.816 136.184 162.536C134.36 163.232 132.544 163.68 130.876 163.944C130.036 164.044 129.24 164.16 128.488 164.168C128.112 164.18 127.752 164.212 127.4 164.204C127.052 164.192 126.716 164.184 126.396 164.172C125.756 164.172 125.184 164.08 124.68 164.028C124.428 163.996 124.192 163.976 123.98 163.944C123.768 163.9 123.576 163.864 123.396 163.828C123.064 163.76 122.796 163.704 122.592 163.66C122.408 163.62 122.312 163.596 122.316 163.588C122.316 163.58 122.416 163.588 122.6 163.62C122.804 163.652 123.076 163.696 123.408 163.748C123.584 163.776 123.78 163.812 123.992 163.844C124.208 163.872 124.44 163.888 124.692 163.912C125.196 163.952 125.764 164.036 126.4 164.024C126.716 164.028 127.052 164.036 127.396 164.044C127.744 164.044 128.1 164.012 128.476 163.996C129.224 163.98 130.012 163.856 130.844 163.752C132.5 163.476 134.296 163.028 136.104 162.336C137.904 161.62 139.528 160.736 140.932 159.816C141.616 159.328 142.28 158.884 142.84 158.392C143.124 158.152 143.416 157.936 143.668 157.696C143.92 157.456 144.16 157.228 144.388 157.008C144.864 156.584 145.228 156.136 145.568 155.768C145.736 155.58 145.9 155.412 146.036 155.244C146.168 155.076 146.288 154.92 146.4 154.776C146.612 154.512 146.78 154.296 146.908 154.132C147.028 153.988 147.092 153.912 147.096 153.916L147.112 153.932Z" fill="#263238"/>
<path d="M143.86 147.832C143.86 147.832 143.856 147.988 143.808 148.268C143.764 148.548 143.672 148.948 143.528 149.436C143.248 150.408 142.716 151.72 141.872 153.024C141.024 154.328 140.044 155.348 139.272 156.004C138.884 156.332 138.56 156.58 138.32 156.736C138.084 156.892 137.952 156.976 137.944 156.964C137.924 156.932 138.432 156.572 139.172 155.896C139.912 155.22 140.86 154.196 141.696 152.916C142.528 151.632 143.072 150.348 143.388 149.396C143.704 148.444 143.824 147.828 143.86 147.836V147.832Z" fill="#263238"/>
<path d="M136.601 41.7754C142.181 41.8154 147.641 44.9634 150.469 49.7794C153.293 54.5954 153.381 60.8954 150.693 65.7874C149.777 67.4554 148.457 69.0354 146.645 69.6154C147.261 60.0514 143.449 50.2874 136.513 43.6714" fill="#02BF72"/>
<path d="M143.133 43.2242C142.305 41.5002 143.193 39.3442 144.669 38.1322C146.145 36.9202 148.073 36.4282 149.933 35.9842C151.793 35.5402 153.721 35.0802 155.229 33.9082C155.013 36.9042 154.265 39.9882 152.329 42.2802C150.389 44.5762 147.029 45.8522 144.261 44.6882" fill="#02BF72"/>
<path d="M145.053 45.1959C143.781 45.7319 142.261 45.3959 141.125 44.6159C139.989 43.8359 139.169 42.6679 138.501 41.4599C137.681 39.9759 137.033 38.3719 136.817 36.6879C136.601 35.0039 136.829 33.2359 137.661 31.7559C139.849 34.0879 142.261 36.0479 143.513 38.9919C144.249 40.7199 144.161 43.4959 143.369 45.1999" fill="#02BF72"/>
<path d="M151.257 54.8955C151.257 54.8955 151.309 55.0915 151.365 55.4515C151.397 55.6315 151.429 55.8515 151.449 56.1115C151.473 56.3715 151.509 56.6635 151.513 56.9915C151.549 57.6435 151.537 58.4235 151.473 59.2875C151.397 60.1475 151.257 61.0915 151.033 62.0635C150.797 63.0355 150.497 63.9395 150.177 64.7395C149.845 65.5395 149.505 66.2395 149.181 66.8075C149.029 67.0955 148.865 67.3435 148.729 67.5635C148.593 67.7835 148.465 67.9675 148.357 68.1155C148.145 68.4115 148.021 68.5715 148.009 68.5635C147.997 68.5555 148.097 68.3795 148.289 68.0715C148.385 67.9195 148.505 67.7315 148.629 67.5035C148.753 67.2795 148.909 67.0275 149.053 66.7395C149.361 66.1675 149.685 65.4675 150.001 64.6715C150.309 63.8715 150.601 62.9755 150.833 62.0155C151.057 61.0515 151.201 60.1235 151.285 59.2715C151.361 58.4195 151.385 57.6475 151.369 56.9995C151.369 56.6755 151.345 56.3835 151.337 56.1235C151.329 55.8675 151.309 55.6435 151.289 55.4635C151.257 55.1035 151.245 54.8995 151.261 54.8995L151.257 54.8955Z" fill="#263238"/>
<path d="M150.005 44.1677C150.005 44.1677 149.857 44.3037 149.561 44.5197C149.241 44.6957 148.765 44.9517 148.117 45.0797C146.829 45.3717 144.973 45.3117 143.009 44.7877L142.949 44.7717L142.937 44.7117C142.909 44.5917 142.881 44.4637 142.853 44.3357C142.641 43.2957 142.593 42.2757 142.721 41.3597C142.837 40.4437 143.153 39.6477 143.561 39.0797C143.953 38.4917 144.433 38.1677 144.749 37.9477C145.093 37.7637 145.281 37.6677 145.289 37.6797C145.297 37.6917 145.117 37.8117 144.797 38.0157C144.501 38.2517 144.049 38.5877 143.689 39.1637C143.313 39.7237 143.021 40.4957 142.917 41.3877C142.801 42.2757 142.857 43.2797 143.061 44.2957C143.089 44.4237 143.117 44.5477 143.145 44.6677L143.073 44.5917C144.997 45.1077 146.833 45.1917 148.093 44.9437C148.733 44.8357 149.201 44.6077 149.529 44.4557C149.829 44.2637 150.001 44.1597 150.013 44.1717L150.005 44.1677Z" fill="#263238"/>
<path d="M151.645 38.9835C151.649 39.0235 151.061 39.1035 150.141 39.3755C149.681 39.5075 149.149 39.7035 148.569 39.9595C147.997 40.2235 147.381 40.5475 146.769 40.9435C146.161 41.3475 145.621 41.7795 145.149 42.1995C144.685 42.6275 144.293 43.0395 143.989 43.4075C143.373 44.1395 143.061 44.6475 143.029 44.6275C143.017 44.6195 143.085 44.4875 143.225 44.2555C143.357 44.0195 143.581 43.6955 143.877 43.3155C144.173 42.9315 144.561 42.5035 145.021 42.0595C145.489 41.6235 146.037 41.1755 146.657 40.7675C147.277 40.3635 147.905 40.0395 148.493 39.7835C149.085 39.5355 149.633 39.3515 150.101 39.2355C150.569 39.1155 150.953 39.0435 151.225 39.0155C151.493 38.9835 151.641 38.9715 151.645 38.9875V38.9835Z" fill="#263238"/>
<path d="M144.969 45.1483C144.969 45.1483 144.969 45.1923 144.953 45.2683C144.941 45.3483 144.905 45.4563 144.845 45.6003C144.729 45.8803 144.485 46.2603 144.053 46.6003C143.625 46.9283 142.993 47.2163 142.257 47.1803C141.517 47.1563 140.753 46.7083 140.277 46.0163C139.801 45.3203 139.661 44.4483 139.905 43.7483C140.137 43.0483 140.633 42.5603 141.097 42.2803C141.569 42.0003 142.013 41.9123 142.317 41.9043C142.469 41.9043 142.585 41.9043 142.665 41.9243C142.745 41.9363 142.785 41.9443 142.781 41.9523C142.781 41.9723 142.613 41.9523 142.321 41.9843C142.033 42.0163 141.613 42.1243 141.173 42.4043C140.745 42.6843 140.289 43.1563 140.089 43.8043C139.877 44.4483 140.009 45.2483 140.449 45.8963C140.893 46.5403 141.593 46.9563 142.269 46.9883C142.949 47.0323 143.549 46.7803 143.965 46.4803C144.385 46.1723 144.637 45.8203 144.773 45.5643C144.909 45.3043 144.949 45.1443 144.969 45.1483Z" fill="#263238"/>
<path d="M140.117 45.2478C140.117 45.2478 139.977 45.0318 140.169 44.7198C140.257 44.5718 140.425 44.4238 140.645 44.3478C140.861 44.2678 141.113 44.2558 141.361 44.2718C142.361 44.3438 143.085 44.7318 143.057 44.7758C143.033 44.8318 142.297 44.5438 141.345 44.4758C140.873 44.4278 140.465 44.5518 140.289 44.7998C140.105 45.0318 140.149 45.2438 140.117 45.2438V45.2478Z" fill="#263238"/>
<path d="M137.661 31.7601C137.701 31.7761 137.221 32.3441 137.049 33.4721C136.957 34.0281 136.945 34.7041 136.953 35.4561C136.961 36.2081 136.997 37.0361 137.165 37.8761C137.545 39.5561 138.233 41.0001 138.873 41.9241C139.197 42.3881 139.485 42.7521 139.689 42.9961C139.893 43.2401 140.017 43.3641 140.009 43.3761C139.985 43.4081 139.441 42.9361 138.757 42.0121C138.069 41.0881 137.353 39.6401 136.965 37.9201C136.789 37.0561 136.761 36.2121 136.765 35.4561C136.765 34.7001 136.793 34.0121 136.905 33.4441C137.013 32.8761 137.197 32.4361 137.361 32.1601C137.525 31.8801 137.653 31.7521 137.661 31.7601Z" fill="#263238"/>
<path d="M139.732 36.5036C139.752 36.4876 139.98 36.7396 140.296 37.1876C140.612 37.6356 141.008 38.2796 141.36 39.0396C141.708 39.7996 141.936 40.5276 142.064 41.0596C142.192 41.5916 142.228 41.9276 142.2 41.9356C142.136 41.9516 141.864 40.6276 141.172 39.1276C140.488 37.6276 139.68 36.5436 139.736 36.5036H139.732Z" fill="#263238"/>
<path d="M139.057 38.9962C139.097 38.9602 139.773 39.6402 140.657 40.4322C141.537 41.2282 142.241 41.8882 142.201 41.9322C142.165 41.9722 141.401 41.3842 140.517 40.5842C139.629 39.7882 139.013 39.0322 139.061 38.9922L139.057 38.9962Z" fill="#263238"/>
<path d="M149.525 48.3799C149.525 48.3799 149.505 48.3999 149.469 48.4359C149.413 48.4839 149.353 48.5319 149.293 48.5839C149.141 48.7159 148.909 48.8879 148.609 49.0919C148.017 49.4959 147.137 49.9759 146.089 50.3199C145.045 50.6599 144.049 50.7959 143.333 50.8239C142.973 50.8399 142.681 50.8359 142.481 50.8239C142.401 50.8199 142.325 50.8119 142.249 50.8079C142.197 50.8039 142.169 50.7999 142.169 50.7959C142.169 50.7959 142.197 50.7919 142.249 50.7919C142.321 50.7919 142.397 50.7919 142.481 50.7919C142.681 50.7959 142.969 50.7919 143.329 50.7679C144.041 50.7279 145.025 50.5839 146.061 50.2439C147.097 49.8999 147.973 49.4359 148.573 49.0439C148.873 48.8479 149.109 48.6839 149.269 48.5599C149.333 48.5119 149.397 48.4679 149.453 48.4239C149.497 48.3919 149.521 48.3799 149.521 48.3799H149.525Z" fill="#FAFAFA"/>
<path d="M151.881 53.2197C151.881 53.2197 151.861 53.2397 151.821 53.2757C151.765 53.3237 151.705 53.3717 151.645 53.4237C151.489 53.5517 151.257 53.7277 150.961 53.9277C150.365 54.3317 149.493 54.8197 148.457 55.1957C147.421 55.5677 146.437 55.7517 145.721 55.8197C145.365 55.8557 145.073 55.8717 144.869 55.8677C144.789 55.8677 144.713 55.8677 144.637 55.8677C144.585 55.8677 144.557 55.8677 144.557 55.8637C144.557 55.8637 144.585 55.8557 144.637 55.8517C144.709 55.8477 144.785 55.8437 144.869 55.8357C145.069 55.8277 145.357 55.8037 145.713 55.7597C146.425 55.6757 147.401 55.4877 148.429 55.1197C149.457 54.7477 150.329 54.2717 150.929 53.8797C151.229 53.6837 151.469 53.5197 151.629 53.3997C151.693 53.3517 151.757 53.3077 151.817 53.2637C151.861 53.2317 151.885 53.2197 151.885 53.2197H151.881Z" fill="#FAFAFA"/>
<path d="M151.224 60.2834C151.224 60.2834 151.168 60.3314 151.056 60.4074C150.944 60.4834 150.776 60.5874 150.564 60.7034C150.14 60.9354 149.52 61.2074 148.804 61.3954C148.084 61.5834 147.412 61.6474 146.928 61.6514C146.684 61.6514 146.488 61.6514 146.356 61.6354C146.22 61.6234 146.148 61.6154 146.148 61.6114C146.148 61.6074 146.224 61.6034 146.36 61.6034C146.496 61.6034 146.688 61.6034 146.932 61.5914C147.412 61.5714 148.076 61.4994 148.788 61.3114C149.5 61.1234 150.112 60.8634 150.54 60.6474C150.756 60.5394 150.928 60.4434 151.044 60.3754C151.16 60.3074 151.228 60.2714 151.232 60.2794L151.224 60.2834Z" fill="#FAFAFA"/>
<path d="M152.584 59.2039C152.588 59.2279 152.348 59.2919 152.044 59.3519C151.74 59.4119 151.492 59.4399 151.488 59.4159C151.484 59.3919 151.724 59.3279 152.028 59.2679C152.332 59.2079 152.58 59.1799 152.584 59.2039Z" fill="#FAFAFA"/>
<path d="M148.613 67.5035C148.613 67.5235 148.205 67.5875 147.701 67.5475C147.193 67.5115 146.797 67.3915 146.805 67.3675C146.809 67.3435 147.209 67.4275 147.709 67.4635C148.209 67.4995 148.613 67.4755 148.617 67.4995L148.613 67.5035Z" fill="#FAFAFA"/>
<path d="M141.025 46.5881C141.037 46.6081 140.797 46.7601 140.493 46.9281C140.189 47.0961 139.929 47.2161 139.921 47.1961C139.913 47.1761 140.149 47.0241 140.453 46.8561C140.757 46.6881 141.017 46.5681 141.025 46.5881Z" fill="#FAFAFA"/>
<path d="M139.037 42.3877C139.049 42.4117 138.461 42.5877 137.857 43.0237C137.249 43.4517 136.893 43.9477 136.869 43.9277C136.861 43.9237 136.941 43.7917 137.097 43.6037C137.257 43.4157 137.501 43.1757 137.805 42.9557C138.113 42.7397 138.421 42.5877 138.649 42.4997C138.881 42.4117 139.029 42.3797 139.033 42.3917L139.037 42.3877Z" fill="#FAFAFA"/>
<path d="M142.641 47.0403C142.613 47.0403 142.753 46.4963 142.661 45.8283C142.577 45.1603 142.305 44.6723 142.333 44.6603C142.341 44.6563 142.421 44.7683 142.513 44.9763C142.605 45.1803 142.701 45.4763 142.745 45.8203C142.789 46.1603 142.769 46.4723 142.733 46.6923C142.697 46.9123 142.649 47.0443 142.641 47.0403Z" fill="#FAFAFA"/>
<path d="M155.017 33.9914C155.017 33.9914 154.877 34.1714 154.577 34.4594C154.281 34.7474 153.817 35.1274 153.193 35.5234C152.569 35.9194 151.785 36.3194 150.893 36.7114C150.001 37.1074 149.005 37.4954 147.993 37.9794C146.985 38.4674 146.061 39.0234 145.341 39.6714C144.621 40.3194 144.101 41.0394 143.785 41.6994C143.469 42.3594 143.345 42.9514 143.309 43.3594C143.273 43.7674 143.301 43.9954 143.289 43.9954C143.289 43.9954 143.281 43.9394 143.277 43.8314C143.265 43.7234 143.269 43.5634 143.277 43.3554C143.301 42.9434 143.417 42.3474 143.733 41.6714C144.049 41.0034 144.565 40.2674 145.293 39.6114C146.017 38.9514 146.949 38.3914 147.961 37.8994C148.977 37.4114 149.977 37.0234 150.865 36.6354C151.757 36.2474 152.541 35.8554 153.165 35.4674C153.789 35.0794 154.257 34.7074 154.557 34.4274C154.709 34.2874 154.825 34.1754 154.897 34.0994C154.973 34.0234 155.017 33.9834 155.017 33.9834V33.9914Z" fill="#FAFAFA"/>
<path d="M153.933 38.7402C153.933 38.7402 153.917 38.7722 153.881 38.8322C153.829 38.9082 153.777 38.9922 153.713 39.0842C153.569 39.3042 153.345 39.6082 153.053 39.9722C152.469 40.7042 151.577 41.6522 150.445 42.5282C149.313 43.4042 148.173 44.0362 147.321 44.4202C146.893 44.6122 146.545 44.7562 146.297 44.8402C146.193 44.8762 146.101 44.9082 146.013 44.9402C145.949 44.9602 145.913 44.9722 145.913 44.9682C145.913 44.9682 145.945 44.9482 146.009 44.9242C146.093 44.8882 146.185 44.8522 146.289 44.8122C146.533 44.7162 146.881 44.5682 147.301 44.3682C148.145 43.9722 149.273 43.3362 150.397 42.4642C151.521 41.5882 152.417 40.6562 153.009 39.9362C153.305 39.5762 153.537 39.2802 153.689 39.0642C153.753 38.9762 153.813 38.8962 153.869 38.8242C153.909 38.7682 153.933 38.7402 153.937 38.7442L153.933 38.7402Z" fill="#FAFAFA"/>
<path d="M137.237 33.1201C137.237 33.1201 137.729 33.3081 138.449 33.7641C139.169 34.2161 140.093 34.9641 140.901 35.9801C141.709 37.0001 142.225 38.0721 142.501 38.8761C142.777 39.6801 142.849 40.2041 142.849 40.2041C142.849 40.2041 142.837 40.1721 142.817 40.1121C142.793 40.0281 142.773 39.9441 142.745 39.8481C142.689 39.6201 142.589 39.2921 142.441 38.8961C142.153 38.1041 141.633 37.0481 140.833 36.0321C140.029 35.0241 139.121 34.2721 138.413 33.8121C138.061 33.5801 137.765 33.4081 137.553 33.3001C137.465 33.2521 137.389 33.2121 137.313 33.1721C137.257 33.1401 137.229 33.1241 137.233 33.1201H137.237Z" fill="#FAFAFA"/>
<path d="M117.176 48.1602C117.332 50.2802 115.932 52.1722 114.52 53.7642C113.108 55.3562 111.54 57.0122 111.236 59.1162C110.696 62.8442 114.348 66.3082 113.592 70.0002C113.188 71.9802 111.568 73.5682 111.28 75.5682C111 77.5002 112.036 79.3922 113.32 80.8642C114.604 82.3362 116.092 82.1202 117.228 83.7082C118.424 85.3802 120.352 87.1002 122.156 88.0882C126.248 90.3282 131.156 87.0882 133.132 86.5042" fill="#263238"/>
<path d="M148.117 56.8519C150.001 56.0319 150.149 49.2719 145.421 48.4919C143.525 48.1799 141.941 47.2519 140.345 46.1799C138.933 45.2279 138.513 42.8159 137.317 41.6039C134.385 38.6279 129.801 37.3959 125.773 38.4959C121.741 39.5959 118.421 42.9839 117.405 47.0359C116.717 49.7759 117.185 53.0119 119.345 54.8319C121.849 56.9439 125.565 56.4759 128.773 55.8159C131.981 55.1599 135.617 54.5119 138.297 56.3959C139.913 57.5319 140.841 59.3839 141.829 61.0919C142.817 62.8039 144.057 64.5519 145.925 65.1959C145.925 65.1959 147.349 68.5399 146.185 70.8679C145.025 73.1959 147.549 69.2279 147.549 69.2279C147.549 69.2279 152.157 61.0359 148.117 56.8559" fill="#263238"/>
<path d="M124.148 104.284C124.12 99.8717 124.148 87.4837 124.148 87.5037C124.148 87.5037 117.14 86.3237 115.708 77.1716C114.996 72.6196 115.24 65.1637 115.64 59.0676C116 53.5796 119.648 46.8556 125.116 47.4476L142.18 51.7997C143.84 51.9797 145.088 53.3996 145.052 55.0676L144.012 97.4477L124.148 104.28V104.284Z" fill="#FFBE9D"/>
<path d="M118.544 64.2952C118.52 64.9152 119.028 65.4472 119.672 65.4832C120.316 65.5192 120.86 65.0472 120.884 64.4272C120.908 63.8072 120.4 63.2752 119.756 63.2392C119.108 63.2032 118.568 63.6752 118.544 64.2952Z" fill="#263238"/>
<path d="M117.248 62.9517C117.392 63.1037 118.284 62.4477 119.544 62.4557C120.804 62.4437 121.732 63.0957 121.868 62.9397C121.936 62.8717 121.788 62.5957 121.384 62.2997C120.988 62.0077 120.312 61.7197 119.524 61.7237C118.736 61.7237 118.076 62.0157 117.696 62.3117C117.308 62.6077 117.176 62.8837 117.248 62.9557V62.9517Z" fill="#263238"/>
<path d="M129.656 64.9634C129.8 65.1154 130.692 64.4594 131.956 64.4674C133.216 64.4554 134.144 65.1074 134.28 64.9514C134.348 64.8834 134.2 64.6074 133.796 64.3114C133.4 64.0194 132.724 63.7314 131.936 63.7354C131.148 63.7354 130.488 64.0274 130.108 64.3234C129.72 64.6194 129.588 64.8954 129.66 64.9674L129.656 64.9634Z" fill="#263238"/>
<path d="M125.056 72.5637C125.064 72.4917 124.276 72.3557 123.008 72.1877C122.684 72.1557 122.38 72.0877 122.328 71.8677C122.252 71.6357 122.388 71.2877 122.544 70.9117C122.848 70.1317 123.168 69.3157 123.504 68.4597C124.836 64.9677 125.8 62.0957 125.66 62.0437C125.52 61.9917 124.324 64.7797 122.992 68.2717C122.672 69.1317 122.364 69.9517 122.072 70.7397C121.948 71.1077 121.74 71.5197 121.904 72.0037C121.992 72.2437 122.228 72.4197 122.432 72.4757C122.64 72.5397 122.82 72.5437 122.98 72.5517C124.26 72.6237 125.052 72.6317 125.06 72.5597L125.056 72.5637Z" fill="#263238"/>
<path d="M124.148 87.5037C124.148 87.5037 130.3 87.9157 136.408 84.2637C136.304 84.2837 133.036 90.6237 124.268 89.6637L124.148 87.5037Z" fill="#EB996E"/>
<path d="M125.42 76.2114C125.268 75.4354 126.184 75.1834 126.856 74.7634C127.528 74.3474 127.916 73.7914 128.544 74.2714C128.904 74.5434 129.16 74.9394 129.32 75.3594C129.428 75.6434 129.496 75.9514 129.444 76.2514C129.38 76.6154 129.152 76.9314 128.88 77.1874C128.5 77.5474 128.024 77.8194 127.508 77.9034C126.992 77.9914 126.436 77.8794 126.024 77.5554C125.612 77.2314 125.372 76.6874 125.46 76.1714" fill="#EB996E"/>
<path d="M128.768 73.4474C128.564 73.4354 128.556 74.8034 127.38 75.7754C126.208 76.7474 124.748 76.5914 124.736 76.7834C124.716 76.8674 125.06 77.0514 125.676 77.0674C126.28 77.0914 127.164 76.8954 127.884 76.3034C128.6 75.7074 128.912 74.9154 128.96 74.3514C129.012 73.7794 128.86 73.4394 128.768 73.4474Z" fill="#263238"/>
<path d="M129.468 62.1392C129.592 62.4832 130.852 62.3232 132.332 62.5032C133.816 62.6552 135.008 63.0912 135.208 62.7832C135.296 62.6352 135.088 62.3112 134.608 61.9792C134.132 61.6472 133.368 61.3312 132.48 61.2272C131.592 61.1272 130.776 61.2672 130.236 61.4872C129.692 61.7032 129.416 61.9752 129.472 62.1392H129.468Z" fill="#263238"/>
<path d="M117.424 58.5835C117.644 58.8715 118.516 58.5755 119.56 58.5635C120.604 58.5155 121.492 58.7595 121.696 58.4595C121.784 58.3155 121.648 58.0275 121.26 57.7555C120.88 57.4835 120.244 57.2635 119.524 57.2835C118.804 57.3035 118.184 57.5635 117.816 57.8555C117.444 58.1475 117.324 58.4435 117.42 58.5835H117.424Z" fill="#263238"/>
<path d="M146.052 82.4C143.536 82.908 143.312 81.628 141.432 79.88C139.552 78.132 138.58 75.456 138.904 72.912C139.188 70.664 140.4 68.38 139.62 66.252C138.592 63.44 134.648 62.576 133.604 59.772C132.996 58.14 133.54 56.232 132.852 54.636C132.204 53.132 130.624 52.268 129.084 51.712C127.544 51.156 125.896 50.772 124.604 49.768C123.312 48.764 122.508 46.868 123.34 45.46C130.164 46.276 136.892 47.912 143.328 50.316C144.82 50.872 146.388 51.544 147.272 52.872C148.204 54.276 148.16 56.092 148.084 57.776C147.7 65.988 147.316 74.204 146.936 82.416" fill="#263238"/>
<path d="M151.881 79.3318C151.881 79.3318 151.921 79.2958 151.981 79.2198C152.037 79.1358 152.141 79.0238 152.233 78.8558C152.441 78.5238 152.689 77.9918 152.837 77.2558C152.985 76.5278 152.997 75.5798 152.689 74.5558C152.405 73.5318 151.689 72.4358 150.561 71.6918C149.477 70.9278 148.061 70.3918 147.165 69.1758C146.717 68.5798 146.529 67.8078 146.669 67.0278C146.793 66.2438 147.149 65.4718 147.465 64.6558C148.165 63.0158 148.173 60.9678 147.349 59.1958C146.933 58.3118 146.317 57.4918 145.493 56.8918C144.673 56.2718 143.673 55.9518 142.689 55.7278C141.697 55.4998 140.709 55.3718 139.793 55.0958C138.877 54.8238 138.005 54.4118 137.369 53.7678C136.717 53.1318 136.441 52.2518 136.317 51.3678C136.193 50.4838 136.125 49.5638 135.885 48.7078C135.437 46.9918 134.565 45.4718 133.417 44.3798C132.269 43.2798 130.861 42.6518 129.529 42.4518C128.193 42.2438 126.937 42.4918 125.993 42.9878C125.037 43.4758 124.373 44.1478 123.949 44.7598C123.525 45.3798 123.325 45.9318 123.233 46.3118C123.137 46.6918 123.145 46.8998 123.145 46.8998C123.205 46.9238 123.217 46.0398 124.077 44.8518C124.509 44.2718 125.169 43.6398 126.097 43.1918C127.013 42.7358 128.213 42.5198 129.489 42.7358C130.757 42.9438 132.101 43.5638 133.189 44.6238C134.281 45.6798 135.109 47.1438 135.529 48.8038C135.757 49.6318 135.813 50.5078 135.937 51.4278C136.057 52.3318 136.361 53.3358 137.089 54.0478C137.793 54.7638 138.729 55.1958 139.681 55.4798C140.641 55.7718 141.633 55.8998 142.605 56.1238C143.569 56.3438 144.509 56.6478 145.265 57.2158C146.029 57.7718 146.609 58.5358 147.001 59.3638C147.781 61.0398 147.789 62.9518 147.129 64.5278C146.829 65.3318 146.461 66.1238 146.329 66.9798C146.177 67.8318 146.405 68.7358 146.905 69.3758C147.905 70.6878 149.357 71.1998 150.409 71.9318C151.505 72.6318 152.181 73.6478 152.485 74.6278C152.801 75.6038 152.813 76.5198 152.693 77.2358C152.441 78.6838 151.833 79.3158 151.893 79.3438L151.881 79.3318Z" fill="#455A64"/>
<path d="M139.981 70.2402C137.909 75.0082 137.525 80.4882 138.913 85.4962C139.329 86.9922 139.897 88.5442 139.545 90.0562C139.161 91.6922 137.793 92.8762 136.797 94.2282C135.077 96.5562 134.409 99.6282 135.001 102.46C135.597 105.292 137.445 107.836 139.953 109.276C140.217 107.772 141.617 106.748 142.997 106.092C144.377 105.436 145.901 104.952 146.957 103.848C148.009 102.74 148.309 100.712 147.085 99.8002C150.605 98.8802 152.601 94.6962 151.861 91.1322C151.121 87.5682 148.221 84.7522 144.925 83.2082" fill="#263238"/>
<path d="M143.733 105.764C143.105 106.108 142.493 106.416 142.413 107.132C142.321 107.968 143.125 109.44 143.413 110.232C143.977 111.78 143.553 113.644 142.369 114.792C141.189 115.944 139.317 116.316 137.781 115.712C138.909 115.8 139.865 114.7 139.965 113.572C140.065 112.448 139.521 111.36 138.849 110.452C138.177 109.544 137.365 108.736 136.793 107.76C135.633 105.772 133.913 100.368 135.237 97.3398" fill="#263238"/>
<path d="M146.936 99.9406C146.936 99.9406 147.008 99.8726 147.152 99.7566C147.3 99.6446 147.512 99.4726 147.78 99.2486C148.312 98.7966 149.068 98.1126 149.836 97.1206C150.596 96.1366 151.376 94.8326 151.784 93.2326C152.184 91.6446 152.212 89.7526 151.524 87.9806C151.18 87.0966 150.672 86.3126 150.076 85.6446C149.488 84.9686 148.848 84.3766 148.244 83.8046C147.64 83.2326 147.072 82.6766 146.604 82.0966C146.132 81.5166 145.776 80.9126 145.528 80.3286C145.016 79.1566 144.996 78.0726 145.176 77.3886C145.268 77.0446 145.38 76.7926 145.476 76.6326C145.572 76.4726 145.624 76.3926 145.632 76.3966C145.66 76.4086 145.416 76.7326 145.256 77.4086C145.104 78.0846 145.148 79.1326 145.664 80.2726C145.912 80.8406 146.272 81.4286 146.74 81.9926C147.208 82.5566 147.776 83.1046 148.38 83.6726C148.984 84.2406 149.632 84.8326 150.232 85.5206C150.84 86.2006 151.368 87.0086 151.72 87.9166C152.428 89.7406 152.388 91.6766 151.968 93.2926C151.54 94.9246 150.736 96.2406 149.948 97.2246C149.156 98.2126 148.38 98.8886 147.828 99.3246C147.552 99.5406 147.328 99.7006 147.172 99.8046C147.016 99.9086 146.936 99.9606 146.932 99.9526L146.936 99.9406Z" fill="#455A64"/>
<path d="M31.9757 147.716C32.9877 148.984 34.7637 148.432 35.5477 147.568C36.3317 146.704 36.6117 145.512 36.8637 144.372C37.4397 141.772 38.0117 139.044 37.2997 136.476C37.0877 135.708 36.7477 134.952 36.1637 134.408C35.5797 133.864 34.7197 133.576 33.9637 133.828C33.0677 134.124 32.5597 135.052 32.2037 135.924C31.1597 138.488 30.6957 141.292 30.8637 144.056C30.9397 145.348 31.1797 146.692 31.9717 147.712" fill="#02BF72"/>
<g opacity="0.2">
<path d="M31.9757 147.716C32.9877 148.984 34.7637 148.432 35.5477 147.568C36.3317 146.704 36.6117 145.512 36.8637 144.372C37.4397 141.772 38.0117 139.044 37.2997 136.476C37.0877 135.708 36.7477 134.952 36.1637 134.408C35.5797 133.864 34.7197 133.576 33.9637 133.828C33.0677 134.124 32.5597 135.052 32.2037 135.924C31.1597 138.488 30.6957 141.292 30.8637 144.056C30.9397 145.348 31.1797 146.692 31.9717 147.712" fill="black"/>
</g>
<path d="M35.8761 154.207C37.3441 153.327 39.1241 153.115 40.8281 153.287C41.7441 153.379 42.7041 153.591 43.3601 154.231C44.0201 154.871 44.2121 156.063 43.5401 156.691C43.1401 157.067 42.5561 157.155 42.0121 157.183C40.6921 157.251 39.2161 157.111 38.2121 157.971C37.6401 158.463 37.2881 159.239 36.5801 159.507C35.8921 159.771 35.0721 159.403 34.6601 158.791C34.2481 158.179 34.1841 157.387 34.3121 156.663C34.3121 156.663 34.3961 155.091 35.8761 154.207Z" fill="#02BF72"/>
<path d="M29.5481 149.776C30.4801 148.516 30.5601 146.76 30.0201 145.292C29.4761 143.824 28.3841 142.612 27.1521 141.644C25.7081 140.512 24.0401 139.664 22.2721 139.164C21.5761 138.968 20.8481 138.824 20.1321 138.936C19.4201 139.048 18.7201 139.464 18.4241 140.124C17.9881 141.1 18.5361 142.216 19.1081 143.12C20.1161 144.712 21.2521 146.22 22.4961 147.632C23.4961 148.768 24.6321 149.88 26.0801 150.332C27.5281 150.784 28.9881 150.628 29.6761 149.6" fill="#02BF72"/>
<path d="M33.1719 167.712C33.1719 167.712 33.2039 167.496 33.2199 167.104C33.2359 166.664 33.2519 166.108 33.2759 165.452C33.3079 164.756 33.3599 163.928 33.4919 163.016C33.6279 162.112 33.8639 161.124 34.1879 160.116C34.5239 159.116 34.9559 158.196 35.4799 157.452C35.9999 156.704 36.6239 156.144 37.2199 155.808C37.8159 155.464 38.3599 155.308 38.7359 155.228C39.1159 155.164 39.3319 155.12 39.3319 155.104C39.3319 155.088 39.1159 155.096 38.7199 155.132C38.3319 155.184 37.7639 155.316 37.1319 155.652C36.4999 155.98 35.8359 156.548 35.2919 157.316C34.7399 158.08 34.2959 159.016 33.9519 160.036C33.6239 161.06 33.3879 162.056 33.2639 162.984C33.1399 163.908 33.1079 164.744 33.0959 165.444C33.0879 166.144 33.1039 166.712 33.1199 167.104C33.1359 167.496 33.1519 167.712 33.1719 167.712Z" fill="#263238"/>
<path d="M33.208 166.439C33.208 166.439 33.216 166.343 33.208 166.159C33.196 165.951 33.176 165.683 33.156 165.359C33.112 164.667 33.048 163.663 33.008 162.419C32.912 159.935 32.912 156.503 33.088 152.715C33.268 148.927 33.604 145.507 33.952 143.051C34.032 142.435 34.116 141.879 34.2 141.395C34.276 140.907 34.344 140.487 34.408 140.147C34.464 139.827 34.508 139.567 34.544 139.359C34.572 139.179 34.584 139.083 34.576 139.079C34.568 139.079 34.54 139.171 34.496 139.347C34.448 139.551 34.388 139.811 34.312 140.127C34.232 140.467 34.152 140.883 34.06 141.371C33.964 141.855 33.868 142.411 33.776 143.027C33.38 145.487 33.016 148.911 32.836 152.707C32.66 156.503 32.692 159.943 32.828 162.431C32.892 163.675 32.98 164.679 33.056 165.371C33.096 165.695 33.128 165.959 33.156 166.167C33.18 166.347 33.2 166.443 33.208 166.443V166.439Z" fill="#263238"/>
<path d="M32.808 159.82C32.808 159.82 32.804 159.52 32.748 158.984C32.684 158.448 32.56 157.68 32.352 156.74C32.132 155.804 31.836 154.692 31.408 153.492C30.996 152.288 30.452 150.992 29.784 149.68C28.472 147.04 26.78 144.924 25.34 143.636C25 143.292 24.632 143.052 24.332 142.812C24.18 142.696 24.04 142.584 23.904 142.492C23.768 142.408 23.636 142.332 23.52 142.26C23.056 141.984 22.796 141.84 22.788 141.856C22.752 141.912 23.824 142.456 25.22 143.764C26.608 145.072 28.256 147.176 29.56 149.792C30.224 151.092 30.768 152.376 31.188 153.568C31.624 154.756 31.936 155.856 32.176 156.78C32.408 157.708 32.556 158.472 32.648 159C32.732 159.528 32.784 159.824 32.804 159.82H32.808Z" fill="#263238"/>
<path d="M93.8352 68.3041C93.0992 65.6921 89.6992 65.9441 89.6992 65.9441L89.7912 67.7601C91.7552 67.4201 92.9752 69.7241 92.9752 69.7241L93.8312 68.3041H93.8352Z" fill="#02BF72"/>
<path d="M60.4153 37.8966C58.5833 38.0926 58.3633 40.3926 58.3633 40.3926L59.5913 40.5366C59.5913 39.1846 61.2673 38.6286 61.2673 38.6286L60.4153 37.8926V37.8966Z" fill="#02BF72"/>
<path d="M77.4874 13.5083C78.6074 16.3563 82.3874 15.6963 82.3874 15.6963L82.0794 13.6683C79.9154 14.2683 78.2874 11.8203 78.2874 11.8203L77.4834 13.5083H77.4874Z" fill="#02BF72"/>
<path d="M34.8313 61.6524C32.9993 61.8484 32.7793 64.1484 32.7793 64.1484L34.0073 64.2924C34.0073 62.9404 35.6833 62.3844 35.6833 62.3844L34.8313 61.6484V61.6524Z" fill="#02BF72"/>
<path d="M42.3881 22.6119C42.6561 20.7879 40.4801 20.0039 40.4801 20.0039L40.0361 21.1559C41.3481 21.4879 41.4681 23.2559 41.4681 23.2559L42.3921 22.6119H42.3881Z" fill="#02BF72"/>
<path d="M11.0397 50.62C10.7117 53.48 14.4997 54.172 14.4997 54.172L15.1837 52.3C12.9117 52.096 12.5797 49.416 12.5797 49.416L11.0357 50.62H11.0397Z" fill="#02BF72"/>
<path d="M101.112 36.8119C102.952 36.9159 103.544 34.6799 103.544 34.6799L102.356 34.3359C102.14 35.6719 100.392 35.9439 100.392 35.9439L101.112 36.8079V36.8119Z" fill="#02BF72"/>
</svg>
