<svg width="19" height="24" viewBox="0 0 19 24" fill="none" xmlns="http://www.w3.org/2000/svg">
<rect width="19" height="24" fill="#1E1E1E"/>
<path d="M-2093 -778C-2093 -779.105 -2092.1 -780 -2091 -780H9037C9038.1 -780 9039 -779.105 9039 -778V1367C9039 1368.1 9038.1 1369 9037 1369H-2091C-2092.1 1369 -2093 1368.1 -2093 1367V-778Z" fill="#404040"/>
<path d="M-2091 -779H9037V-781H-2091V-779ZM9038 -778V1367H9040V-778H9038ZM9037 1368H-2091V1370H9037V1368ZM-2092 1367V-778H-2094V1367H-2092ZM-2091 1368C-2091.55 1368 -2092 1367.55 -2092 1367H-2094C-2094 1368.66 -2092.66 1370 -2091 1370V1368ZM9038 1367C9038 1367.55 9037.55 1368 9037 1368V1370C9038.66 1370 9040 1368.66 9040 1367H9038ZM9037 -779C9037.55 -779 9038 -778.552 9038 -778H9040C9040 -779.657 9038.66 -781 9037 -781V-779ZM-2091 -781C-2092.66 -781 -2094 -779.657 -2094 -778H-2092C-2092 -778.552 -2091.55 -779 -2091 -779V-781Z" fill="white" fill-opacity="0.1"/>
<g clip-path="url(#clip0_6_2)">
<rect width="1440" height="1607.1" transform="translate(-390 -509)" fill="white"/>
<g opacity="0.9">
<rect x="-239.736" y="-207.9" width="608.8" height="309.904" rx="7.9" fill="#E9F6FD"/>
<rect x="-239.736" y="-207.9" width="608.8" height="309.904" rx="7.9" stroke="black" stroke-width="0.2"/>
<rect x="-219.336" y="-11.3955" width="295" height="47" rx="11.5" fill="white" stroke="#7A7A7A" stroke-dasharray="6 6"/>
<path d="M2.50236 2.77051V21.5231H16.3042V2.77051H14.2059V4.63082C14.2059 4.99856 13.9167 5.2975 13.5602 5.2975H5.31663C4.96094 5.2975 4.67179 4.99856 4.67179 4.63082V2.77051H2.50195H2.50236ZM10.502 14.9889H4.2278V13.9749H10.502V14.9889ZM14.7291 18.7197H13.4493V20.0437H12.3408V18.7197H11.0602V17.5736H12.3408V16.2505H13.4493V17.5736H14.7291V18.7197ZM14.7291 12.653H4.2278V11.639H14.7291V12.653ZM14.7291 10.3175H4.2278V9.30349H14.7291V10.3175ZM14.7291 6.96715V7.98118H4.2278V6.96715H14.7291Z" fill="white"/>
<path d="M13.5615 0H5.31795C4.96226 0 4.67311 0.298517 4.67311 0.667098V1.17666H1.3167C0.956906 1.17666 0.664062 1.47857 0.664062 1.8514V22.5743C0.664062 22.9467 0.956906 23.2491 1.3167 23.2491H17.4248C17.7854 23.2491 18.0782 22.9463 18.0782 22.5743V1.8514C18.0782 1.47815 17.7854 1.17666 17.4248 1.17666H14.2072V0.667098C14.2072 0.298517 13.918 0 13.5615 0ZM5.96319 1.99535H12.9167V3.96395H5.96319V1.99535ZM16.3052 2.77115V21.5238H2.50327V2.77115H4.67311V4.63147C4.67311 4.9992 4.96185 5.29814 5.31795 5.29814H13.5615C13.918 5.29814 14.2072 4.9992 14.2072 4.63147V2.77115H16.3056H16.3052Z" fill="#616E7D"/>
<path d="M14.7298 6.96777H4.22852V7.9818H14.7298V6.96777Z" fill="#03C777"/>
<path d="M14.7298 9.30371H4.22852V10.3177H14.7298V9.30371Z" fill="#03C777"/>
<path d="M14.7298 11.6396H4.22852V12.6537H14.7298V11.6396Z" fill="#03C777"/>
<path d="M10.5027 13.9756H4.22852V14.9896H10.5027V13.9756Z" fill="#03C777"/>
<path d="M5.50956 16.3105V17.6337H4.22852V18.7794H5.50956V20.1038H6.61768V18.7794H7.8979V17.6337H6.61768V16.3105H5.50956Z" fill="#EF0101"/>
<path d="M12.9184 1.99512H5.96484V3.96372H12.9184V1.99512Z" fill="#03C777"/>
<ellipse cx="15.5828" cy="19.7414" rx="5.08084" ry="5.25894" fill="#F4C005"/>
<path d="M13.8047 21.8451H17.3613V21.3192H13.8047V21.8451ZM13.8047 19.2156H14.8209V20.7933H16.3451V19.2156H17.3613L15.583 17.375L13.8047 19.2156Z" fill="white"/>
</g>
</g>
<defs>
<clipPath id="clip0_6_2">
<rect width="1440" height="1607.1" fill="white" transform="translate(-390 -509)"/>
</clipPath>
</defs>
</svg>
