<svg width="366" height="189" viewBox="0 0 366 189" fill="none" xmlns="http://www.w3.org/2000/svg">
<g clip-path="url(#clip0_651_2854)">
<rect y="0.804199" width="366" height="188" rx="4" fill="#D9F0FC"/>
<path d="M87.5 -9.57256C87.5 -9.57256 73.5429 16.9441 115 28.4852C156.457 40.0263 178.5 52.6372 178.5 86.7306C178.5 120.824 137.998 183.136 -6 188.804V-9.57256H65.2714H87.5Z" fill="#A9DEF9"/>
<path d="M408.562 171.207C408.562 171.207 454.727 134.67 392.229 103.158C329.731 71.6451 285.862 33.7718 325.647 -9.8084C365.432 -53.3886 492.901 -101.748 748.807 -57.5083" stroke="#063851" stroke-width="0.436906" stroke-miterlimit="10"/>
<path d="M389.947 80.5628C271.833 41.0767 354.432 -21.6269 400.121 -68.0859L389.947 80.5628Z" fill="#A9DEF9"/>
<g clip-path="url(#clip1_651_2854)">
<path d="M271.412 136.995H268.796V103.129C268.795 101.747 268.243 100.423 267.263 99.4464C266.283 98.4697 264.955 97.9202 263.569 97.9187H242.659V82.2883C242.657 80.9069 242.106 79.5826 241.126 78.6059C240.146 77.6291 238.817 77.0797 237.431 77.0781H206.066C204.68 77.0797 203.352 77.6291 202.372 78.6059C201.392 79.5826 200.84 80.9069 200.839 82.2883V136.995H198.227C197.534 136.995 196.869 137.269 196.379 137.758C195.889 138.246 195.613 138.909 195.613 139.6C195.613 140.291 195.889 140.953 196.379 141.442C196.869 141.93 197.534 142.205 198.227 142.205H271.412C272.105 142.205 272.77 141.93 273.26 141.442C273.75 140.953 274.026 140.291 274.026 139.6C274.026 138.909 273.75 138.246 273.26 137.758C272.77 137.269 272.105 136.995 271.412 136.995ZM232.204 113.549C232.204 114.24 231.928 114.903 231.438 115.391C230.948 115.88 230.283 116.154 229.59 116.154H219.135C218.442 116.154 217.777 115.88 217.287 115.391C216.797 114.903 216.521 114.24 216.521 113.549C216.521 112.858 216.797 112.196 217.287 111.707C217.777 111.218 218.442 110.944 219.135 110.944H229.59C230.283 110.944 230.948 111.218 231.438 111.707C231.928 112.196 232.204 112.858 232.204 113.549ZM213.908 90.1035H224.363C225.056 90.1035 225.721 90.3779 226.211 90.8665C226.701 91.355 226.976 92.0176 226.976 92.7085C226.976 93.3994 226.701 94.062 226.211 94.5506C225.721 95.0391 225.056 95.3136 224.363 95.3136H213.908C213.214 95.3136 212.55 95.0391 212.059 94.5506C211.569 94.062 211.294 93.3994 211.294 92.7085C211.294 92.0176 211.569 91.355 212.059 90.8665C212.55 90.3779 213.214 90.1035 213.908 90.1035ZM213.908 123.969H224.363C225.056 123.969 225.721 124.244 226.211 124.732C226.701 125.221 226.976 125.883 226.976 126.574C226.976 127.265 226.701 127.928 226.211 128.416C225.721 128.905 225.056 129.179 224.363 129.179H213.908C213.214 129.179 212.55 128.905 212.059 128.416C211.569 127.928 211.294 127.265 211.294 126.574C211.294 125.883 211.569 125.221 212.059 124.732C212.55 124.244 213.214 123.969 213.908 123.969ZM242.659 103.129H263.569V136.995H242.659V103.129Z" fill="#063851"/>
<path d="M255.728 123.969H250.5C249.807 123.969 249.142 124.243 248.652 124.732C248.162 125.22 247.887 125.883 247.887 126.574C247.887 127.265 248.162 127.927 248.652 128.416C249.142 128.904 249.807 129.179 250.5 129.179H255.728C256.421 129.179 257.086 128.904 257.576 128.416C258.066 127.927 258.342 127.265 258.342 126.574C258.342 125.883 258.066 125.22 257.576 124.732C257.086 124.243 256.421 123.969 255.728 123.969ZM250.5 116.153H255.728C256.421 116.153 257.086 115.879 257.576 115.39C258.066 114.902 258.342 114.239 258.342 113.548C258.342 112.858 258.066 112.195 257.576 111.706C257.086 111.218 256.421 110.943 255.728 110.943H250.5C249.807 110.943 249.142 111.218 248.652 111.706C248.162 112.195 247.887 112.858 247.887 113.548C247.887 114.239 248.162 114.902 248.652 115.39C249.142 115.879 249.807 116.153 250.5 116.153Z" fill="#063851"/>
</g>
<path d="M313.291 67.006C313.291 81.4768 301.521 93.2078 287.002 93.2078C272.483 93.2078 260.713 81.4768 260.713 67.006C260.713 52.5351 272.483 40.8042 287.002 40.8042C301.521 40.8042 313.291 52.5351 313.291 67.006Z" fill="#A9DEF9"/>
<path d="M258 90.5656L264.662 75.6783L274 87.1847L258 90.5656Z" fill="#A9DEF9"/>
<path d="M277.584 69.2652C278.97 70.316 280.618 69.462 281.593 68.7437H283.142C283.17 68.7437 283.18 68.7053 283.156 68.6914C282.93 68.5656 282.717 68.2626 282.551 67.9683C282.354 67.6199 282.208 67.2428 282.104 66.8506C281.748 65.5048 281.245 63.2411 281.309 61.3989C281.461 60.366 284.883 59.9742 286.856 59.4382C285.833 60.2625 282.929 61.0572 282.929 61.0572C282.929 61.0572 288 60.2966 288.189 58.7963L288.19 58.796L291.607 60.4902C291.899 60.6351 292.071 60.9679 292.024 61.3105C291.798 62.9589 291.298 65.3184 290.976 66.7902C290.876 67.2505 290.71 67.6923 290.47 68.0886C290.316 68.3434 290.13 68.5867 289.934 68.6973C289.909 68.7117 289.919 68.7511 289.948 68.7511H291.293C292.29 69.3248 294.123 69.2441 295.127 69.1451C295.336 69.1245 295.404 68.8394 295.233 68.7085C293.741 67.566 293.471 65.0318 293.633 63.503C293.815 61.7911 293.633 59.6366 293.633 59.6366C293.087 53.9309 289.105 54.8378 289.105 54.8378C289.105 54.8378 288.409 52.8702 284.75 53.8409C284.749 53.8412 284.747 53.8416 284.746 53.842C283.382 54.1494 282.522 54.7021 281.875 55.4231C280.553 56.956 279.96 59.5902 279.853 61.0101L279.853 61.0118C279.792 61.5711 279.78 64.3112 279.759 64.5803C279.566 67.1401 278.173 68.428 277.583 68.8635C277.453 68.9594 277.455 69.1676 277.584 69.2652Z" fill="#181A1B"/>
<path d="M286.583 70.3185L285.204 69.4678H282.742L286.583 71.7898L290.382 69.4678H287.888L286.583 70.3185Z" fill="#BC2D2D"/>
<path d="M297.056 73.4271C296.963 72.9226 296.649 72.4875 296.2 72.2379L294.828 71.4764L293.332 73.5913C293.641 73.9305 293.828 74.3752 293.862 74.8797C293.905 75.494 293.713 76.1286 293.324 76.6618L292.105 78.3331C292.014 78.4579 291.871 78.5251 291.727 78.5251C291.632 78.5251 291.534 78.4963 291.452 78.4365L290.805 77.9662C290.616 77.8297 290.537 77.5748 290.643 77.3689C290.778 77.1055 291.107 77.0351 291.335 77.2004L291.623 77.4084L292.567 76.1147C292.828 75.7564 292.958 75.3404 292.931 74.9415C292.905 74.5736 292.748 74.2686 292.488 74.0798C292.229 73.891 291.886 73.8355 291.529 73.9262C291.141 74.0233 290.783 74.275 290.521 74.6322L289.578 75.927L289.84 76.1168C290.029 76.2534 290.109 76.5083 290.003 76.7152C289.867 76.9775 289.539 77.049 289.309 76.8837L288.65 76.4069C288.55 76.3333 288.482 76.2235 288.464 76.1019C288.444 75.9803 288.474 75.8555 288.547 75.7553L289.765 74.0841C290.155 73.5508 290.7 73.1732 291.301 73.0229C291.74 72.913 292.169 72.9343 292.554 73.0741L294.016 71.005L292.08 69.8809C291.821 69.7294 291.502 69.7166 291.232 69.8457L286.56 72.9205L281.83 69.8105C281.58 69.7209 281.3 69.7454 281.068 69.8809L279.326 70.893C279.623 72.2614 280.336 74.083 282.02 75.4439C282.292 75.2668 282.637 75.1932 282.998 75.2807C283.451 75.3916 283.812 75.7649 283.904 76.2203C284.072 77.0564 283.39 77.787 282.562 77.7017C281.922 77.6366 281.429 77.0575 281.46 76.4165C281.463 76.3472 281.472 76.28 281.486 76.2139C279.658 74.7741 278.835 72.8895 278.465 71.3911L276.949 72.239C276.5 72.4875 276.185 72.9237 276.091 73.4281L274.92 79.7438C274.853 80.1068 275.132 80.4416 275.503 80.4416H297.645C298.015 80.4416 298.295 80.1067 298.228 79.7438L297.056 73.4271Z" fill="#063851"/>
<path d="M0 17.8042H82L73.6063 32.6546L82 47.505H0V17.8042Z" fill="url(#paint0_linear_651_2854)"/>
<path d="M13.831 37.1377C13.1124 37.1377 12.5057 37.0164 12.011 36.7737C11.5257 36.5217 11.1197 36.2324 10.793 35.9057L11.535 34.8697C11.8057 35.1217 12.109 35.3457 12.445 35.5417C12.781 35.7284 13.173 35.8217 13.621 35.8217C14.1157 35.8217 14.5264 35.6724 14.853 35.3737C15.1797 35.0751 15.343 34.6551 15.343 34.1137C15.343 33.5817 15.1937 33.1711 14.895 32.8817C14.5964 32.5924 14.1997 32.4477 13.705 32.4477C13.4157 32.4477 13.173 32.4897 12.977 32.5737C12.781 32.6484 12.5477 32.7744 12.277 32.9517L11.507 32.4617L11.773 28.0657H16.533V29.4237H13.173L12.991 31.5797C13.1777 31.4864 13.3597 31.4164 13.537 31.3697C13.7237 31.3137 13.9337 31.2857 14.167 31.2857C14.6804 31.2857 15.147 31.3837 15.567 31.5797C15.987 31.7757 16.323 32.0791 16.575 32.4897C16.8364 32.9004 16.967 33.4277 16.967 34.0717C16.967 34.7157 16.8177 35.2664 16.519 35.7237C16.2297 36.1811 15.847 36.5311 15.371 36.7737C14.895 37.0164 14.3817 37.1377 13.831 37.1377ZM20.9388 37.1377C20.0148 37.1377 19.2774 36.7364 18.7268 35.9337C18.1854 35.1311 17.9148 33.9784 17.9148 32.4757C17.9148 30.9731 18.1854 29.8344 18.7268 29.0597C19.2774 28.2851 20.0148 27.8977 20.9388 27.8977C21.8628 27.8977 22.5954 28.2851 23.1368 29.0597C23.6874 29.8344 23.9628 30.9731 23.9628 32.4757C23.9628 33.9784 23.6874 35.1311 23.1368 35.9337C22.5954 36.7364 21.8628 37.1377 20.9388 37.1377ZM20.9388 35.8777C21.2281 35.8777 21.4848 35.7704 21.7088 35.5557C21.9328 35.3317 22.1054 34.9724 22.2268 34.4777C22.3574 33.9831 22.4228 33.3157 22.4228 32.4757C22.4228 31.6357 22.3574 30.9731 22.2268 30.4877C22.1054 30.0024 21.9328 29.6617 21.7088 29.4657C21.4848 29.2604 21.2281 29.1577 20.9388 29.1577C20.6588 29.1577 20.4068 29.2604 20.1828 29.4657C19.9588 29.6617 19.7814 30.0024 19.6508 30.4877C19.5201 30.9731 19.4548 31.6357 19.4548 32.4757C19.4548 33.3157 19.5201 33.9831 19.6508 34.4777C19.7814 34.9724 19.9588 35.3317 20.1828 35.5557C20.4068 35.7704 20.6588 35.8777 20.9388 35.8777ZM26.8565 33.4417C26.2125 33.4417 25.6852 33.1897 25.2745 32.6857C24.8732 32.1724 24.6725 31.4537 24.6725 30.5297C24.6725 29.6151 24.8732 28.9057 25.2745 28.4017C25.6852 27.8977 26.2125 27.6457 26.8565 27.6457C27.5005 27.6457 28.0232 27.8977 28.4245 28.4017C28.8352 28.9057 29.0405 29.6151 29.0405 30.5297C29.0405 31.4537 28.8352 32.1724 28.4245 32.6857C28.0232 33.1897 27.5005 33.4417 26.8565 33.4417ZM26.8565 32.5037C27.1552 32.5037 27.3978 32.3451 27.5845 32.0277C27.7805 31.7104 27.8785 31.2111 27.8785 30.5297C27.8785 29.8391 27.7805 29.3444 27.5845 29.0457C27.3978 28.7377 27.1552 28.5837 26.8565 28.5837C26.5672 28.5837 26.3245 28.7377 26.1285 29.0457C25.9325 29.3444 25.8345 29.8391 25.8345 30.5297C25.8345 31.2111 25.9325 31.7104 26.1285 32.0277C26.3245 32.3451 26.5672 32.5037 26.8565 32.5037ZM27.1505 37.1377L32.1485 27.6457H33.1285L28.1445 37.1377H27.1505ZM33.4225 37.1377C32.7785 37.1377 32.2512 36.8857 31.8405 36.3817C31.4392 35.8684 31.2385 35.1497 31.2385 34.2257C31.2385 33.3111 31.4392 32.6017 31.8405 32.0977C32.2512 31.5937 32.7785 31.3417 33.4225 31.3417C34.0665 31.3417 34.5892 31.5937 34.9905 32.0977C35.4012 32.6017 35.6065 33.3111 35.6065 34.2257C35.6065 35.1497 35.4012 35.8684 34.9905 36.3817C34.5892 36.8857 34.0665 37.1377 33.4225 37.1377ZM33.4225 36.1997C33.7212 36.1997 33.9638 36.0411 34.1505 35.7237C34.3465 35.4064 34.4445 34.9071 34.4445 34.2257C34.4445 33.5351 34.3465 33.0404 34.1505 32.7417C33.9638 32.4337 33.7212 32.2797 33.4225 32.2797C33.1332 32.2797 32.8905 32.4337 32.6945 32.7417C32.4985 33.0404 32.4005 33.5351 32.4005 34.2257C32.4005 34.9071 32.4985 35.4064 32.6945 35.7237C32.8905 36.0411 33.1332 36.1997 33.4225 36.1997ZM42.9847 37.1377C42.1914 37.1377 41.4914 36.9464 40.8847 36.5637C40.2781 36.1717 39.8021 35.6211 39.4567 34.9117C39.1207 34.1931 38.9527 33.3391 38.9527 32.3497C38.9527 31.3604 39.1207 30.5157 39.4567 29.8157C39.8021 29.1157 40.2781 28.5791 40.8847 28.2057C41.4914 27.8324 42.1914 27.6457 42.9847 27.6457C43.7874 27.6457 44.4921 27.8324 45.0987 28.2057C45.7054 28.5791 46.1767 29.1157 46.5127 29.8157C46.8581 30.5157 47.0307 31.3604 47.0307 32.3497C47.0307 33.3391 46.8581 34.1931 46.5127 34.9117C46.1767 35.6211 45.7054 36.1717 45.0987 36.5637C44.4921 36.9464 43.7874 37.1377 42.9847 37.1377ZM42.9847 35.7237C43.7034 35.7237 44.2774 35.4204 44.7067 34.8137C45.1361 34.1977 45.3507 33.3764 45.3507 32.3497C45.3507 31.3231 45.1361 30.5204 44.7067 29.9417C44.2774 29.3537 43.7034 29.0597 42.9847 29.0597C42.2661 29.0597 41.6921 29.3537 41.2627 29.9417C40.8334 30.5204 40.6187 31.3231 40.6187 32.3497C40.6187 33.3764 40.8334 34.1977 41.2627 34.8137C41.6921 35.4204 42.2661 35.7237 42.9847 35.7237ZM48.5823 36.9697V27.8137H54.1123V29.1857H50.2063V31.7757H53.5383V33.1477H50.2063V36.9697H48.5823ZM55.439 36.9697V27.8137H60.969V29.1857H57.063V31.7757H60.395V33.1477H57.063V36.9697H55.439Z" fill="#00151C"/>
</g>
<defs>
<linearGradient id="paint0_linear_651_2854" x1="1.78882e-06" y1="20.3869" x2="95.5591" y2="52.0247" gradientUnits="userSpaceOnUse">
<stop stop-color="#24FEA5"/>
<stop offset="1" stop-color="#01DA82"/>
</linearGradient>
<clipPath id="clip0_651_2854">
<rect y="0.804199" width="366" height="188" rx="4" fill="white"/>
</clipPath>
<clipPath id="clip1_651_2854">
<rect width="83.6399" height="83.3621" fill="white" transform="translate(193 69.2681)"/>
</clipPath>
</defs>
</svg>
