<svg width="366" height="189" viewBox="0 0 366 189" fill="none" xmlns="http://www.w3.org/2000/svg">
<g clip-path="url(#clip0_651_2833)">
<rect y="0.804199" width="366" height="188" rx="4" fill="#DEF7E8"/>
<path d="M87.7534 -8.1958C87.7534 -8.1958 73.7584 18.1368 115.328 29.5978C156.897 41.0588 179 53.5822 179 87.439C179 121.296 138.388 183.176 -6 188.804V-8.1958H65.4646H87.7534Z" fill="#C1F0D3"/>
<path d="M408.562 148.547C408.562 148.547 454.727 116.869 392.229 89.547C329.731 62.2249 285.862 29.3879 325.647 -8.39709C365.432 -46.182 492.901 -88.1107 748.807 -49.7539" stroke="#092212" stroke-width="0.436906" stroke-miterlimit="10"/>
<path d="M389.947 69.9568C271.833 35.7215 354.432 -18.6438 400.121 -58.9248L389.947 69.9568Z" fill="#C1F0D3"/>
<path d="M252.25 84.3042L257.5 77.3042V54.5542C257.5 52.6977 258.237 50.9172 259.55 49.6045C260.863 48.2917 262.643 47.5542 264.5 47.5542H296C297.857 47.5542 299.637 48.2917 300.95 49.6045C302.263 50.9172 303 52.6977 303 54.5542V77.3042C303 79.1607 302.263 80.9412 300.95 82.2539C299.637 83.5667 297.857 84.3042 296 84.3042H252.25Z" fill="white"/>
<path d="M301.058 123.487L292.501 110.047V91.3042C292.501 90.8401 292.316 90.395 291.988 90.0668C291.66 89.7386 291.215 89.5542 290.751 89.5542C290.286 89.5542 289.841 89.7386 289.513 90.0668C289.185 90.395 289.001 90.8401 289.001 91.3042V108.804H219.001V66.8042C219.001 65.4118 219.554 64.0765 220.538 63.0919C221.523 62.1073 222.858 61.5542 224.251 61.5542H247.001C247.465 61.5542 247.91 61.3698 248.238 61.0416C248.566 60.7134 248.751 60.2683 248.751 59.8042C248.751 59.3401 248.566 58.895 248.238 58.5668C247.91 58.2386 247.465 58.0542 247.001 58.0542H224.251C221.93 58.0542 219.704 58.9761 218.063 60.617C216.422 62.258 215.501 64.4836 215.501 66.8042V110.047L206.943 123.487C206.438 124.28 206.156 125.195 206.126 126.135C206.095 127.075 206.318 128.006 206.771 128.83C207.223 129.655 207.889 130.342 208.698 130.822C209.507 131.301 210.43 131.554 211.371 131.554H296.631C297.571 131.554 298.494 131.301 299.303 130.822C300.113 130.342 300.778 129.655 301.231 128.83C301.683 128.006 301.906 127.075 301.875 126.135C301.845 125.195 301.563 124.28 301.058 123.487ZM298.153 127.144C298.003 127.418 297.783 127.646 297.516 127.806C297.248 127.966 296.942 128.052 296.631 128.054H211.371C211.057 128.054 210.749 127.969 210.479 127.808C210.209 127.648 209.988 127.418 209.837 127.142C209.687 126.867 209.613 126.556 209.625 126.242C209.636 125.928 209.731 125.623 209.901 125.359L218.213 112.304H289.788L298.101 125.359C298.269 125.625 298.362 125.93 298.372 126.244C298.381 126.559 298.305 126.869 298.153 127.144Z" fill="#124F2A"/>
<path d="M247 101.804C246.536 101.804 246.091 101.62 245.763 101.292C245.434 100.963 245.25 100.518 245.25 100.054V96.5542C245.25 96.0901 245.066 95.6449 244.737 95.3168C244.409 94.9886 243.964 94.8042 243.5 94.8042H229.5C229.036 94.8042 228.591 94.9886 228.263 95.3168C227.934 95.6449 227.75 96.0901 227.75 96.5542V100.054C227.75 100.518 227.566 100.963 227.237 101.292C226.909 101.62 226.464 101.804 226 101.804C225.536 101.804 225.091 101.62 224.763 101.292C224.434 100.963 224.25 100.518 224.25 100.054V96.5542C224.25 95.1618 224.803 93.8265 225.788 92.8419C226.772 91.8573 228.108 91.3042 229.5 91.3042H243.5C244.892 91.3042 246.228 91.8573 247.212 92.8419C248.197 93.8265 248.75 95.1618 248.75 96.5542V100.054C248.75 100.518 248.566 100.963 248.237 101.292C247.909 101.62 247.464 101.804 247 101.804Z" fill="#124F2A"/>
<path d="M296.001 86.0542H252.251C251.928 86.0532 251.611 85.9628 251.336 85.7929C251.061 85.623 250.839 85.3803 250.693 85.0917C250.546 84.8011 250.482 84.4752 250.51 84.1505C250.538 83.8259 250.656 83.5155 250.851 83.2542L255.751 76.7267V54.5542C255.751 52.2336 256.673 50.008 258.314 48.367C259.955 46.7261 262.18 45.8042 264.501 45.8042H296.001C298.321 45.8042 300.547 46.7261 302.188 48.367C303.829 50.008 304.751 52.2336 304.751 54.5542V77.3042C304.751 79.6248 303.829 81.8504 302.188 83.4914C300.547 85.1323 298.321 86.0542 296.001 86.0542ZM255.751 82.5542H296.001C297.393 82.5542 298.728 82.0011 299.713 81.0165C300.698 80.0319 301.251 78.6966 301.251 77.3042V54.5542C301.251 53.1618 300.698 51.8265 299.713 50.8419C298.728 49.8573 297.393 49.3042 296.001 49.3042H264.501C263.108 49.3042 261.773 49.8573 260.788 50.8419C259.804 51.8265 259.251 53.1618 259.251 54.5542V77.3042C259.251 77.6828 259.128 78.0513 258.901 78.3542L255.751 82.5542Z" fill="#124F2A"/>
<path d="M236.5 87.8042C241.816 87.8042 246.125 83.4949 246.125 78.1792C246.125 72.8635 241.816 68.5542 236.5 68.5542C231.184 68.5542 226.875 72.8635 226.875 78.1792C226.875 83.4949 231.184 87.8042 236.5 87.8042Z" fill="#124F2A"/>
<path d="M217.251 110.554H290.751L299.501 124.432C299.832 124.955 300.019 125.557 300.042 126.175C300.065 126.794 299.923 127.408 299.632 127.954C299.34 128.501 298.908 128.96 298.381 129.285C297.854 129.61 297.25 129.789 296.631 129.804H211.371C210.752 129.789 210.148 129.61 209.62 129.285C209.093 128.96 208.662 128.501 208.37 127.954C208.078 127.408 207.936 126.794 207.959 126.175C207.982 125.557 208.169 124.955 208.501 124.432L217.251 110.554Z" fill="#124F2A"/>
<rect x="277.83" y="57.8682" width="4.76593" height="16.6808" fill="#FF0303"/>
<rect x="271.873" y="68.5918" width="4.76593" height="16.6808" transform="rotate(-90 271.873 68.5918)" fill="#FF0303"/>
<path d="M0 16.7178H88L78.9921 32.6548L88 48.5918H0V16.7178Z" fill="url(#paint0_linear_651_2833)"/>
<path d="M14.8435 37.4415C14.0723 37.4415 13.4212 37.3113 12.8904 37.0509C12.3695 36.7804 11.9338 36.4699 11.5832 36.1194L12.3795 35.0076C12.67 35.278 12.9955 35.5184 13.3561 35.7287C13.7167 35.9291 14.1374 36.0292 14.6182 36.0292C15.149 36.0292 15.5897 35.869 15.9403 35.5484C16.2909 35.2279 16.4662 34.7772 16.4662 34.1963C16.4662 33.6253 16.3059 33.1846 15.9854 32.8741C15.6649 32.5636 15.2392 32.4084 14.7083 32.4084C14.3978 32.4084 14.1374 32.4534 13.927 32.5436C13.7167 32.6237 13.4663 32.7589 13.1758 32.9492L12.3495 32.4234L12.6349 27.7057H17.7432V29.1631H14.1374L13.9421 31.4768C14.1424 31.3767 14.3377 31.3016 14.528 31.2515C14.7283 31.1914 14.9537 31.1613 15.2041 31.1613C15.755 31.1613 16.2558 31.2665 16.7066 31.4768C17.1573 31.6872 17.5179 32.0127 17.7883 32.4534C18.0688 32.8941 18.209 33.4601 18.209 34.1512C18.209 34.8423 18.0487 35.4333 17.7282 35.9241C17.4177 36.4149 17.007 36.7905 16.4962 37.0509C15.9854 37.3113 15.4345 37.4415 14.8435 37.4415ZM22.4713 37.4415C21.4797 37.4415 20.6885 37.0108 20.0975 36.1494C19.5165 35.288 19.2261 34.051 19.2261 32.4384C19.2261 30.8258 19.5165 29.6038 20.0975 28.7725C20.6885 27.9411 21.4797 27.5254 22.4713 27.5254C23.463 27.5254 24.2492 27.9411 24.8302 28.7725C25.4211 29.6038 25.7166 30.8258 25.7166 32.4384C25.7166 34.051 25.4211 35.288 24.8302 36.1494C24.2492 37.0108 23.463 37.4415 22.4713 37.4415ZM22.4713 36.0893C22.7818 36.0893 23.0573 35.9741 23.2977 35.7438C23.5381 35.5034 23.7234 35.1178 23.8536 34.5869C23.9938 34.056 24.0639 33.3399 24.0639 32.4384C24.0639 31.5369 23.9938 30.8258 23.8536 30.3049C23.7234 29.7841 23.5381 29.4185 23.2977 29.2082C23.0573 28.9878 22.7818 28.8776 22.4713 28.8776C22.1709 28.8776 21.9004 28.9878 21.66 29.2082C21.4196 29.4185 21.2293 29.7841 21.0891 30.3049C20.9489 30.8258 20.8788 31.5369 20.8788 32.4384C20.8788 33.3399 20.9489 34.056 21.0891 34.5869C21.2293 35.1178 21.4196 35.5034 21.66 35.7438C21.9004 35.9741 22.1709 36.0893 22.4713 36.0893ZM28.8221 33.4751C28.131 33.4751 27.565 33.2046 27.1243 32.6638C26.6936 32.1129 26.4783 31.3416 26.4783 30.35C26.4783 29.3684 26.6936 28.6072 27.1243 28.0663C27.565 27.5254 28.131 27.255 28.8221 27.255C29.5132 27.255 30.0741 27.5254 30.5048 28.0663C30.9455 28.6072 31.1659 29.3684 31.1659 30.35C31.1659 31.3416 30.9455 32.1129 30.5048 32.6638C30.0741 33.2046 29.5132 33.4751 28.8221 33.4751ZM28.8221 32.4685C29.1426 32.4685 29.403 32.2982 29.6034 31.9576C29.8137 31.6171 29.9189 31.0812 29.9189 30.35C29.9189 29.6088 29.8137 29.0779 29.6034 28.7574C29.403 28.4269 29.1426 28.2616 28.8221 28.2616C28.5116 28.2616 28.2512 28.4269 28.0408 28.7574C27.8305 29.0779 27.7253 29.6088 27.7253 30.35C27.7253 31.0812 27.8305 31.6171 28.0408 31.9576C28.2512 32.2982 28.5116 32.4685 28.8221 32.4685ZM29.1376 37.4415L34.5013 27.255H35.553L30.2043 37.4415H29.1376ZM35.8685 37.4415C35.1774 37.4415 34.6115 37.1711 34.1708 36.6302C33.7401 36.0793 33.5247 35.3081 33.5247 34.3165C33.5247 33.3349 33.7401 32.5736 34.1708 32.0327C34.6115 31.4919 35.1774 31.2214 35.8685 31.2214C36.5596 31.2214 37.1206 31.4919 37.5513 32.0327C37.992 32.5736 38.2123 33.3349 38.2123 34.3165C38.2123 35.3081 37.992 36.0793 37.5513 36.6302C37.1206 37.1711 36.5596 37.4415 35.8685 37.4415ZM35.8685 36.4349C36.189 36.4349 36.4495 36.2646 36.6498 35.9241C36.8601 35.5835 36.9653 35.0476 36.9653 34.3165C36.9653 33.5752 36.8601 33.0444 36.6498 32.7239C36.4495 32.3933 36.189 32.2281 35.8685 32.2281C35.558 32.2281 35.2976 32.3933 35.0873 32.7239C34.8769 33.0444 34.7717 33.5752 34.7717 34.3165C34.7717 35.0476 34.8769 35.5835 35.0873 35.9241C35.2976 36.2646 35.558 36.4349 35.8685 36.4349ZM46.1304 37.4415C45.279 37.4415 44.5278 37.2362 43.8768 36.8255C43.2257 36.4048 42.7149 35.8139 42.3443 35.0526C41.9837 34.2814 41.8034 33.3649 41.8034 32.3032C41.8034 31.2415 41.9837 30.335 42.3443 29.5838C42.7149 28.8325 43.2257 28.2566 43.8768 27.856C44.5278 27.4553 45.279 27.255 46.1304 27.255C46.9918 27.255 47.748 27.4553 48.3991 27.856C49.0502 28.2566 49.556 28.8325 49.9166 29.5838C50.2872 30.335 50.4725 31.2415 50.4725 32.3032C50.4725 33.3649 50.2872 34.2814 49.9166 35.0526C49.556 35.8139 49.0502 36.4048 48.3991 36.8255C47.748 37.2362 46.9918 37.4415 46.1304 37.4415ZM46.1304 35.9241C46.9017 35.9241 47.5177 35.5985 47.9784 34.9475C48.4392 34.2864 48.6695 33.405 48.6695 32.3032C48.6695 31.2014 48.4392 30.34 47.9784 29.719C47.5177 29.088 46.9017 28.7725 46.1304 28.7725C45.3592 28.7725 44.7432 29.088 44.2824 29.719C43.8217 30.34 43.5913 31.2014 43.5913 32.3032C43.5913 33.405 43.8217 34.2864 44.2824 34.9475C44.7432 35.5985 45.3592 35.9241 46.1304 35.9241ZM52.1376 37.2612V27.4353H58.0722V28.9077H53.8804V31.6872H57.4562V33.1596H53.8804V37.2612H52.1376ZM59.496 37.2612V27.4353H65.4307V28.9077H61.2388V31.6872H64.8147V33.1596H61.2388V37.2612H59.496Z" fill="#00151C"/>
</g>
<defs>
<linearGradient id="paint0_linear_651_2833" x1="1.9197e-06" y1="19.4894" x2="102.551" y2="53.4422" gradientUnits="userSpaceOnUse">
<stop stop-color="#24FEA5"/>
<stop offset="1" stop-color="#01DA82"/>
</linearGradient>
<clipPath id="clip0_651_2833">
<rect y="0.804199" width="366" height="188" rx="4" fill="white"/>
</clipPath>
</defs>
</svg>
