<svg width="116" height="133" viewBox="0 0 116 133" fill="none" xmlns="http://www.w3.org/2000/svg">
<path d="M30.8766 10.7334V82.0506H85.2057V10.7334H76.9457V17.8083C76.9457 19.2068 75.8076 20.3437 74.4042 20.3437H41.9545C40.5544 20.3437 39.4163 19.2068 39.4163 17.8083V10.7334H30.875H30.8766ZM62.3659 57.2005H37.6686V53.3442H62.3659V57.2005ZM79.0055 71.3891H73.9677V76.4243H69.6041V71.3891H64.5631V67.0304H69.6041V61.9984H73.9677V67.0304H79.0055V71.3891ZM79.0055 48.317H37.6686V44.4606H79.0055V48.317ZM79.0055 39.435H37.6686V35.5786H79.0055V39.435ZM79.0055 26.6935V30.5498H37.6686V26.6935H79.0055Z" fill="white"/>
<path d="M74.4057 0.196289H41.956C40.5559 0.196289 39.4178 1.33156 39.4178 2.7333V4.67118H26.2057C24.7895 4.67118 23.6367 5.81937 23.6367 7.23726V86.0476C23.6367 87.4639 24.7895 88.6137 26.2057 88.6137H89.6128C91.0323 88.6137 92.1851 87.4623 92.1851 86.0476V7.23726C92.1851 5.81776 91.0323 4.67118 89.6128 4.67118H76.9472V2.7333C76.9472 1.33156 75.8091 0.196289 74.4057 0.196289ZM44.496 7.78471H71.8674V15.2714H44.496V7.78471ZM85.2056 10.7351V82.0524H30.8765V10.7351H39.4178V17.81C39.4178 19.2085 40.5543 20.3454 41.956 20.3454H74.4057C75.8091 20.3454 76.9472 19.2085 76.9472 17.81V10.7351H85.2072H85.2056Z" fill="#616E7D"/>
<path d="M79.0029 26.6934H37.666V30.5497H79.0029V26.6934Z" fill="#03C777"/>
<path d="M79.0029 35.5801H37.666V39.4365H79.0029V35.5801Z" fill="#03C777"/>
<path d="M79.0029 44.4619H37.666V48.3183H79.0029V44.4619Z" fill="#03C777"/>
<path d="M62.3634 53.3447H37.666V57.2011H62.3634V53.3447Z" fill="#03C777"/>
<path d="M42.7106 62.2266V67.2586H37.668V71.6156H42.7106V76.6525H47.0726V71.6156H52.112V67.2586H47.0726V62.2266H42.7106Z" fill="#EF0101"/>
<path d="M71.8676 7.78516H44.4961V15.2718H71.8676V7.78516Z" fill="#03C777"/>
<path d="M5.504 128.388C4.62933 128.388 3.83467 128.18 3.12 127.764C2.40533 127.348 1.83467 126.74 1.408 125.94C0.992 125.13 0.784 124.148 0.784 122.996C0.784 121.855 0.997333 120.879 1.424 120.068C1.86133 119.247 2.44267 118.623 3.168 118.196C3.89333 117.759 4.69333 117.54 5.568 117.54C6.22933 117.54 6.816 117.674 7.328 117.94C7.84 118.207 8.26133 118.516 8.592 118.868L7.6 120.068C7.33333 119.791 7.03467 119.572 6.704 119.412C6.384 119.242 6.02133 119.156 5.616 119.156C5.05067 119.156 4.544 119.311 4.096 119.62C3.65867 119.919 3.312 120.351 3.056 120.916C2.81067 121.482 2.688 122.159 2.688 122.948C2.688 124.143 2.94933 125.082 3.472 125.764C3.99467 126.436 4.69333 126.772 5.568 126.772C6.03733 126.772 6.45333 126.676 6.816 126.484C7.17867 126.282 7.50933 126.02 7.808 125.7L8.8 126.868C8.37333 127.359 7.88267 127.738 7.328 128.004C6.784 128.26 6.176 128.388 5.504 128.388ZM12.1788 128.388C11.5281 128.388 11.0641 128.191 10.7868 127.796C10.5201 127.402 10.3868 126.863 10.3868 126.18V116.9H12.2268V126.276C12.2268 126.5 12.2694 126.66 12.3548 126.756C12.4401 126.842 12.5308 126.884 12.6268 126.884C12.6694 126.884 12.7068 126.884 12.7388 126.884C12.7814 126.874 12.8401 126.863 12.9148 126.852L13.1548 128.228C13.0481 128.271 12.9094 128.308 12.7388 128.34C12.5788 128.372 12.3921 128.388 12.1788 128.388ZM14.7305 128.196V120.34H16.5705V128.196H14.7305ZM15.6585 118.964C15.3278 118.964 15.0612 118.868 14.8585 118.676C14.6558 118.484 14.5545 118.228 14.5545 117.908C14.5545 117.599 14.6558 117.348 14.8585 117.156C15.0612 116.964 15.3278 116.868 15.6585 116.868C15.9892 116.868 16.2558 116.964 16.4585 117.156C16.6612 117.348 16.7625 117.599 16.7625 117.908C16.7625 118.228 16.6612 118.484 16.4585 118.676C16.2558 118.868 15.9892 118.964 15.6585 118.964ZM22.198 128.388C21.4833 128.388 20.838 128.228 20.262 127.908C19.6967 127.578 19.2433 127.108 18.902 126.5C18.5713 125.882 18.406 125.14 18.406 124.276C18.406 123.402 18.5873 122.66 18.95 122.052C19.3127 121.434 19.7927 120.964 20.39 120.644C20.998 120.314 21.6487 120.148 22.342 120.148C22.8433 120.148 23.2807 120.234 23.654 120.404C24.0273 120.575 24.358 120.783 24.646 121.028L23.75 122.228C23.5473 122.047 23.3393 121.908 23.126 121.812C22.9127 121.706 22.6833 121.652 22.438 121.652C21.8087 121.652 21.2913 121.892 20.886 122.372C20.4913 122.852 20.294 123.487 20.294 124.276C20.294 125.055 20.486 125.684 20.87 126.164C21.2647 126.644 21.7713 126.884 22.39 126.884C22.6993 126.884 22.9873 126.82 23.254 126.692C23.5313 126.554 23.782 126.394 24.006 126.212L24.758 127.428C24.3953 127.748 23.99 127.988 23.542 128.148C23.094 128.308 22.646 128.388 22.198 128.388ZM26.3086 128.196V116.9H28.1166V123.956H28.1646L31.0766 120.34H33.0926L30.4046 123.54L33.3646 128.196H31.3646L29.3486 124.788L28.1166 126.196V128.196H26.3086ZM39.7751 128.388C39.0925 128.388 38.5325 128.175 38.0951 127.748C37.6685 127.322 37.4551 126.767 37.4551 126.084C37.4551 125.242 37.8231 124.591 38.5591 124.132C39.2951 123.663 40.4685 123.343 42.0791 123.172C42.0685 122.756 41.9565 122.399 41.7431 122.1C41.5405 121.791 41.1725 121.636 40.6391 121.636C40.2551 121.636 39.8765 121.711 39.5031 121.86C39.1405 122.01 38.7831 122.191 38.4311 122.404L37.7591 121.172C38.1965 120.895 38.6871 120.655 39.2311 120.452C39.7858 120.25 40.3725 120.148 40.9911 120.148C41.9725 120.148 42.7031 120.442 43.1831 121.028C43.6738 121.604 43.9191 122.442 43.9191 123.54V128.196H42.3991L42.2711 127.332H42.2071C41.8551 127.631 41.4765 127.882 41.0711 128.084C40.6765 128.287 40.2445 128.388 39.7751 128.388ZM40.3671 126.948C40.6871 126.948 40.9751 126.874 41.2311 126.724C41.4978 126.564 41.7805 126.351 42.0791 126.084V124.324C41.0125 124.463 40.2711 124.671 39.8551 124.948C39.4391 125.215 39.2311 125.546 39.2311 125.94C39.2311 126.292 39.3378 126.548 39.5511 126.708C39.7645 126.868 40.0365 126.948 40.3671 126.948ZM46.1211 128.196V120.34H47.6411L47.7691 121.396H47.8331C48.1851 121.055 48.5691 120.762 48.9851 120.516C49.4011 120.271 49.8758 120.148 50.4091 120.148C51.2518 120.148 51.8651 120.42 52.2491 120.964C52.6331 121.508 52.8251 122.276 52.8251 123.268V128.196H50.9851V123.508C50.9851 122.858 50.8891 122.399 50.6971 122.132C50.5051 121.866 50.1905 121.732 49.7531 121.732C49.4118 121.732 49.1078 121.818 48.8411 121.988C48.5851 122.148 48.2918 122.388 47.9611 122.708V128.196H46.1211ZM57.8263 128.388C56.8449 128.388 56.0609 128.026 55.4743 127.3C54.8876 126.575 54.5943 125.567 54.5943 124.276C54.5943 123.423 54.7489 122.687 55.0583 122.068C55.3783 121.45 55.7943 120.975 56.3063 120.644C56.8183 120.314 57.3569 120.148 57.9223 120.148C58.3703 120.148 58.7489 120.228 59.0583 120.388C59.3783 120.538 59.6876 120.746 59.9863 121.012L59.9223 119.748V116.9H61.7623V128.196H60.2423L60.1143 127.348H60.0503C59.7623 127.636 59.4263 127.882 59.0423 128.084C58.6583 128.287 58.2529 128.388 57.8263 128.388ZM58.2743 126.868C58.8609 126.868 59.4103 126.575 59.9223 125.988V122.324C59.6556 122.079 59.3889 121.908 59.1223 121.812C58.8556 121.716 58.5889 121.668 58.3223 121.668C57.8209 121.668 57.3889 121.898 57.0263 122.356C56.6743 122.804 56.4983 123.439 56.4983 124.26C56.4983 125.103 56.6529 125.748 56.9623 126.196C57.2716 126.644 57.7089 126.868 58.2743 126.868ZM71.3886 128.388C70.5886 128.388 69.89 128.228 69.2926 127.908C68.6953 127.588 68.2313 127.076 67.9006 126.372C67.5806 125.668 67.4206 124.746 67.4206 123.604V117.732H69.2766V123.748C69.2766 124.506 69.362 125.108 69.5326 125.556C69.714 125.994 69.9646 126.308 70.2846 126.5C70.6046 126.682 70.9726 126.772 71.3886 126.772C71.8153 126.772 72.1886 126.682 72.5086 126.5C72.8393 126.308 73.0953 125.994 73.2766 125.556C73.4686 125.108 73.5646 124.506 73.5646 123.748V117.732H75.3406V123.604C75.3406 124.746 75.1806 125.668 74.8606 126.372C74.5406 127.076 74.082 127.588 73.4846 127.908C72.898 128.228 72.1993 128.388 71.3886 128.388ZM77.793 131.3V120.34H79.313L79.441 121.172H79.505C79.8357 120.895 80.2037 120.655 80.609 120.452C81.025 120.25 81.4463 120.148 81.873 120.148C82.8543 120.148 83.6117 120.511 84.145 121.236C84.689 121.962 84.961 122.932 84.961 124.148C84.961 125.044 84.801 125.812 84.481 126.452C84.161 127.082 83.745 127.562 83.233 127.892C82.7317 128.223 82.1877 128.388 81.601 128.388C81.2597 128.388 80.9183 128.314 80.577 128.164C80.2357 128.004 79.905 127.791 79.585 127.524L79.633 128.836V131.3H77.793ZM81.217 126.868C81.7397 126.868 82.177 126.639 82.529 126.18C82.881 125.722 83.057 125.05 83.057 124.164C83.057 123.375 82.9237 122.762 82.657 122.324C82.3903 121.887 81.9583 121.668 81.361 121.668C80.8063 121.668 80.2303 121.962 79.633 122.548V126.212C79.921 126.447 80.1983 126.618 80.465 126.724C80.7317 126.82 80.9823 126.868 81.217 126.868ZM88.6163 128.388C87.9656 128.388 87.5016 128.191 87.2243 127.796C86.9576 127.402 86.8243 126.863 86.8243 126.18V116.9H88.6643V126.276C88.6643 126.5 88.7069 126.66 88.7923 126.756C88.8776 126.842 88.9683 126.884 89.0643 126.884C89.1069 126.884 89.1443 126.884 89.1763 126.884C89.2189 126.874 89.2776 126.863 89.3523 126.852L89.5923 128.228C89.4856 128.271 89.3469 128.308 89.1763 128.34C89.0163 128.372 88.8296 128.388 88.6163 128.388ZM94.384 128.388C93.7333 128.388 93.1253 128.228 92.56 127.908C91.9947 127.578 91.536 127.108 91.184 126.5C90.832 125.882 90.656 125.14 90.656 124.276C90.656 123.402 90.832 122.66 91.184 122.052C91.536 121.434 91.9947 120.964 92.56 120.644C93.1253 120.314 93.7333 120.148 94.384 120.148C95.0453 120.148 95.6587 120.314 96.224 120.644C96.7893 120.964 97.248 121.434 97.6 122.052C97.952 122.66 98.128 123.402 98.128 124.276C98.128 125.14 97.952 125.882 97.6 126.5C97.248 127.108 96.7893 127.578 96.224 127.908C95.6587 128.228 95.0453 128.388 94.384 128.388ZM94.384 126.884C94.96 126.884 95.4133 126.644 95.744 126.164C96.0747 125.684 96.24 125.055 96.24 124.276C96.24 123.487 96.0747 122.852 95.744 122.372C95.4133 121.892 94.96 121.652 94.384 121.652C93.808 121.652 93.3547 121.892 93.024 122.372C92.704 122.852 92.544 123.487 92.544 124.276C92.544 125.055 92.704 125.684 93.024 126.164C93.3547 126.644 93.808 126.884 94.384 126.884ZM101.666 128.388C100.983 128.388 100.423 128.175 99.9858 127.748C99.5591 127.322 99.3458 126.767 99.3458 126.084C99.3458 125.242 99.7138 124.591 100.45 124.132C101.186 123.663 102.359 123.343 103.97 123.172C103.959 122.756 103.847 122.399 103.634 122.1C103.431 121.791 103.063 121.636 102.53 121.636C102.146 121.636 101.767 121.711 101.394 121.86C101.031 122.01 100.674 122.191 100.322 122.404L99.6497 121.172C100.087 120.895 100.578 120.655 101.122 120.452C101.676 120.25 102.263 120.148 102.882 120.148C103.863 120.148 104.594 120.442 105.074 121.028C105.564 121.604 105.81 122.442 105.81 123.54V128.196H104.29L104.162 127.332H104.098C103.746 127.631 103.367 127.882 102.962 128.084C102.567 128.287 102.135 128.388 101.666 128.388ZM102.258 126.948C102.578 126.948 102.866 126.874 103.122 126.724C103.388 126.564 103.671 126.351 103.97 126.084V124.324C102.903 124.463 102.162 124.671 101.746 124.948C101.33 125.215 101.122 125.546 101.122 125.94C101.122 126.292 101.228 126.548 101.442 126.708C101.655 126.868 101.927 126.948 102.258 126.948ZM110.764 128.388C109.782 128.388 108.998 128.026 108.412 127.3C107.825 126.575 107.532 125.567 107.532 124.276C107.532 123.423 107.686 122.687 107.996 122.068C108.316 121.45 108.732 120.975 109.244 120.644C109.756 120.314 110.294 120.148 110.86 120.148C111.308 120.148 111.686 120.228 111.996 120.388C112.316 120.538 112.625 120.746 112.924 121.012L112.86 119.748V116.9H114.7V128.196H113.18L113.052 127.348H112.988C112.7 127.636 112.364 127.882 111.98 128.084C111.596 128.287 111.19 128.388 110.764 128.388ZM111.212 126.868C111.798 126.868 112.348 126.575 112.86 125.988V122.324C112.593 122.079 112.326 121.908 112.06 121.812C111.793 121.716 111.526 121.668 111.26 121.668C110.758 121.668 110.326 121.898 109.964 122.356C109.612 122.804 109.436 123.439 109.436 124.26C109.436 125.103 109.59 125.748 109.9 126.196C110.209 126.644 110.646 126.868 111.212 126.868Z" fill="#063851"/>
<circle cx="82.6992" cy="75.4688" r="20" fill="#F4C005"/>
<path d="M75.6992 83.4688H89.6992V81.4688H75.6992V83.4688ZM75.6992 73.4688H79.6992V79.4688H85.6992V73.4688H89.6992L82.6992 66.4688L75.6992 73.4688Z" fill="white"/>
</svg>
